<svg xmlns="http://www.w3.org/2000/svg" width="28" height="17" viewBox="0 0 28 17"><g><g><path fill="#75b53e" d="M27.035 10.351c.123.481.275 1.051.096 1.547l-.114 1.978c.004.024-.017.042-.017.055v.018c0 .252-.721.45-1.119.484-.911.078-1.27.25-1.686.973-.498.865-1.294 1.322-2.263 1.322-.987 0-1.886-.37-2.297-1.34-.329-.779-.808-.979-1.622-.959-2.424.06-4.851.043-7.275.006-.603-.01-.906.187-1.123.735-.431 1.095-1.362 1.556-2.459 1.54-1.104-.017-1.927-.574-2.422-1.63-.132-.286-.553-.535-.884-.604-.481-.1-1.008.033-1.5-.04-.482-.073-1.213-.148-1.362-.454-.377-.77-.894-1.619-.285-2.566.174-.273.276-.685.219-.998-.481-2.615.607-4.602 2.432-6.32.253-.24.544-.48.695-.785C5.258.871 7.485 1.547 9.475 1.54c.505-.002.619.43.615.907-.018 2.306-.008 4.637-.005 6.943 0 .172.023.61.04.61H24V1H11V0h12.941c1.395 0 1.395-.102 1.395 1.253.002 1.561 0 7.021 0 8.468.726.25 1.623.334 1.699.63zM7.203 15.847c1.069.003 1.826-.743 1.824-1.8-.002-.99-.866-1.859-1.832-1.84-.961.02-1.835.928-1.816 1.888.019.98.821 1.75 1.824 1.752zm14.646 0c1.062.012 1.848-.739 1.862-1.78.013-.958-.801-1.824-1.752-1.863-1.008-.042-1.813.768-1.828 1.84-.017 1.093.649 1.791 1.718 1.803zM26 11.73c0-.879-.179-.896-1.381-.9-4.792-.018-9.443-.019-14.234-.026-1.137-.002-1.145-.003-1.147-1.134-.005-2.159-.017-4.318.005-6.477.006-.56-.173-.71-.747-.792-1.881-.265-3.318.286-4.256 1.985-.054.1-.144.184-.229.263C2.26 6.282 1.281 8.19 1.72 10.673c.073.42-.238.893-.259 1.346-.023.521.078 1.047.13 1.627.908 0 1.706.035 2.497-.02.224-.018.542-.26.622-.472.44-1.169 1.284-1.719 2.494-1.729 1.175-.009 2.028.508 2.458 1.636.166.435.421.606.922.6 2.662-.03 5.316-.002 7.977-.032.255-.002.625-.2.718-.41.542-1.212 1.37-1.869 2.721-1.792 1.275.074 1.893.666 2.503 2.215.512-.115 1.497.247 1.497-.286z"/></g></g></svg>