<svg xmlns="http://www.w3.org/2000/svg" width="25" height="30" viewBox="0 0 25 30"><g><g><path fill="#75b53e" d="M16.968 15.532c.194.418.183.815-.069 1.23a74.317 74.317 0 0 0-1.504 2.599c-.254.459-.598.716-1.143.697-.54-.02-1.08-.005-1.676-.005l-.075 1.143-2.924-2.958c.931-.912 1.921-1.878 2.955-2.89 0 .269.005.535 0 .802-.008.263.087.397.376.394.976-.011 1.952.014 2.928-.011.752-.02.891-.286.566-.966-.31-.651-.63-1.3-.925-1.957-.114-.256-.23-.32-.486-.181-.499.27-1.019.503-1.512.785-.088.05-.155.284-.114.388.154.385.373.744.53 1.129.043.106-.047.266-.077.402-.127-.051-.318-.065-.37-.158a28.156 28.156 0 0 1-.806-1.553c-.094-.187-.127-.357.136-.483.928-.443 1.846-.908 2.801-1.381.478 1.02.937 1.996 1.39 2.974zm-5.143 1.102c-.486.505-.976 1.007-1.45 1.522-.05.053-.047.233.004.287.491.512.997 1.009 1.551 1.564.07-.223.11-.346.152-.485.697 0 1.38-.02 2.06.007.392.015.638-.133.821-.47.27-.5.568-.985.847-1.48.078-.14.132-.292.237-.526h-.593c-.96 0-1.92.014-2.88-.01-.236-.006-.469-.131-.702-.201-.017-.07-.03-.14-.047-.208z"/></g><g><path fill="#75b53e" d="M5.814 12.257c.384-.115.767-.233 1.158-.32.085-.019.272.074.29.146.297 1.181.575 2.368.854 3.553.02.088.01.182.018.314-.127-.044-.227-.065-.314-.112-.632-.342-.633-.345-.984.25-.46.782-.915 1.565-1.374 2.347-.304.516-.11.961.467 1.033.894.113 1.81.03 2.767.03 0-.748.015-1.457-.018-2.164-.004-.098-.231-.257-.365-.268-.446-.034-.895-.013-1.392-.013l-.031-.479h2.313v3.432c-.092.016-.193.047-.295.048-.897.003-1.795-.006-2.693.003-.641.007-1.088-.313-1.398-.832-.551-.926-1.08-1.864-1.616-2.798-.261-.455-.253-.908.017-1.359.206-.342.39-.7.62-1.026.216-.305.108-.47-.173-.616-.17-.087-.333-.189-.591-.338.978-.296 1.859-.566 2.74-.83zM4.67 13.304c-.016.141.006.302-.056.418-.325.611-.68 1.204-1.002 1.815-.062.115-.08.313-.022.422.402.754.829 1.493 1.332 2.386.088-.175.123-.257.167-.334.557-.956 1.108-1.916 1.677-2.863.105-.173.295-.294.445-.439l.146.052c-.181-.746-.364-1.492-.548-2.255l-2.256.687z"/></g><g><path fill="#75b53e" d="M13.907 12.953l-4.081-1.204c.116-.092.192-.163.278-.217.622-.404.636-.411.26-1.084a62.642 62.642 0 0 0-1.391-2.394c-.25-.407-.506-.4-.786-.011-.468.65-.918 1.31-1.382 1.963-.137.196-.168.358.064.505.554.353 1.104.71 1.696 1.093l1.04-1.52.438.27c-.38.58-.752 1.144-1.118 1.712-.13.203-.268.274-.49.123-.838-.57-1.683-1.13-2.578-1.73.306-.45.602-.89.907-1.325.343-.491.698-.974 1.039-1.466.222-.32.515-.45.905-.445 1.084.013 2.169.026 3.252-.005.56-.015.897.259 1.159.69.192.315.405.625.535.965.18.464.428.39.745.182.125-.082.262-.146.497-.275l-.99 4.173zm-2.698-2.087c.115.213.146.472.245.813.459.14 1.07.344 1.694.507.126.033.398-.054.42-.137.187-.661.33-1.336.485-2.006-.047.016-.092.034-.138.049-.153-.152-.341-.281-.45-.461-.306-.496-.564-1.022-.872-1.515-.095-.152-.294-.328-.451-.333-.861-.033-1.723-.017-2.68-.017.622 1.098 1.196 2.092 1.747 3.1z"/></g><g><path fill="#75b53e" d="M25 28.057c0 1.248-.565 1.773-1.8 1.774-5.274.004-10.529.004-15.804 0-1.2-.001-1.724-.535-1.751-1.75-.023-.945-.023-.945-.944-.961-1.242-.02-1.754-.493-1.706-1.747.027-.724-.182-.946-.915-.92-1.404.056-1.754-.336-1.754-1.768C.325 15.81.324 8.94.326 2.068c0-1.43.38-1.79 1.831-1.79 5.298 0 10.596.015 15.895.016 1.207 0 1.633.45 1.637 1.652.004 1.164-.055 1.086.968 1.105 1.185.022 1.675.64 1.713 1.832.011.302.041.84.06 1.128 2.113.303 2.593.199 2.618 2.199H25zM2.859 22.842c4.767-.032 9.521-.033 14.287.002.75.006.895-.23.893-.932C18.014 15.57 18 9.228 18 2.885V2.21h-.797c-4.768 0-9.537-.133-14.307-.131-.929 0-.931-.133-.932.8-.001 6.342.01 12.685-.016 19.027-.003.707.17.94.911.936zm2.513 2.63c3.484.02 6.921.015 10.405.015 1.362 0 2.675-.031 4.035.012.671.02.753-.218.748-.87-.031-3.246-.205-6.492-.205-9.737 0-.35-.355-.612-.355-.82v-3.408c0-.181.359-.35.357-.518-.002-1.623.375-3.246.378-4.87.001-.373.023-.716-.532-.716-.575-.001-.51.379-.51.73-.003 5.776-.003 11.55-.003 17.326-.001 1.535-.313 1.853-1.83 1.854-4.176 0-8.352.007-12.529-.007-.499-.002-.85.112-.664.658.062.182.459.349.705.35zM23 7.345c-1-.177-1-.12-1 .609v7.31c0 .128.2.312.2.5.004 3.15.171 6.3.167 9.45-.002 1.463-.458 1.903-1.942 1.905-4.104 0-8.215-.001-12.321.006-.23 0-.543-.011-.682.12-.131.124-.169.439-.126.65.019.107.231.238.38.238 5.153.013 10.217.003 15.463.003.015-.313-.139-.603-.139-.877z"/></g></g></svg>