<svg xmlns="http://www.w3.org/2000/svg" width="40" height="40" viewBox="0 0 40 40"><g><g><path fill="#75b53e" d="M33.23 9.13c1.17-2.294 1.5-4.69.693-7.409-2.86.97-5.693 1.628-8.237 2.878-2.757 1.353-3.267 3.367-2.321 6.386l7.324-6.382 1.046 1.252c-1.175.932-2.321 1.836-3.462 2.744-2.007 1.596-3.724 3.417-4.622 5.887-.4 1.096-.151 1.643 1.037 1.645 1.176.001 2.06.448 2.996 1.07.575.382 1.355.55 2.062.617.877.083 1.729-.008 2.366.832.143.19.85.2 1.1.02 1.403-1.019 2.91-1.127 4.494-.653 1.548.465 1.844 1.235 1.103 2.637-2.034 3.855-4.723 7.171-7.967 10.091-1.823 1.641-3.714 2.538-6.245 2.342-2.663-.206-5.354-.048-8.032-.042-.415.001-.83.042-1.464.077.347.392.526.614.726.816.526.531.54 1.057.012 1.59-1.255 1.268-2.497 2.548-3.771 3.796-.518.508-1.061.487-1.602-.059-3.198-3.227-6.401-6.45-9.627-9.65-.59-.586-.66-1.014-.021-1.62a73.974 73.974 0 0 0 3.402-3.459c.77-.835 1.458-1.004 2.22-.03.149.19.368.324.61.53 1.15-1.074 2.16-2.232 3.383-3.087.993-.694 2.248-1.01 3.373-1.523.356-.163.838-.353.97-.658.632-1.465 2.406-2.74 4.023-2.768 2.664-.046 4.363-2.75 3.227-5.135-1.484-3.114-.251-7.035 2.916-8.677 1.452-.753 3.114-1.097 4.674-1.647 1.349-.475 2.697-.956 4.028-1.479.576-.225.978-.372 1.353.356 2.09 4.055.268 10.91-3.738 13.13-1.221.675-2.824.723-4.271.901-1.116.14-1.254-.498-.688-1.48 3.337.652 5.488-1.01 6.93-3.84zM11.79 29.97c1.11 1.237 2.21 1.775 4.013 1.636 3.488-.267 7.013-.049 10.52-.104a3.259 3.259 0 0 0 1.77-.603c3.81-2.806 6.848-6.298 9.12-10.457.448-.815.153-1.129-.642-1.226-1.605-.198-2.777.58-3.427 1.91-.661 1.35-1.787 1.977-3.025 2.522-.716.316-1.098.716-1.12 1.562-.027 1.213-.717 2.237-1.892 2.343-2.481.22-4.985.188-7.48.204-.184.001-.518-.45-.516-.69.002-.233.318-.619.548-.66.552-.104 1.134-.039 1.705-.054 1.66-.042 3.333 0 4.977-.195.453-.054.82-.818 1.229-1.257-.48-.427-.916-1.143-1.448-1.223-1.245-.19-2.547.025-3.803-.114-.91-.1-1.895-.33-2.656-.807-2.246-1.408-6.508-1.288-8.473.444-1.044.92-2 1.941-3.187 3.106 1.365 1.306 2.663 2.407 3.788 3.663zm2.187 5.23c.155-.194.128-.779-.046-.957-2.633-2.69-5.178-5.488-8.02-7.943-1.49-1.288-1.83 1.09-2.833 1.574-.56.27-1.013.846-.28 1.573 2.798 2.77 5.563 5.573 8.609 8.635.956-1.055 1.805-1.935 2.57-2.883zm3.353-14.795c1.217-.116 2.177.406 3.158 1.036.545.351 1.25.571 1.9.62 1.526.117 3.31-.386 4.537.244 1.75.897 2.72-.116 3.878-.743 1.06-.574.993-1.33-.06-1.97-.344-.21-.82-.198-1.224-.32-.928-.282-1.868-.539-2.771-.889-1.858-.723-3.664-2.062-5.621-.168-.228.22-.751.234-1.12.193-1.49-.167-2.607.483-3.83 1.754.543.121.857.271 1.153.243z"/></g></g></svg>