<svg xmlns="http://www.w3.org/2000/svg" width="60" height="60"><path fill="#f7f7f7" d="M58.77 36.467c-.872.949-1.8 1.832-2.893 2.53-.748.476-1.53.738-2.453.734-4.37-.03-8.74-.041-13.112-.041h-.332c0-1-.01-.953.004-1.422.008-.217-.035-.378-.197-.528-.193-.183-.15-.344.041-.51.07-.057.145-.155.145-.237.01-1.252.007-2.503.007-3.755-.022-.01-.047-.017-.068-.027-1.035 2.04-2.067 4.08-3.123 6.165.241-.016.433-.026.464.126-.093.195-.153.317-.212.439.125-.006.25-.008.401-.02-.07.053-.208.199-.245.174-.194-.11-.36-.265-.55-.418-.25.247.227.399.2.688-.124-.14-.222-.248-.316-.356-.337.19-.007.39-.008.616l-.282-.246-.074.424c-.07.074-.155.133-.199.213-.246.464-.48.93-.719 1.397-.628 1.23-1.26 2.463-1.877 3.7a.531.531 0 00.002.405c.498 1.012 1.013 2.014 1.522 3.019.805 1.595 1.613 3.184 2.416 4.776.747 1.482 1.488 2.967 2.234 4.45.12.239.254.472.38.708.021-.008.073-.016.073-.024V52.69h.348c2.111 0 4.224.016 6.334.016.093 0 .186-.003.276.013.965.164 1.815-.16 2.624-.623 1.197-.687 2.145-1.657 3.004-2.72a20.762 20.762 0 002.241-3.37c.728-1.383 1.436-2.781 2.068-4.21.6-1.353 1.09-2.752 1.62-4.136.167-.437.31-.882.486-1.392-.12.1-.182.147-.23.199zM10.843 41.42a38.24 38.24 0 00-1.163 2.24c-.274.567-.274 1.193-.27 1.811.002.541.037 1.084.072 1.625.014.191.068.377.105.565.062.302.111.607.193.904.08.288.194.568.29.852a.442.442 0 01-.002.29c-.294-.33-.598-.656-.882-.996-.833-.995-1.678-1.984-2.48-3.004-1.382-1.752-2.63-3.594-3.69-5.563-.618-1.145-1.137-2.337-1.503-3.59-.339-1.167-.502-2.36-.35-3.574a4.012 4.012 0 01.611-1.658c.533-.838 1.026-1.705 1.526-2.564.643-1.104 1.276-2.216 1.912-3.322l.2-.364C3.486 23.953 1.563 22.83-.36 21.708a.75.75 0 00.028-.076c.46.03.92.061 1.378.085 1.635.094 3.274.178 4.912.271 1.636.095 3.274.204 4.911.301 1.086.064 2.171.12 3.258.191.112.008.261.09.32.182 1.668 2.554 3.323 5.114 4.983 7.671.9 1.386 1.803 2.77 2.704 4.153.065.1.12.203.151.347-.264-.144-.529-.286-.789-.437-1.547-.899-3.094-1.8-4.636-2.704-.15-.089-.213-.083-.312.081-1.035 1.745-2.092 3.476-3.127 5.221a296.321 296.321 0 00-2.578 4.426zm3.952-14.303zm.074-.202v-.002a.366.366 0 010 .002zM12 29.271v.002m.503-.066l-.004.006m.038-.158c.005 0 .01-.004.013-.004-.004 0-.013.004-.013.004zm-.104.072l.011-.01m-.07.106l-.005.013m.018-.043l-.007.014m-5.414 3.727zm0 0l-.002.002h.002zm.774.015l-.007-.013.007.013zM7 32.87v.004M26.975 2.232c.697.366 1.315.817 1.7 1.534.242.45.51.883.765 1.323a4576.727 4576.727 0 015.344 9.315c.204.354.4.711.615 1.095-1.876 1.075-3.728 2.135-5.58 3.198a.572.572 0 01.024.07c.096 0 .193.004.289 0 1.647-.088 3.293-.18 4.942-.262 1.905-.095 3.81-.185 5.716-.277.494-.023.987-.04 1.48-.068.164-.01.33-.026.495-.04.139-.017.276-.044.416-.05.192-.007.386.008.578.002.186-.006.378-.006.555-.05.106-.028.21-.126.28-.216.07-.09.088-.223.15-.322.195-.313.399-.62.605-.925.039-.06.119-.089.156-.149.135-.214.436-.38.25-.637.14-.106.283-.175.37-.29.12-.157.182-.356.292-.52.229-.336.485-.654.71-.993.508-.758 1.003-1.525 1.506-2.287l3.422-5.189c.16-.245.315-.495.472-.74-.017-.016-.033-.029-.05-.043-1.937 1.11-3.872 2.222-5.815 3.331-.35-.609-.692-1.205-1.03-1.802-.871-1.549-1.728-3.107-2.618-4.646-.46-.796-1.261-1.18-2.066-1.508-1.55-.628-3.19-.859-4.84-.997-2.283-.187-4.57-.117-6.853.003a54.28 54.28 0 00-2.206.17c-1.007.097-2.013.21-3.02.324-.334.037-.666.101-1.074.166.105.04.136.057.168.067 1.329.351 2.63.775 3.852 1.413z"/><path fill="#f7f7f7" d="M51.607 15.887c-1.342.779-2.686 1.557-4.028 2.332-2.262 1.309-4.518 2.619-6.785 3.916-.197.114-.165.194-.074.338.254.414.502.829.75 1.245l2.897 4.902c.866 1.458 1.727 2.923 2.602 4.377.291.484.572.986.94 1.408.631.73 1.4 1.31 2.24 1.792.886.506 1.831.844 2.861.887 1.313.059 2.465-.386 3.51-1.15 1.748-1.275 2.701-2.968 2.731-5.324-.019-.182-.046-.532-.093-.877-.11-.776-.286-1.543-.663-2.23-1.019-1.842-2.072-3.67-3.116-5.501-1.145-2.005-2.293-4.008-3.432-6.017-.102-.178-.185-.19-.34-.098zm-19.724 25.06c-4 .045-8 .092-12 .123-.902.006-1.807-.014-2.66.338-.614.254-1.225.52-1.818.822-.29.15-.536.385-.794.59-.292.231-.621.434-.851.716-.354.43-.652.908-.945 1.386-.092.152-.05.39-.138.548-.285.513-.218 1.084-.307 1.628-.05.298.029.62.059.933.088.984.383 1.904.92 2.731 1.319 2.025 3.296 2.89 5.618 2.95 4.108.11 8.22-.022 12.33-.022h.88s.013-.065.013-.129c.005-4.137.005-8.229.018-12.367 0-.266-.102-.25-.325-.247zM8.813 16.983c1.618.941 3.237 1.88 4.856 2.818 1.984 1.152 3.967 2.297 5.948 3.451.175.102.266.084.362-.098.21-.394.435-.778.655-1.168.81-1.431 1.617-2.863 2.427-4.294.97-1.717 1.941-3.434 2.91-5.153.247-.435.56-.855.71-1.326.464-1.449.684-2.928.375-4.455-.306-1.52-1.094-2.688-2.389-3.525-.07-.045-.2-.072-.273-.04-.231.102-.383.012-.482-.179a.864.864 0 00-.57-.437 20.418 20.418 0 00-1.494-.361c-.916-.177-1.823-.075-2.694.224a7.125 7.125 0 00-3.587 2.722c-.51.734-.927 1.53-1.381 2.301-1.076 1.824-2.15 3.649-3.225 5.475-.133.23-.261.465-.39.695.192.049.335.088.477.125-.004.031-.005.064-.008.096-.245-.008-.436.042-.444.328-.001.031-.07.07-.113.084-.016.004-.06-.055-.075-.09-.024-.049-.032-.106-.058-.199l-1.675 2.879c.058.054.093.099.139.127zM39.93 37.707c.016-.01.004-.023.06-.033v-.34c-.056-.009-.051-.019-.07-.029-.042.055-.124.115-.117.162.016.084.082.16.128.24z"/></svg>