<svg xmlns="http://www.w3.org/2000/svg" width="50" height="61"><path fill="#f7f7f7" d="M49.87 22.811c.189 4.59.234 9.201-.014 13.785-.137 2.51-.905 5.004-1.548 7.464a40.333 40.333 0 01-1.906 5.618c-1.695 3.971-4.17 7.39-8.06 9.443-3.107 1.642-6.557 1.947-10.033 1.725-1.555-.1-2.324-.789-2.588-2.104-.244-1.205.31-2.325 1.547-2.966.428-.22.99-.387.66-.932-.156-.26-.805-.377-1.19-.315-1.355.225-2.35 1.551-2.331 2.965.003.337 0 .676 0 1.014l-.333.2c-1.042-1.155-2.137-2.27-3.104-3.487-.372-.467-.611-1.16-.632-1.763-.06-1.712.983-2.825 2.338-3.67.462-.289 1.029-.407 1.494-.692.303-.186.507-.533.756-.809-.365-.11-.77-.387-1.091-.31-1.934.458-3.44 1.468-4.09 3.476-.07.221-.281.51-.47.546-.173.034-.498-.184-.593-.375-.438-.868-.813-1.77-1.22-2.657-.856-1.864.098-3.313 1.35-4.395 1.016-.876 2.432-1.285 3.647-1.943.326-.176.57-.505.852-.76-.318-.129-.665-.413-.947-.357-2.026.388-3.721 1.343-4.92 3.076-.266.385-.55.756-.825 1.131l-.306-.095c-.346-1.379-.832-2.749-.975-4.149-.064-.629.47-1.389.885-1.982 1.318-1.89 3.299-2.763 5.447-3.306.448-.117 1.058-.08.88-.714-.061-.227-.794-.474-1.13-.383-1.998.545-3.887 1.316-5.232 3.023-.285.36-.662.651-.996.973-.201-.465-.512-.914-.584-1.399-.133-.905-.241-1.843-.153-2.748.129-1.339 1.244-2.07 2.135-2.899 1.443-1.339 3.326-1.724 5.125-2.29.233-.07.379-.41.565-.627-.274-.107-.545-.214-.82-.32-.024-.008-.061.017-.094.023-2.538.402-4.685 1.494-6.295 3.55-.104.13-.3.187-.457.283-.91-1.858-.337-4.813 1.228-6.235 1.867-1.697 4.026-2.73 6.607-2.8.702-.02.943.18.918.875-.041 1.18-.011 2.358-.011 3.538l.24.068c.1-.28.25-.556.293-.847.437-2.942.636-5.942 1.338-8.816 1.012-4.15 2.545-8.139 5.228-11.56 1.214-1.55 2.635-2.909 4.458-3.69 2.195-.943 4.33-.709 6.328.658 2.449 1.678 4.046 4.031 5.216 6.683.825 1.87 1.625 3.774 2.17 5.736.594 2.135 1.155 4.344 1.244 6.542zm-5.15 15.935c.386-2.92.792-5.837 1.104-8.14-.392-4.43-.546-8.217-1.671-11.903-.721-2.359-1.571-4.62-3.098-6.564-1-1.274-2.21-2.338-3.903-2.539-1.495-.18-2.73.498-3.818 1.44-2.386 2.063-3.685 4.798-4.702 7.708-1.097 3.14-1.845 6.334-1.812 9.682.002.202-.035.365-.097.503 0 .01.002.016.003.025.003.181-.021.357-.05.53.014.063.023.128.025.2.014.371-.041.727-.107 1.083.113.245.127.62.068 1.013.008.131.019.265.024.398.025.594-.03 1.186-.078 1.776.014.155.019.308.009.462.178.212.218.508.234.851.053 1.146-.036 2.336.243 3.43a86.284 86.284 0 002.164 7.076c.673 1.926 1.79 3.627 3.37 4.942 1.262 1.045 2.696 1.8 4.415 1.216 2.164-.734 3.54-2.376 4.61-4.284 1.554-2.778 2.648-5.727 3.067-8.905z"/><path fill="#f7f7f7" d="M24.001 1.444c-.287.31-.552.646-.865.925-2.537 2.27-4.386 5.028-5.744 8.124-.77 1.753-1.579 3.506-2.148 5.327-.597 1.925-1.014 3.916-1.353 5.905-.361 2.095-.662 4.217-.764 6.338a81.113 81.113 0 00.005 8.058c.113 2.217.431 4.432.807 6.624.265 1.535.658 3.075 1.212 4.527a53.456 53.456 0 002.638 5.855c1.434 2.719 3.539 4.889 6.016 6.702.093.068.158.179.353.409-1.254.374-2.285-.02-3.112-.611-3.251-2.324-5.689-5.364-7.221-9.05-1.046-2.516-2.157-5.065-2.729-7.71-1.095-5.068-1.762-10.22-1.098-15.437.293-2.305.514-4.63.972-6.904a33.606 33.606 0 011.626-5.518c.903-2.324 1.884-4.64 3.076-6.824 1.445-2.652 3.402-4.96 5.912-6.685.57-.393 1.471-.305 2.221-.438.064.129.131.256.196.383zM8.604 54.97c2.457.214 4.518 1.636 6.769 2.478.038-.082.075-.165.112-.25-.836-.491-1.631-1.082-2.518-1.448-2.066-.854-4.188-1.57-6.259-2.416-.43-.177-.796-.63-1.08-1.035a24.3 24.3 0 01-1.586-2.562c-.197-.371-.174-.858-.252-1.291.37.007.747-.033 1.106.027 3.684.617 6.579 2.738 9.22 5.152 1.424 1.302 2.478 3.012 3.667 4.563.15.195.228.605.123.795-.102.183-.504.33-.74.29-1.059-.183-2.143-.33-3.147-.687-1.865-.668-3.678-1.48-5.179-2.834-.17-.152-.285-.365-.426-.551l.19-.23z"/><path fill="#f7f7f7" d="M14.504 26.264c0-.525-.015-1.084.004-1.641.084-2.614 1.448-4.382 3.665-5.638 1.668-.946 3.422-1.551 5.328-1.75.863-.09 1.148.289.993 1.085-.211 1.085-.356 2.196-.701 3.239-.131.394-.726.88-1.131.9-3.082.157-5.553 1.49-7.613 3.706-.061.064-.16.095-.246.132-.026.012-.063-.004-.3-.033zm1.211-6.664c-.037-.068-.098-.127-.093-.182.216-2.248.657-4.41 2.813-5.67 1.397-.815 2.813-1.632 4.307-2.236.948-.383 2.047-.433 3.088-.517.559-.042.934.257.655.955-.461 1.146-.832 2.33-1.331 3.459-.13.296-.57.62-.89.646-2.928.229-5.49 1.3-7.731 3.18a3.756 3.756 0 01-.542.394c-.066.039-.186-.016-.276-.03zM30.666 4.822c-.394.653-.666 1.131-.963 1.591-.544.84-1.058 1.704-1.676 2.487-.32.404-.827.92-1.265.936-3.334.117-6.185 1.375-8.746 3.426-.092.074-.213.111-.58.042.268-.668.549-1.332.8-2.003 1.15-3.07 3.794-4.307 6.565-5.428 1.494-.606 2.985-1.137 4.62-1.107.32.007.64.03 1.245.056zM10.143 45.176c-.227-.144-.483-.258-.678-.437-1.787-1.662-3.795-2.95-6.151-3.653-.095-.027-.187-.064-.281-.087-.702-.178-1.904-.194-2.018-.555C.579 39.06.47 37.57.317 36.113c-.012-.123.592-.481.856-.433 3.428.605 6.279 2.258 8.12 5.225.716 1.15.817 2.685 1.198 4.044-.117.077-.232.15-.348.227zm2.652 6.616c-1.042-.752-2.053-1.551-3.133-2.245-1.587-1.02-3.237-1.91-5.154-2.196-1.646-.247-2.12-.778-2.518-2.483-.14-.598-.4-1.168-.55-1.764-.2-.791.066-1.176.954-1.057 1.91.256 3.61 1.04 5.202 2.069.758.49 1.443 1.093 2.15 1.66 1.889 1.51 2.412 3.76 3.264 5.83l-.215.186zm-4.561-19.22c-.863-.803-1.69-1.648-2.602-2.393-1.26-1.03-2.71-1.685-4.372-1.709-.747-.012-1.124-.298-1.039-1.06.124-1.1.261-2.205.406-3.305.123-.935.734-1.038 1.51-.873 2.07.44 3.81 1.404 5.2 3.044.918 1.084 1.348 2.243 1.2 3.67-.088.85-.016 1.716-.016 2.575l-.287.051z"/><path fill="#f7f7f7" d="M8.804 39.022c-.798-.738-1.564-1.516-2.401-2.202-1.551-1.28-3.405-1.898-5.348-2.23-.758-.13-.98-.517-.984-1.193C.067 32.48.045 31.56.024 30.64c-.02-.78.297-1.101 1.127-1.066 2.599.113 4.48 1.525 6.203 3.274.803.814 1.359 1.7 1.288 2.927-.032.537.227 1.086.315 1.638.078.495.102 1 .149 1.5-.1.036-.201.07-.302.108zm-.4-12.792c-.867-.928-1.553-1.742-2.323-2.467-1.167-1.1-2.709-1.38-4.204-1.687-.692-.142-.87-.358-.64-1.053.327-.984.567-2.002.774-3.02.123-.595.44-.828 1.004-.863 2.045-.127 3.613.721 4.95 2.23 1.266 1.431 1.393 3.016.964 4.751-.16.652-.325 1.305-.525 2.11z"/><path fill="#f7f7f7" d="M9.51 19.965c-.58-.8-.982-1.41-1.443-1.977-.972-1.19-2.202-1.963-3.78-1.946-1.204.012-1.37-.314-.998-1.47.305-.948.812-1.84 1.309-2.712.639-1.122 1.455-1.352 2.715-1.014 1.9.514 2.929 1.85 3.513 3.606.129.386.152.872.04 1.261-.376 1.336-.834 2.647-1.355 4.252zM6.201 9.182c1.344-1.395 2.634-2.902 4.105-4.206 1.177-1.039 3.225-.073 3.684 1.42.506 1.64-.123 2.94-.842 4.278-.35.657-.687 1.325-1.052 1.977-.1.178-.309.441-.432.424-.22-.035-.55-.214-.596-.393-.59-2.279-2.328-2.89-4.369-3.092a.731.731 0 01-.273-.102c-.049-.032-.076-.099-.225-.306zm15.147-2.356c1.365-2.682 3.489-4.54 6.238-5.476 2.846-.97 5.769-.674 8.676.294-.467.162-.971.262-1.394.5-1.688.948-3.403 1.5-5.415 1.605-2.462.13-4.76 1.222-6.904 2.5-.381.227-.8.386-1.201.577zm-1.313-5.238a9649.255 9649.255 0 01-4.868 5.13c-.05-.706.056-1.441-.19-2.025-.233-.556-.835-.957-1.358-1.515 1.864-1.213 4.145-1.268 6.416-1.59zm24.354 28.545c-.32 2.896-.445 5.83-1.01 8.678-.677 3.417-1.773 6.75-4.083 9.495-1.122 1.337-2.454 2.272-4.368 2.133-1.742-.124-2.728-1.287-3.73-2.443a8.085 8.085 0 01-1.22-1.869c-.271-.578-.362-1.16.252-1.772 1.448-1.44 2.13-3.315 2.57-5.273.232-1.017.405-2.046.61-3.07.766-3.795.528-7.597-.061-11.374-.401-2.575-1.091-5.082-2.634-7.283-.281-.4-.41-1.199-.201-1.6.81-1.556 1.85-2.953 3.389-3.919 1.73-1.088 4.017-.654 5.433.847 1.432 1.522 2.319 3.321 3.042 5.27 1.466 3.937 1.857 8.008 2.01 12.18z"/></svg>