<svg xmlns="http://www.w3.org/2000/svg" viewBox="0 0 42.57 42.49"><defs><style>.cls-1{fill:#f7f7f7;fill-rule:evenodd}</style></defs><g id="Слой_2" data-name="Слой 2"><g id="сайт"><path class="cls-1" d="M42.23 26.06a10.51 10.51 0 01-2.07 1.81 3.3 3.3 0 01-1.75.68c-3.12 0-6.24.13-9.36.13h-.24v-1.17a.58.58 0 00-.14-.46.25.25 0 010-.4.3.3 0 00.1-.19v-2.69l-2.23 4.4c.17 0 .31 0 .33.09s-.11.23-.15.31H27c-.05 0-.15.14-.18.12a2.63 2.63 0 01-.39-.29c-.18.17.16.28.14.49l-.22-.26c-.24.14 0 .28 0 .44l-.2-.17c0 .13 0 .22-.05.3a1 1 0 00-.14.15c-.18.33-.35.67-.52 1-.45.88-.9 1.76-1.34 2.64a.37.37 0 000 .29l1.09 2.16 1.72 3.41c.54 1.06 1.07 2.12 1.6 3.18.09.17-.05.33 0 .5h-.18v-4.8h5.43a2.83 2.83 0 001.88-.45 7.8 7.8 0 002.14-1.95 14.74 14.74 0 001.6-2.4c.52-1 1-2 1.48-3s.78-2 1.16-3c.12-.31.22-.63.34-1a1.4 1.4 0 00-.13.13zM8 29.6c.6-1.06 1.22-2.11 1.84-3.16.74-1.25 1.5-2.48 2.24-3.73.07-.12.11-.12.22-.06l3.31 1.93.56.32a.58.58 0 00-.11-.25c-.64-1-1.28-2-1.93-3l-3.55-5.45a.41.41 0 00-.23-.13L8 15.94l-3.51-.22L1 15.53l-1-.06 4.12 2.41-.12.31-1.38 2.37c-.36.61-.72 1.23-1.1 1.83a2.86 2.86 0 00-.43 1.18 6.28 6.28 0 00.25 2.55 13.16 13.16 0 001.07 2.57 27.87 27.87 0 002.63 4c.58.73 1.18 1.44 1.78 2.15.2.24.42.47.63.71a.37.37 0 000-.21c-.07-.2-.15-.4-.21-.61s-.09-.43-.14-.64-.1-.3-.1-.44v-1.16a2.69 2.69 0 01.19-1.29c.24-.54.52-1.08.81-1.6zm2.9-10zm0-.05zm0 0zm.07.07s-.03-.03.03-.02zm-.07-.36a.19.19 0 000 .21.19.19 0 01-.02-.23zm0 .26zm0 0l-.05-.04zM9.5 20.9zm-.05 0s.01.04 0 .04zm0 0zm0 0l.04.1zm-.17-.24c0 .06.08.1.1.14s-.02.02-.06-.04zm.11.14s.04.11.04.1zm-.11-.14a.26.26 0 01.11.07.26.26 0 00-.11-.07zm0 0zm-.93.17zm.81 0zm0 0zm0 0zm0 0zm0 0zm.3.12s.07.05.07-.01zm0 0s.09.05.08.05zm0-.08zm0 0zm-.21-.18zm-.11.12zm0 0zm0 0zm0 0zm0 0zm-.09 0zm-.05.11zm0 0zm0 0zm0 0zm0 0zm.24.12zm-1 0zm-3.13 2.6zm.23-.07h-.07c-.07 0 .17-.12.19-.1zm-.35.16l.01-.04zm.71 0zm0 0zm0 0zm0 0zm-.41 0zm.47.1zm0 0zm0 0a.25.25 0 00.19 0 .25.25 0 01-.06-.18zm0 0zm.21 0l.09-.05-.09.05zM19.52 1.61a2.76 2.76 0 011.22 1.1c.17.32.36.63.54.94l2 3.43 1.85 3.23.44.78-4 2.28v.05h.21l3.52-.18 4.09-.2h2.12a2.45 2.45 0 00.39 0 .51.51 0 00.21-.15 2.29 2.29 0 00.1-.23c.14-.23.29-.45.43-.66 0 0 .09-.07.12-.11s.31-.27.17-.46a1.18 1.18 0 00.27-.2c.08-.12.13-.26.21-.38s.34-.46.5-.7c.37-.55.72-1.09 1.08-1.64l2.44-3.7.34-.53-4.19 2.2-.73-1.29C32.22 4.08 31.61 3 31 1.87A2.78 2.78 0 0029.5.79 12 12 0 0026 .08a38 38 0 00-4.89 0c-.53 0-1 .08-1.57.13-.72.06-1.44.15-2.16.23-.24 0-.48.07-.77.12h.12a13.93 13.93 0 012.79 1.05z"/><path class="cls-1" d="M37.11 11.36L34.24 13l-4.85 2.8c-.14.08-.12.13-.05.24.18.29.36.59.53.89l2.07 3.5c.62 1 1.24 2.09 1.86 3.12a7.08 7.08 0 00.67 1 6 6 0 001.6 1.28 4.51 4.51 0 002 .63 3.78 3.78 0 002.5-.82 4.48 4.48 0 002-3.8c0-.13 0-.38-.06-.63a4.65 4.65 0 00-.51-1.55c-.72-1.31-1.48-2.62-2.22-3.93s-1.64-2.86-2.45-4.29c-.05-.13-.11-.14-.22-.08zM23 29.26l-8.57.09a5.07 5.07 0 00-1.9.24c-.44.18-.88.37-1.3.59a3.22 3.22 0 00-.57.42 3.75 3.75 0 00-.61.51 9.55 9.55 0 00-.67 1c-.07.11 0 .28-.1.39a3.37 3.37 0 00-.22 1.17 3 3 0 000 .66 4.36 4.36 0 00.66 2 4.79 4.79 0 004 2.27c2.94.08 5.87.14 8.81.14h.63v-9.16c.1-.25.03-.32-.16-.32zM6.55 12.15l3.47 2 4.25 2.46c.12.08.19.07.26-.07s.31-.55.46-.83l1.74-3.07L18.8 9a4.79 4.79 0 00.51-1 6.25 6.25 0 00.27-3.18 3.77 3.77 0 00-1.7-2.52.21.21 0 00-.2 0 .24.24 0 01-.35-.13.6.6 0 00-.4-.31c-.36-.1-.71-.19-1.07-.26a3.8 3.8 0 00-1.92.16 5 5 0 00-2.56 2c-.37.52-.67 1.09-1 1.64q-1.16 2-2.3 3.91c-.1.16-.19.33-.28.5l.34.08v.07c-.17 0-.31 0-.32.24 0 0-.05 0-.08.06s0 0 0-.07a.62.62 0 010-.14l-1.2 2.06zM28.77 27h.05v-.25h-.05c-.05 0-.09.08-.09.12a.7.7 0 00.09.13z"/></g></g></svg>