<svg xmlns="http://www.w3.org/2000/svg" width="71" height="65"><path fill="#f7f7f7" d="M45.048 10.447l.637-.303 1.358.983c-.13.43-.278.906-.454 1.486h1.188l-.24.747c.54-.283.892-.47 1.244-.653l-.084-.242a38.176 38.176 0 00-.662-.116l-.155-.63c.677-.282 1.273-.554 1.89-.766.212-.076.477.008.715-.01.22-.017.44-.05.65-.112.195-.058.37-.199.564-.243.734-.158 1.473-.308 1.725.723.017.066.207.093.361.16.045-.068.093-.125.126-.189.111-.222.21-.446.34-.65.01-.019.333.085.346.16.05.307.157.815.021.904-.397.257-.386.546-.378.927.004.12-.176.244-.193.25l.276 1.355c.422-.265.89-.444 1.194-.773.468-.506.932-.266 1.207.033.39.425.043.797-.372 1.052-.034.023-.042.087-.069.147.025.055.041.133.087.182.75.79.734 1.066-.25 1.561-.47.235-.61.515-.603 1.004.01.453.192.626.617.605.437-.02.872-.045 1.327-.068-.235.821-.005 1.41.733 1.765.461.225.456-.159.468-.463.015-.447-.154-1.004.53-1.093.224-.03.555.045.675.197.092.116-.067.438-.137.66-.026.084-.142.137-.172.221-.104.297-.137.63-.296.886-.144.235-.418.39-.76.687.375.093.711.276.835.183.194-.149.35-.49.335-.74-.033-.542.083-.93.562-1.249.122-.08.12-.53.018-.733-.196-.386-.414-.712-.056-1.118.415-.47.81-.218 1.222-.013.393.192.63.39.382.906-.063.134.315.48.522.773-.088.227-.21.55-.265.693-.358.322-.6.56-.863.774-.197.164-.414.3-.628.442-.184.124-.376.235-.563.354.206.217.397.597.618.616.472.04.738.201.642.65-.05.248-.328.447-.504.668l-.183-.092c.046.104.066.271.146.304.61.287.422.74.097.993-.609.48-.378.835.177 1.454.066-.425.096-.677.148-.923.172-.82.11-1.856.595-2.398.49-.546.708-.996.717-1.659 0-.124.134-.253.224-.367.348-.44.7-.878 1.145-1.434.073.084.23.241.374.411.238.286.431.806.84-.03l.297 1.087-1.063-.127c.254.621.423 1.133.67 1.604.276.531.196.51-.352.801-.44.231-.857.73-1.027 1.202-.326.9-.72 1.557-1.848 1.373-.017.41-.01.748-.055 1.08-.048.362.026.783-.595.827-.184.011-.353.52-.483.818-.03.068.16.324.204.315.261-.068.534-.152.763-.293.29-.18.543-.42.813-.634l.41.792c.043.086.082.175.15.32-.41.396-.835.78-1.214 1.204-.087.1-.056.368.006.524.115.282.29.534.46.83.762-.077.906-.722 1.116-1.3.512-.22 1.113.611 1.521-.099.095-.165-.207-.555-.338-.87.651-.725.88-.738 1.676-.088.142.114.325.178.495.251.436.186.903.322.503.978-.12.2-.052.526-.034.796.022.366.077.728.124 1.138.682.217.961.067 1.32-.577.236-.428.592-.795.94-1.145.09-.09.36-.058.521-.007.251.078.51.188.71.35.185.15.435.405.415.59-.033.293-.197.713-.426.815-.709.316-1.514.456-1.703 1.397-.008.043-.048.11-.084.115-1.005.21-.747 1.131-1.034 1.76-.479 1.04-1.09 2.016-1.602 3.04-.193.382-.19.917-.825.808-.425-.076-.868-.14-1.262-.307-.563-.238-.706-.18-.703.422.001.168.026.36-.04.5-.335.691-.346.685.333 1.568.085-.66.153-1.189.197-1.514.385.255.81.435 1.09.743.243.271.378.676.461 1.045.202.883.7 1.076 1.53.764.345-.132.911.05 1.25.281.237.16.273.64.365.983.015.056-.154.236-.228.227-.612-.056-.838.331-1.083.8-.205.392-.895.39-.959.016-.148-.883-.957-.663-1.479-1.04.234.805-.904 1.325-.313 2.215.117.176-.212.664-.357.996-.195.45-.609.907-.009 1.17l-1.078 1.33-.226-.67c-.503.137-1.003.276-1.545.424-.684-.532-.95-.515-1.6.181-.383.416-.783.828-1.094 1.295-.117.178-.105.606.031.746.173.185.535.276.804.258.151-.009.43-.443.403-.476-.37-.44.08-.709.182-1.039.18-.567.402-.9 1.1-.486.224.134.716-.175 1.23-.323-.144.266-.249.5-.389.711-.247.365-.6.684-.76 1.082-.283.7-.687 1.102-1.466 1.262-.36.073-.695.527-.924.881-.156.247.76.75 1.22.692.436-.052.88-.109 1.313-.069.987.09 1.374.5 1.565 1.501.06.313.184.61.268.915.154.562.025 1.072-.497 1.331-.585.29-1.223.842-1.89.356-.57-.413-.645-1.07-.278-1.665-.434-.395-.784-.856-1.249-1.1-.609-.32-.729-.879-.93-1.409-.065-.169.043-.4.056-.603.031-.447.094-.9.041-1.34-.012-.113-.404-.18-.62-.27l-.11.16c.14.292.281.583.455.941-.64.126-.59.407-.393.93.241.637.374 1.377.327 2.056-.064.891-1.67 1.625-2.48 1.222-.077-.037-.116-.145-.185-.203-.22-.192-.448-.375-.672-.562l-.13.124-.143-.918c-.236.823-.513 1.274-1.278 1.166-.146-.019-.353.401-.622.728h-.603c-.109.487-.214.954-.319 1.415.04.028.077.057.115.082.187-.17.38-.33.558-.508.36-.356.69-.889 1.242-.053-.245-.742.136-1.115.643-1.284.276-.094.646.094.972.156.017.093.032.187.047.281-.33.22-.662.437-1.032.681.454.41.365.834-.193 1.187-.587-.99-.838-.977-1.525.015-.159.23-.444.37-.717.586-.115-.385-.16-.637-.265-.86-.096-.2-.257-.37-.399-.564-.423.151.116 1.406-.93.795-.11.768-.577 1.123-1.319 1.158-.31.013-.61.22-1.053.39-.015-.143-.052-.359-.057-.576-.006-.213.022-.433.034-.65-.162.14-.328.282-.49.424-.07.064-.133.138-.245.256-.183-.167-.35-.323-.518-.48-.43.38-.48.79-.378 1.37.196 1.104.684 2.225.06 3.408-.473-.003-.956.03-.83-.757.095-.616-.32-.64-.754-.659l.725 1.661c-.439.026-.72.06-.999.056-.698-.006-.83-.242-.63-.93.096-.335.062-.704.12-1.052.038-.248.068-.535.208-.727.68-.928.674-1.177-.114-2.033-.136-.15-.2-.372-.444-.559l-.036.623-.038.532.7.406c-.628.071-1.04.22-1.393.126-.365-.093-.669-.419-1.043-.673-.165.527.068.746.508.938.261.112.533.365.64.621.175.41-.404.382-.45.494-.323.777-.969.424-1.577.494l.193.89c-.51-.066-.998-.124-1.484-.185-.397-.139-.382 1-1.07.236-.048.165-.083.295-.127.422-.075.213-.156.425-.235.635-.233-.104-.529-.146-.686-.316-.275-.3-.44-.702-.704-1.016-.15-.175-.409-.258-.619-.385l-.13.194c.098.123.25.232.286.371.074.291.211.672.09.881-.159.276-.528.45-.837.608-.072.04-.26-.145-.398-.228.078-.112.132-.257.237-.326.112-.074.27-.076.514-.135l-.624-1.132-.196.076c-.064.2-.129.403-.194.601a13.777 13.777 0 01-.126-.164c-.417.287-.823.588-1.26.84-.204.12-.64.24-.673.186-.207-.354-1.067-.289-.647-1.078.263-.493.31-1.099.503-1.842-.312.181-.419.283-.539.305-.432.076-.875.301-1.148-.346-.533-1.268-.574-1.258-1.613-.353-.16.14-.296.31-.524.552.203.11.417.166.538.306.23.255.426.548.577.854.028.06-.244.38-.328.36-.293-.067-.636-.16-.826-.37-.469-.509-1.16-.474-1.672.161-.152.187-.27.414-.45.562-.178.146-.417.212-.628.314-.082-.184-.18-.36-.24-.55-.12-.373-.26-.585-.738-.44-.71.217-1.333-.222-1.386-.944.85-.196 1.807-.28 1.974-1.56-.11.018-.456.022-.468.082-.156.934-.91.79-1.507.925a25.39 25.39 0 01-.207-.167c.214-.297.425-.594.64-.888.112-.16.23-.322.346-.483l-.594-.162c-.07-.015-.144-.02-.309-.047.634-.416.65-.955.236-1.41-.35-.385-.85-.633-1.37-1.006-.086.044-.298.147-.538.262-.106-.297-.182-.578-.302-.84-.35-.762-.814-.98-1.642-.77-.713.18-1.429.491-2.059-.267-.16.215-.234.381-.362.465-.169.11-.378.177-.577.211-.059.01-.148-.155-.224-.24.134-.118.296-.215.396-.358.138-.197.23-.428.34-.646-.1-.06-.198-.122-.299-.182l-.792 1.06c-.07-.283-.105-.479-.168-.66-.057-.172-.145-.332-.219-.498-.153.092-.308.176-.456.28-.145.095-.278.212-.42.322l-.162-1.233-.276-.013-.872 1.573a56.356 56.356 0 00-.479-.097c-.008.097-.043.18-.017.225.447.788.738 1.618.668 2.535-.023.303.726.693.054.811-.296.052-.743-.629-1.084-1.012-.089-.1-.038-.329-.182-.399-.479-.614-.956-1.23-1.527-1.97.528-.032.956.06 1.2-.108.256-.176.333-.607.523-.993-.159.034-.276.074-.398.087-.115.016-.234.003-.439.003.237-.74.132-1.616 1.158-1.718.004-.68-.205-1.132-.793-1.318a.608.608 0 00-.448.05c-.889.556-.987.55-1.73-.253.108-.14.235-.283.333-.442.085-.135.138-.292.116-.558-.692.394-1.385.79-2.073 1.18-.702-.612.14-.954.191-1.483l-.756-.375c-.068-.587-.213-1.145.695-1.313.39-.072.706-.549 1.052-.847.327-.28.65-.525 1.121-.28.076.038.371-.143.364-.188-.033-.203-.099-.427-.23-.573-.16-.179-.387-.38-.6-.4-.209-.02-.485.124-.647.283-.364.355-.65.79-1.027 1.127-.087.076-.435-.058-.613-.17A29.017 29.017 0 016.604 46.7c-.192-.144-.34-.359-.488-.555-.302-.4-.59-.81-.885-1.213a5.982 5.982 0 00-.189.106l-.036.76c-.557-.554-.423-1.035-.213-1.58-1.219-.459-.199-1.144-.105-1.704.18-1.048.801-1.785 1.943-1.948.092-.012.16-.178.204-.23-.613-.245-1.182-.472-1.963-.782l1.911-2.159c-.646.103-1.08.174-1.653.268-.027-.477-.053-.943-.086-1.5.252.074.46.068.548.17.411.47.954.076 1.4.254.071-.228.244-.485.188-.679-.083-.297-.297-.573-.507-.81-.189-.216-.429-.447-.687-.513-.107-.027-.395.336-.468.563-.21.654-.284.728-.907.543.065-.106.122-.204.182-.297.051-.079.107-.155.094-.437-.249.071-.636.075-.714.234-.11.223.005.56.022.85l.225.11c-.31.19-.622.381-.82.504-.094.51-.09 1.008-.284 1.411-.246.508-.653.478-.895-.022-.189-.389-.396-.566-.877-.6-.536-.032-1.076-.217-.95-1.045.058-.388-.208-.83-.33-1.257.666-.39 1.345-.788 2.051-1.199-.13-.243-.313-.57-.48-.907-.495-.995.117-1.9 1.261-1.97.592-.035 1.176-.218 1.762-.337a6.51 6.51 0 00.013-.197c.165.154.331.31.5.466l.426-.807c.32.432.555.766.82 1.08.02.02.233-.118.544-.279l-.79-.17c.002-.077.007-.15.01-.227.173.013.348.043.52.036.24-.015.5-.01.701-.113.064-.033.012-.387-.056-.572-.109-.283-.276-.548-.453-.884-.96.47-1.853.601-2.116-.758.51-.219 1.104-.406 1.624-.722.331-.197.496-.726.832-.853.765-.288.668-.75.422-1.293 1.137-.927 1.08-1.273-.308-2.192l.248-.99c-.349.074-.606.212-.754.137-.16-.08-.35-.443-.29-.54.198-.334.461-.665.776-.885.275-.19.658-.227 1.137-.375-.132-.217-.276-.515-.477-.772-.898-1.155-.665-2.107.676-2.664v-1.089c.527.432.978.715 1.305 1.098.321.382.515.871.735 1.257 1.19-.39 2.125-.91 2.691-1.987-.082-.06-.154-.148-.197-.136-1.003.273-1.456-.466-1.939-1.086-.123-.16-.153-.494-.07-.677.083-.179.357-.356.562-.375 1.054-.104 1.068-.102.724-1.167.145-.107.304-.227.51-.378-.323-.19-.588-.349-.839-.496l.85-1.298c-.02.623-.316 1.215.435 1.301.393.042 1.072-.728 1.076-1.208.527.081 1.007.075 1.24-.56.031-.088.516-.125.683-.017.26.164.425.474.63.721-.196.097-.39.201-.59.29-.096.041-.203.057-.226.066.622.453 1.244.91 1.868 1.365a9.284 9.284 0 00-.022.175h-1.128c.4.435.693.752 1.018 1.108.526-.42 1.318-.567.705-1.508-.262-.404.027-.717.553-.756.75-.057 1.498-.15 2.24-.267.134-.02.237-.233.354-.358-.16-.062-.35-.216-.483-.178-.555.163-1 .098-1.513-.244-.447-.299-.474-.674-.334-.986.245-.55.643-1.036.974-1.547.151-.235.293-.473.411-.666.471.144.998.302 1.708.517.137.268 1.37.485 1.737.076.082-.089.156-.313.112-.36-.098-.108-.309-.237-.414-.196-1.11.428-1.436-.607-1.969-1.123-.388-.377.117-1.204.703-1.303.368-.06.734-.135 1.302-.242.227.713.49 1.531.764 2.393l.714-.455c.391.876.19 2.177-.466 2.723-.296.247-.397.393-.086.683.304.283.587.501 1.04.05-.267-.119-.454-.203-.8-.355.32-.179.538-.264.703-.412.113-.096.238-.313.202-.428-.428-1.363.786-1.613 1.477-2.218l.202-.182-.663-.556c-.088.16-.127.298-.22.382-.162.15-.44.41-.522.363-.203-.115-.436-.373-.444-.58-.008-.2.214-.529.406-.592.665-.215 1.323-.179 1.856.375.062.063.15.1.403.266-.07-.449-.049-.77-.17-1.016-.389-.785-.22-1.439.542-1.92.218-.138.41-.319.624-.488-1.05-.867-1.027-1.549.03-2.363.407-.312 1.296-.137 1.94.383.81.654.787 1.246-.038 1.878-.505.387-.98.817-1.357 1.135l.262 1.228c.197-.136.36-.303.554-.363.202-.062.435-.022.654-.027-.103.157-.193.325-.313.465-.145.17-.294.352-.476.475-.52.35-1.039.776-1.754.16-.307.656-.562 1.217-.832 1.77-.05.096-.168.237-.246.232-.782-.042-.542.475-.556.95.287-.017.526-.029.756-.045.156-.86 1.034-1.666 1.884-1.866.537-.129 1.042-.395 1.557-.612.296-.125.584-.272.876-.408.03.052.061.108.092.158.156-.274.315-.546.485-.845l.77.834.181-.177c-.058-.095-.125-.187-.17-.288-.08-.18-.149-.365-.22-.549.19-.072.4-.227.57-.193.188.04.488.25.488.386 0 .642.542.71.914.834.168.058.471-.33.734-.49.265-.162.555-.286.833-.424.051.306.147.61.143.912-.005.285-.18.57-.17.848.032.832-.694 1.041-1.158 1.456-.06.054-.373-.038-.42-.133-.267-.55-.544-.237-.8-.024-.339.277-.328.54.045 1.015l.174-.746 1.216 1.002c.266-.41.523-.763.731-1.146.438-.809 1.115-1.017 1.971-.867.504.088.866.073.928-.647.038-.439.428-.87 1.052-.783.343.05.69.044 1.24.076-.287.175-.442.22-.489.315-.059.12-.08.311-.024.416.037.066.37.06.372.046.2-.972.915-1.095 1.894-.977-.22.236-.41.436-.682.724.384-.043.75-.082 1.042-.113.667.488 1.338.941 1.961 1.452.192.157.325.465.348.717.015.163-.183.403-.35.51-.484.32-1.005.436-1.515.025-.067-.743.195-1.554-.41-2.22-.623.822-.485 1.586.374 2.252l.13 1.144zm21.912 24.11c-.13-.104-.326-.312-.294-.403.298-.853-.125-1.566-.374-2.323-.204-.62-.672-.62-1.11-.445-.894.352-.882.385-1.185-.45-1.005-.027-1.14.085-1.107.67.632.493 1.12.878 1.646 1.29-.054-.272-.093-.476-.135-.683.31.047.482.164.618.315.28.316.562.636.803.982.141.203.205.461.304.693-.209.077-.414.157-.624.231-.129.046-.258.084-.387.126.056.141.093.295.174.42.181.29.386.567.628.912.041-1.042.945-.763 1.713-1.056-.353-.143-.539-.177-.67-.279zm-6.796 10.475a.797.797 0 00-.06.421c.175 1.065.026 1.362-.983 1.8l.728.505c.141-.226.276-.375.331-.55.187-.588.396-1.08 1.162-.638.09.053.288-.117.444-.14.248-.034.505-.055.753-.03.16.015.314.121.524.212v-1.64c-.526.47-.833 1.14-1.669.69.221-.102.443-.204.74-.337-.508-.6-.892-1.052-1.292-1.52l.706-.419c-.275-.349-1.015-.102-2.006.696.815.038.853.42.622.95zM23.76 11.42c.005.036.08.055.107.09.195.246.547.502.533.736-.017.283-.347.546-.535.813.782.085 1.614.177 2.461.271-.016-1.076-.014-1.066-.903-.95-.415.053-.756.053-.536-.589.098-.279-.06-.674-.174-.99-.138-.386-.35-.74-.575-1.196h-.464l-.053-.74c-.24.052-.327.174-.405.3-.186.311-.298.74-.572.912-.529.332-.31.651-.169 1.105.602-.387 1.112-.727 1.285.238zm-8.893 10.244l1.123.078-1.364-2.369c-.108.428-.176.783-.295 1.123-.069.2-.185.49-.338.533-.577.163-.468.393-.14.698.205.195.412.386.672.626l.342-.689zM32.58 9.88c-.363-.496-.754-.266-1.156-.024.625.39 1.574.094 1.807.981.385-.06.717-.073 1.024-.169.222-.068.556-.222.581-.38.054-.348.056-.808-.439-.772-.116.262-.15.538-.292.614-.209.11-.494.078-.799.113l.307-.775-1.033.412zm-1.597-2.158c.373.344.708.763 1.147.98.121.06.542-.493.826-.762-.35-.318-.7-.638-1.1-1.004-.32.29-.597.538-.873.786zM6.127 33.297c.556-.53 1.147-.737 1.762-.153.177-.29.305-.468.395-.664.081-.175.12-.368.178-.554-.208.047-.45.045-.614.156-.302.21-.567.527-.963.23-.36-.275-.73-.272-.96.074-.129.192-.024.542-.024.821l.226.09zm23.29-22.408c.205.07.408.183.618.197.388.027.784.026 1.168-.03.201-.028.381-.196.57-.302-.188-.186-.345-.449-.572-.537-.47-.188-.978-.28-1.456-.406.044.104.144.356.234.58-.228.2-.396.35-.563.498zM9.202 35.375c.487-.333.973-.667 1.321-.902.322.28.518.472.74.625.058.04.297-.065.295-.088-.03-.354-.088-.705-.14-1.076-.2.094-.347.162-.373.173-.325-.265-.582-.474-.725-.593l-1.116 1.694c0 .056 0 .112-.002.167zm28.551-24.55c.441-.143.781-.235 1.1-.37.155-.066.275-.219.411-.334-.11-.117-.204-.272-.339-.348-.589-.32-1.064-.057-1.516.343l.344.71zm.68 46.851l-1.672-.976c-.167.273-.336.542-.572.93.814.093 1.481.17 2.148.245.031-.066.062-.133.095-.199zm20.76-11.46l-.818-.644-.616 1.244c.991.327 1.003.323 1.433-.6zm-50.78-2.26c-.14-.224-.459-.336-.717-.512-.163.252-.268.41-.34.523l.676 1.047c.54-.188.68-.58.381-1.059zM50.215 54.07c.054-.148-.218-.59-.387-.617-.74-.12-.736.561-1.06 1.083.605-.075 1.201.2 1.447-.466zm5.156-3.614c-.178.116-.32.284-.479.431.17.134.323.341.515.39.178.043.518-.02.578-.14.18-.364.257-.776.382-1.198-.487.25-.755.362-.996.517zm6.467-16.022c-.055-.03-.263.248-.402.382.333.291.663.584 1.011.856.01.006.207-.23.474-.529-.43-.293-.74-.538-1.083-.709zm.095 9.52c.447-.142.905-.254 1.336-.433.13-.05.184-.28.274-.43-.187-.092-.442-.307-.546-.249-.428.236-.81.557-1.209.847l.145.264zM55.71 53.09c.191.447.38.896.616 1.45.274-.249.55-.5.83-.75-.494-.319-.89-.574-1.285-.834l-.16.134zm.23-23.93l.635-1.393c-1.308.637-1.308.637-.636 1.392zM8.731 43.372c.85-.84-.522-.766-.435-1.326-.737.49-.737.49.435 1.326zm5.985-29.879c.481.195.901.363 1.321.534l.175-.34-1.348-.835-.148.641zm23.576 47.881c.05-.064.1-.127.148-.192-.196-.143-.405-.414-.587-.396-.315.033-.614.241-.92.375l.09.213zm25.174-27.46c.474.078.947.153 1.42.231.037-.063.076-.125.114-.188-.104-.15-.204-.425-.313-.429-.41-.019-.824.053-1.235.092.003.098.01.195.014.294zM45.99 59.91c-.344-.496-.58-.838-.875-1.259-.574.736-.448.927.875 1.26zM59.508 44.6l-.678.738c.217.2.408.37.745.68.047-.565.083-.969.118-1.372a3.851 3.851 0 01-.185-.047zM41.975 56.923c-.162-.29-.259-.71-.505-.834-.199-.1-.577.158-.876.256.278.232.505.25.702.334.186.078.344.226.514.345.056-.035.111-.069.165-.1zM12.54 50.322l-1.393.561c.984.482 1.306.366 1.393-.56zm-.743-1.392c.29.173.577.347.878.498.016.007.145-.212.221-.325-.288-.183-.575-.365-.863-.544l-.236.371zm-.223-29.388l-1.155.79c1 .191 1.386-.074 1.155-.79zM53.09 54.197c.065.264.127.53.193.793.17-.055.337-.107.506-.16l-.346-.752c-.117.04-.234.081-.353.12z"/></svg>