<svg xmlns="http://www.w3.org/2000/svg" viewBox="0 0 263.3 145.5"><defs><clipPath id="clip-path"><path d="M172.61 60A55.72 55.72 0 11116.9 4.24 55.71 55.71 0 01172.61 60z" fill="none"/></clipPath><style>.cls-3{fill:#f7f7f7;fill-rule:evenodd}</style></defs><g id="Слой_2" data-name="Слой 2"><g clip-path="url(#clip-path)" id="сайт"><path class="cls-3" d="M249.83 0c-1.26 1.32-2.5 2.66-3.79 4q-14.4 14.4-28.79 28.82a2.05 2.05 0 00-.5 1.34c0 3.93 0 7.86-.05 11.79a2.37 2.37 0 01-.61 1.49q-19.65 19.74-39.37 39.41a1.17 1.17 0 00-.37 1.46 3.07 3.07 0 01-1.42 3.61 3.36 3.36 0 01-3.74-.46 3.49 3.49 0 01-.62-3.72 3 3 0 013.55-1.56 1.41 1.41 0 001.71-.47q19.46-19.51 38.92-39a1.92 1.92 0 00.51-1.22v-12a1.9 1.9 0 01.47-1.23Q228.9 19 242.07 5.83c1.76-1.77 3.55-3.51 5.31-5.28a2.54 2.54 0 00.34-.55zM175 89.17a1.62 1.62 0 00-1.59-1.67 1.66 1.66 0 00-1.68 1.6 1.64 1.64 0 001.61 1.67 1.6 1.6 0 001.66-1.6zM0 124.53c1.16-1.1 2.35-2.18 3.48-3.3 3.82-3.78 7.62-7.59 11.45-11.36a1.78 1.78 0 011.14-.48q3.93-.06 7.86 0a2.09 2.09 0 001.68-.64Q34.27 100 43 91.36a.9.9 0 00.27-1.13 3.28 3.28 0 011.27-3.87 3.22 3.22 0 014 .63 3.29 3.29 0 01.35 3.67 3.11 3.11 0 01-3.55 1.39 1.27 1.27 0 00-1.39.47L26.45 110a2.54 2.54 0 01-2 .83h-7.48a2.54 2.54 0 00-1.56.64c-5 4.94-9.95 9.91-14.92 14.87a2.14 2.14 0 01-.47.27zm46.18-37.08A1.56 1.56 0 0044.52 89a1.63 1.63 0 103.26 0 1.54 1.54 0 00-1.6-1.55zM227.38 0c0 2.24-.06 4.48 0 6.71a3 3 0 01-1 2.43q-8.58 8.5-17.1 17.07c-.27.27-.52.56-.8.81-1 .85-1.67 1.66-1.33 3.18a2.84 2.84 0 01-2 3.12 3.49 3.49 0 01-3.63-1.11 3.12 3.12 0 010-3.75 3.07 3.07 0 013.59-1.05.78.78 0 001-.25q6.26-6.27 12.54-12.49 3.35-3.3 6.69-6.67a1.7 1.7 0 00.55-.95V-.04zm-23.26 28.73a1.56 1.56 0 00-1.65 1.58 1.59 1.59 0 001.61 1.69 1.62 1.62 0 100-3.23zM99.2 0c-1.45 1.49-2.87 3-4.37 4.46-.21.21-.72.15-1.1.15h-27a1.38 1.38 0 00-1.47.84 3.07 3.07 0 01-3.7 1.44 3.39 3.39 0 01-2.16-3 3.29 3.29 0 012.35-3 3.06 3.06 0 013.5 1.47 1.4 1.4 0 001.48.84h26.38a2 2 0 001.68-.7c.7-.87 1.51-1.67 2.3-2.5zM62.5 2.29a1.46 1.46 0 00-1.58 1.6 1.52 1.52 0 001.58 1.63 1.65 1.65 0 001.67-1.67 1.62 1.62 0 00-1.67-1.56z"/><path class="cls-3" d="M219.89 0a11 11 0 011.2.74 3.13 3.13 0 01.85 3.8 3.21 3.21 0 01-3.87 1.61 1.38 1.38 0 00-1.14.27q-5.84 5.76-11.59 11.58a1.28 1.28 0 00-.21 1 3.15 3.15 0 01-5.22 3.28 3.47 3.47 0 01-.5-3.74 3 3 0 013.67-1.44c.69.25 1 0 1.47-.47q5.91-6 11.84-11.88c-.85-2.13-.39-3.32 1.61-4.53.07 0 .1-.15.15-.22zm-16.11 20.15a1.69 1.69 0 00-1.65-1.72 1.69 1.69 0 000 3.38 1.7 1.7 0 001.65-1.66zm13.74-17a1.58 1.58 0 001.6 1.64 1.62 1.62 0 001.64-1.64 1.63 1.63 0 00-1.63-1.65 1.62 1.62 0 00-1.61 1.66zM50.08 0q7.41 7.43 14.83 14.84a2.34 2.34 0 01.76 1.85v7.48a1 1 0 00.64 1.12A3 3 0 0167.93 29a3.15 3.15 0 01-6-.17 3.2 3.2 0 011.67-3.6 1.45 1.45 0 00.6-1v-7.29a1.88 1.88 0 00-.52-1.23c-4-4.1-8.13-8.15-12.18-12.22-1.16-1.13-2.24-2.32-3.34-3.49zm13.23 28.06a1.64 1.64 0 103.27 0 1.64 1.64 0 00-3.27 0zM40.68 0a30.72 30.72 0 003.24 3.4 6.74 6.74 0 012.66 6.25c-.22 4.75 0 9.52-.07 14.28 0 .69.08 1.14.84 1.47a3.07 3.07 0 011.49 3.42 3.16 3.16 0 11-4.62-3.44 1.15 1.15 0 00.78-1.25V7.64a2.4 2.4 0 00-.82-1.89C42.34 4 40.56 2.19 38.77.41a1.31 1.31 0 01-.2-.41zm5 26.47a1.61 1.61 0 00-1.61 1.61 1.66 1.66 0 003.31 0 1.62 1.62 0 00-1.66-1.61zM28.78 0v15.34c0 .69.07 1.13.85 1.46a3.07 3.07 0 011.44 3.76 3.24 3.24 0 01-3 2.11 3.19 3.19 0 01-3-2.44 3.15 3.15 0 011.58-3.46c.71-.28.72-.69.72-1.25V.76a6.51 6.51 0 01.07-.76zm-2.3 19.57a1.81 1.81 0 001.67 1.66 1.92 1.92 0 001.66-1.7 1.82 1.82 0 00-1.66-1.67 1.69 1.69 0 00-1.67 1.71zM124.34 0c-1.71 1.74-3.41 3.49-5.14 5.21a1.43 1.43 0 00-.47 1.79 3 3 0 01-1.06 3.25 3.12 3.12 0 01-3.75.08 3.16 3.16 0 01-1.28-3.09 3.1 3.1 0 014.16-2.48 1 1 0 00.84-.15c1.55-1.52 3.06-3.08 4.59-4.63zm-8.58 9.43a1.81 1.81 0 001.65-1.66 1.78 1.78 0 00-1.77-1.63 1.86 1.86 0 00-1.64 1.7 1.89 1.89 0 001.76 1.59zM209.15 0c.36 2-.22 3.45-1.62 4a3.06 3.06 0 01-4.4-3.18c0-.29.05-.57.07-.86h1.73c-.08.17-.15.34-.22.52a1.65 1.65 0 00.77 2.18 1.6 1.6 0 002.08-.58 1.84 1.84 0 00-.14-2.08zM58.33 0a3.06 3.06 0 01-3.12 2.29A3.06 3.06 0 0152.38 0h1.73a1.37 1.37 0 002.49 0zm166.18 40.38v-5.85a2.54 2.54 0 01.61-1.58c3.85-3.92 7.75-7.8 11.66-11.66.61-.61 1-1.06.71-2.08a3 3 0 011.78-3.51 3.32 3.32 0 013.59.8 3.29 3.29 0 01.32 3.73 3 3 0 01-3.73 1.28.82.82 0 00-1.06.23c-4 4-8 8-11.91 12a2.07 2.07 0 00-.48 1.36q-.06 5.79 0 11.6a2.39 2.39 0 01-.77 1.84q-20.31 20.28-40.58 40.62-9.45 9.44-18.94 18.84a.84.84 0 00-.26 1.1 3.07 3.07 0 01-2 4 3.13 3.13 0 11-1.85-6 3.34 3.34 0 011.88 0 1.07 1.07 0 001.31-.32q18.06-18.02 36.21-36.1 11.42-11.42 22.82-22.81a2.15 2.15 0 00.75-1.74c-.1-1.91-.06-3.83-.06-5.75zm16-20.21a1.61 1.61 0 001.67-1.57 1.75 1.75 0 00-1.6-1.6 1.64 1.64 0 00-1.69 1.66 1.53 1.53 0 001.65 1.51zm-76.43 90a1.63 1.63 0 00-1.58-1.68 1.67 1.67 0 00-1.65 1.63 1.52 1.52 0 001.62 1.61 1.44 1.44 0 001.64-1.53zm-33.42-36.53V56.09c0-.73-.09-1.18-.88-1.53a3.18 3.18 0 01-1.39-3.72 3.24 3.24 0 013-2.08 3.12 3.12 0 013 2.33 3 3 0 01-1.49 3.51c-.74.31-.82.73-.82 1.38v35.88a2.47 2.47 0 01-.79 1.93q-13.76 13.71-27.44 27.46a2.92 2.92 0 01-2.28.91h-26c-.67 0-1.14.05-1.46.85a3.14 3.14 0 01-5.86-1.6 3.12 3.12 0 015.9-1.39 1.05 1.05 0 001.17.72h26.09a2.2 2.2 0 001.4-.58q13.7-13.66 27.32-27.38a1.91 1.91 0 00.47-1.24c.07-6 .06-11.95.06-17.9zm-59.27 46.11a1.9 1.9 0 00-1.67 1.67 2 2 0 001.75 1.72 1.86 1.86 0 001.63-1.7 1.79 1.79 0 00-1.71-1.69zM133 51.86a1.66 1.66 0 00-1.61-1.65 1.72 1.72 0 00-1.63 1.64 1.64 1.64 0 001.67 1.68 1.62 1.62 0 001.57-1.67zm55.51-39.75a3 3 0 01-2.69-1.56 1.43 1.43 0 00-1.5-.84h-11.23c-.94 0-1.88-.21-2.82-.22a16.62 16.62 0 00-2.1.22.71.71 0 01-.29 0c-1.25-.52-2.51.11-3.76 0-2.55-.24-5.1.11-7.65 0s-5.18-.05-7.77 0a2.1 2.1 0 00-1.3.58c-2.81 2.75-5.56 5.55-8.38 8.3a2.37 2.37 0 01-1.49.62H98.58c-1.87 0-3.73-.14-5.6-.16a12.11 12.11 0 00-1.89.19.51.51 0 00-.37.25c-.2 1-1.08 1.19-1.75 1.61a2.67 2.67 0 01-3.76-.77 3.11 3.11 0 115.26-3.29 1.19 1.19 0 001.24.74h45.35a1.81 1.81 0 001.13-.49c2.85-2.79 5.65-5.63 8.52-8.4a2.84 2.84 0 011.74-.73c5.12-.06 10.24 0 15.35 0 .38 0 .75.18 1.12.18 1.36 0 2.72-.09 4.08-.11.82 0 1.63.06 2.45.1a15.22 15.22 0 001.78.13c1.08-.06 2.14-.28 3.22-.3h8.05a1.23 1.23 0 001.27-.75 3.12 3.12 0 013.36-1.58 3.42 3.42 0 012.53 3 3.39 3.39 0 01-2.33 3.17 3.93 3.93 0 01-.82.11zM87.79 20.16a1.58 1.58 0 001.59-1.63 1.64 1.64 0 00-1.66-1.62 1.69 1.69 0 00-1.64 1.63 1.64 1.64 0 001.71 1.62zM190.1 9a1.64 1.64 0 00-3.28 0 1.71 1.71 0 001.64 1.66A1.66 1.66 0 00190.1 9z"/><path class="cls-3" d="M78.78 30.27c.45.95-.29 1-.82 1a3.8 3.8 0 01-2.86-2.37 3.2 3.2 0 011.46-3.47 3.25 3.25 0 013.8.5s.08 0 .08.05c0 1.81 1.71 1.3 2.64 1.83.28.16.78-.08 1.18-.1 2.31-.1 4.62-.27 6.93-.28h45.47a2.45 2.45 0 001.92-.8c2.66-2.72 5.37-5.39 8-8.09a2.13 2.13 0 011.67-.71c3.77.07 7.54.12 11.31.11 5.17 0 10.35-.07 15.53-.07.59 0 .77-.31 1-.71a3.12 3.12 0 015.8.64 3.12 3.12 0 01-5.29 2.92c-.05-.05-.13-.08-.14-.13-.44-1.55-1.68-1.3-2.84-1.3h-24.77a2.23 2.23 0 00-1.4.58c-2.78 2.73-5.51 5.49-8.23 8.27a2.21 2.21 0 01-1.77.69h-55.6c-.71 0-1.24.14-1.29 1 0 .22-.46.53-.75.6a2.88 2.88 0 01-1.03-.16zm-2.24-2.21c0 1.36.39 1.89 1.58 1.93A2.5 2.5 0 0080 28.12a2.28 2.28 0 00-1.84-1.64 1.61 1.61 0 00-1.62 1.58zm102.33-7.89a1.59 1.59 0 001.64-1.59 1.62 1.62 0 00-1.66-1.67 1.57 1.57 0 00-1.58 1.65 1.51 1.51 0 001.6 1.61zm-57.8 58.27V65.68a1.45 1.45 0 00-.8-1.5 2.94 2.94 0 01-1.2-4.24 3.1 3.1 0 014.13-1.25 3.05 3.05 0 01.41 5.26 2.13 2.13 0 00-1.06 2.12v25.7a2.52 2.52 0 01-.86 2q-9.08 9-18.11 18.09a2.18 2.18 0 01-1.75.72H85.15a1.62 1.62 0 00-1.74.94 2.93 2.93 0 01-3.35 1.39 3.16 3.16 0 01-2.4-2.85 3.33 3.33 0 012.05-3.16 3 3 0 013.77 1.44 1.33 1.33 0 001.4.81h16.49a1.9 1.9 0 001.5-.59q8.74-8.79 17.48-17.57a2.53 2.53 0 00.64-1.57c.1-4.35.08-8.67.08-12.98zm-40.18 35a1.62 1.62 0 100-3.24 1.62 1.62 0 100 3.24zm40.91-53.58a1.59 1.59 0 00-1.65 1.58 1.62 1.62 0 001.59 1.67 1.68 1.68 0 001.7-1.66 1.62 1.62 0 00-1.64-1.59zM54.7 74.08h-19a2.36 2.36 0 00-1.84.78q-5.67 5.73-11.4 11.41a1.16 1.16 0 00-.39 1.47 3.21 3.21 0 01-1.58 3.73 3.37 3.37 0 01-4.06-1.14 3.21 3.21 0 01.47-3.93 3.06 3.06 0 013.23-.79 1.36 1.36 0 001.12-.28q6.06-6 12-12a2.38 2.38 0 011.83-.77h39.23a2.16 2.16 0 011.67.69c1.7 1.75 3.47 3.44 5.16 5.21a1.23 1.23 0 001.43.38 2.9 2.9 0 013.33 1 3 3 0 01.39 3.32 3.22 3.22 0 01-3.66 1.69 2.92 2.92 0 01-2.2-3.5 2 2 0 00-.7-2.3c-1.48-1.39-2.92-2.81-4.32-4.28a2.07 2.07 0 00-1.67-.69q-9.49.01-19.04 0zm-34 14.47a1.62 1.62 0 00-3.21-.27 5.33 5.33 0 01-.56 1c-.07.13-.2.28-.17.39a.48.48 0 00.35.24c.59.09 1.18.14 1.78.21a1.61 1.61 0 001.83-1.57zm64.47-6.77a1.81 1.81 0 00-1.71-1.7 2 2 0 00-1.66 1.7 1.86 1.86 0 001.66 1.67 1.73 1.73 0 001.73-1.67zm69.46-4.09a3.39 3.39 0 013 2 1.14 1.14 0 00.8.53h11.22a2.13 2.13 0 001.27-.64q16-15.93 31.93-31.88c.38-.38.67-.66.42-1.36a3.06 3.06 0 011.76-3.85 3.1 3.1 0 013.97 1.28 3 3 0 01-1 4.23 4 4 0 01-2.36.35 1.81 1.81 0 00-1.8.6q-13.53 13.57-27.1 27.12c-1.67 1.68-3.36 3.33-5 5a2 2 0 01-1.59.65h-11.42a1.34 1.34 0 00-1.36.75 3 3 0 01-3.37 1.44 3.16 3.16 0 01-.15-6.12 4.82 4.82 0 01.78-.1zm53.24-32.29a1.53 1.53 0 00-1.55-1.65 1.68 1.68 0 00-1.7 1.65 1.63 1.63 0 001.64 1.6 1.53 1.53 0 001.61-1.6zm-54.8 35.4a1.47 1.47 0 001.55 1.63 1.54 1.54 0 001.68-1.56 1.65 1.65 0 00-1.6-1.68 1.59 1.59 0 00-1.63 1.61zM54.68 65.81h12.28a2.07 2.07 0 001.68-.69c1.56-1.64 3.22-3.2 4.83-4.8a1 1 0 00.31-1.22 3.14 3.14 0 015.69-2.58 3 3 0 01-1.19 4.18 8.58 8.58 0 01-2.58.3 2.12 2.12 0 00-1.13.33c-1.75 1.68-3.47 3.4-5.16 5.14a2.51 2.51 0 01-2 .86H41.89a2.27 2.27 0 01-1.76-.75c-3.89-3.92-7.82-7.8-11.7-11.75a2 2 0 00-2.16-.65 3 3 0 01-3.49-2.08 3.15 3.15 0 011.64-3.77 3.1 3.1 0 013.39.46c1.17 1 1.09 2.19.94 3.49a1.51 1.51 0 00.25 1l12 12a2 2 0 001.28.43h12.37zM24.15 51.13a1.64 1.64 0 001.56 1.69 1.68 1.68 0 001.68-1.67 1.62 1.62 0 10-3.24 0zM78.33 58a1.49 1.49 0 00-1.6-1.59 1.63 1.63 0 100 3.26 1.55 1.55 0 001.6-1.67z"/><path class="cls-3" d="M157.88 68.56h12a1.62 1.62 0 001-.45Q184.05 55 197.2 41.8a1 1 0 00.31-1.14 3.29 3.29 0 011.27-3.79 3.36 3.36 0 013.76.33 3.24 3.24 0 01.63 3.94 3.14 3.14 0 01-3.71 1.39 1.09 1.09 0 00-1.3.36q-13.31 13.3-26.61 26.58a2.49 2.49 0 01-1.59.62h-11.32a1.37 1.37 0 00-1.37.76 3 3 0 01-3.37 1.37 3.15 3.15 0 01-2.38-2.79 3.37 3.37 0 011.8-3.12 3.28 3.28 0 013.91 1.1c.22.35.4.72.65 1.15zM200.46 38a1.56 1.56 0 00-1.65 1.59 1.59 1.59 0 001.62 1.62 1.57 1.57 0 001.64-1.6 1.5 1.5 0 00-1.61-1.61zm-45.75 32.81a1.62 1.62 0 10-.09-3.24 1.49 1.49 0 00-1.55 1.67 1.47 1.47 0 001.64 1.57zM54.4 114.76v5.76a2 2 0 00.53 1.24c3.94 4 7.91 7.94 11.86 11.91a.83.83 0 001.06.23 3.13 3.13 0 014 1.78 3.18 3.18 0 01-1.76 4.06 3.09 3.09 0 01-3.31-.58 3 3 0 01-.83-3.33.93.93 0 00-.3-1.2l-12-12a2.3 2.3 0 01-.78-1.81q.06-6 0-12.09a2.36 2.36 0 01.75-1.84c4-4 8-8 11.95-11.91a1.3 1.3 0 00.42-1.58 3.08 3.08 0 011.31-3.5 3.27 3.27 0 013.81.38 3.23 3.23 0 01.77 3.72 3 3 0 01-3.34 1.65 2 2 0 00-2.22.7c-3.75 3.8-7.55 7.55-11.29 11.37a2.46 2.46 0 00-.61 1.48c-.07 1.85-.02 3.71-.02 5.56zM69 94.29a1.92 1.92 0 001.73-1.61A1.81 1.81 0 0069.06 91a1.74 1.74 0 00-1.7 1.68A1.81 1.81 0 0069 94.29zm-1.68 42.49a1.57 1.57 0 001.55 1.68 1.63 1.63 0 001.68-1.59 1.54 1.54 0 00-1.6-1.64 1.45 1.45 0 00-1.62 1.55zM93.34 103h-8.63a1 1 0 00-1.1.66 3.09 3.09 0 01-3.71 1.59 3.32 3.32 0 01-2.18-3.44 3.23 3.23 0 012.89-2.73 2.93 2.93 0 013 1.66 1.3 1.3 0 001.34.8h16.5a2.28 2.28 0 001.42-.58q4-3.94 8-8a2.29 2.29 0 00.59-1.4v-16.5a1.23 1.23 0 00-.77-1.26 3.05 3.05 0 01-1.56-3.38 3.14 3.14 0 013.1-2.47 3.06 3.06 0 012.92 2.17 3 3 0 01-1.43 3.65 1.44 1.44 0 00-.86 1.5v16.79a2.27 2.27 0 01-.72 1.75q-4.29 4.24-8.55 8.52a2.21 2.21 0 01-1.75.74c-2.84-.07-5.65-.07-8.5-.07zm18.9-30.33a1.79 1.79 0 001.65-1.67 1.89 1.89 0 00-1.7-1.63 1.73 1.73 0 00-1.66 1.73 1.7 1.7 0 001.71 1.6zm-29.73 29.62a1.64 1.64 0 00-1.61-1.65 1.65 1.65 0 00-1.7 1.57 1.7 1.7 0 001.61 1.69 1.67 1.67 0 001.7-1.61zm34.31 18.93c-1-2-.63-3.63 1.08-4.65a3.33 3.33 0 013.57.41 3.14 3.14 0 01-2.51 5.45 1.51 1.51 0 00-1.66.49c-2.7 2.76-5.45 5.47-8.16 8.21a2.29 2.29 0 01-1.77.7H90.1a2.2 2.2 0 00-1.4.56c-2.63 2.57-5.21 5.19-7.82 7.78a1.14 1.14 0 00-.38 1.38 3.29 3.29 0 01-.7 3.19v-.68c-1.24 0-.66-.77-.6-1.35a1.51 1.51 0 00-1.52-1.71 1.46 1.46 0 00-1.74 1.54 1.57 1.57 0 001.65 1.69 6 6 0 00.85-.13l.59 1.24v-.06c-1.16-.08-2.41.73-3.48-.24a3.07 3.07 0 01-1.07-3.04 3 3 0 012.52-2.5 2.1 2.1 0 011.22 0c.75.37 1.19 0 1.69-.46 2.71-2.74 5.42-5.49 8.18-8.18a2.36 2.36 0 011.52-.55h17.17a2.23 2.23 0 001.76-.72c2.71-2.79 5.46-5.59 8.28-8.37zm2.51-.29a1.47 1.47 0 001.64-1.54 1.52 1.52 0 00-1.54-1.69 1.65 1.65 0 00-1.7 1.59 1.6 1.6 0 001.6 1.64z"/><path class="cls-3" d="M189.41 23.73a3.24 3.24 0 01-1.38-5.5 3.21 3.21 0 014.58.44 3.08 3.08 0 01-.73 4.44 1.88 1.88 0 00-1 1.92c.05 3.61 0 7.22 0 10.84a2.59 2.59 0 01-.84 2q-9.51 9.47-19 19a1.28 1.28 0 00-.45 1.6 3.06 3.06 0 01-1.42 3.53 3.31 3.31 0 01-3.79-.64 3.39 3.39 0 01-.43-3.73 3.07 3.07 0 013.62-1.4 1.13 1.13 0 001.43-.33q9.48-9.54 19-19a1.51 1.51 0 00.43-1c-.01-4.04-.02-8.07-.02-12.17zm-20.13 35.54a1.64 1.64 0 00-1.55-1.69 1.68 1.68 0 00-1.73 1.68 1.7 1.7 0 001.62 1.64 1.6 1.6 0 001.66-1.63zM190.12 19a1.59 1.59 0 00-1.65 1.61 1.64 1.64 0 001.63 1.63 1.52 1.52 0 001.61-1.62 1.48 1.48 0 00-1.59-1.62zm-66.67 92.58a3.06 3.06 0 014-2.94 1.16 1.16 0 001.4-.39l16.85-16.91c.8-.8 1.57-1.65 2.42-2.39a2.37 2.37 0 011.42-.57h11.89a.89.89 0 001-.63 3.13 3.13 0 013.26-1.68 3.18 3.18 0 012.65 2.63 3.16 3.16 0 01-6 1.74 1.21 1.21 0 00-.86-.6h-11.41a1.57 1.57 0 00-1 .43c-6.43 6.38-12.85 12.79-19.29 19.16-.47.46-.33.9-.23 1.38a3 3 0 01-1.12 3.29 3 3 0 01-3.25.33 2.89 2.89 0 01-1.73-2.85zm41.74-20.76a1.81 1.81 0 001.72-1.61 1.78 1.78 0 00-1.6-1.71 1.81 1.81 0 00-1.79 1.64 1.86 1.86 0 001.67 1.68zm-36.95 20.82a1.78 1.78 0 00-1.62-1.69 1.68 1.68 0 00-1.71 1.56 1.74 1.74 0 001.63 1.77 1.84 1.84 0 001.7-1.64zM54.68 80.85H42.31a2.47 2.47 0 00-1.47.63c-1.67 1.58-3.28 3.23-4.92 4.85a1 1 0 00-.3 1.15 3.13 3.13 0 11-5.56-.67 3 3 0 013.42-1.24 1.27 1.27 0 001.57-.42c1.74-1.76 3.48-3.52 5.26-5.24a2 2 0 011.23-.51h26.37a1.94 1.94 0 011.21.53q2.75 2.63 5.4 5.33a1 1 0 001.23.32 3.06 3.06 0 014 2 3.15 3.15 0 01-6 2 8.48 8.48 0 010-2.26 1.74 1.74 0 00-.23-1c-1.65-1.71-3.32-3.39-5-5a2.16 2.16 0 00-1.35-.5c-4.17.02-8.34.03-12.49.03zm-23.62 7.78a1.62 1.62 0 001.63 1.61 1.66 1.66 0 000-3.31 1.61 1.61 0 00-1.63 1.7zm47.25 0a1.57 1.57 0 00-1.57-1.67 1.65 1.65 0 00-1.64 1.62 1.73 1.73 0 001.59 1.69 1.62 1.62 0 001.62-1.68zM114 38.68v12.3a2.25 2.25 0 01-.69 1.77l-18.11 18c-.2.2-.4.4-.61.59a2 2 0 00-.83 2.32 3 3 0 01-2.59 3.67 3.21 3.21 0 01-3.6-2.68 3.14 3.14 0 013.87-3.45 1.52 1.52 0 001.75-.45c6.24-6.3 12.52-12.56 18.76-18.86a2.15 2.15 0 00.55-1.32v-11c0-.52 0-.87-.69-1.14a3.08 3.08 0 01-1.7-3.73 3.17 3.17 0 013.67-2.18 3.13 3.13 0 012.48 3.48 3.21 3.21 0 01-2.26 2.68zM90.65 76a1.79 1.79 0 001.71-1.6 1.84 1.84 0 00-1.63-1.78 1.82 1.82 0 00-1.66 1.66A1.79 1.79 0 0090.65 76zm22.51-42a1.64 1.64 0 100 3.27 1.67 1.67 0 001.61-1.65 1.7 1.7 0 00-1.61-1.62zm146.95-9.85c-.16 0-.35.06-.47 0-1.07-.63-1.66.09-2.32.75q-8.26 8.3-16.56 16.56a1.52 1.52 0 00-.51 1.8 3.11 3.11 0 01-1.51 3.33 3.33 3.33 0 01-3.8-.57 3.28 3.28 0 01-.53-3.65 2.83 2.83 0 013.35-1.55c1.31.5 1.87-.27 2.6-1q8.25-8.3 16.55-16.56a1.05 1.05 0 00.3-1.26 3.11 3.11 0 014.88-3.46 3.3 3.3 0 011 3.62 3.12 3.12 0 01-2.98 1.99zm-22.88 18a1.92 1.92 0 00-1.73 1.62 1.8 1.8 0 001.68 1.72 1.73 1.73 0 001.7-1.67 1.83 1.83 0 00-1.65-1.69zm22.92-22.76a1.76 1.76 0 00-1.68 1.61 1.74 1.74 0 001.71 1.68 1.87 1.87 0 001.67-1.68 1.91 1.91 0 00-1.7-1.63zm-1.85 14.14l-12.55 12.59c-1.73 1.74-3.47 3.49-5.22 5.21a1.1 1.1 0 00-.35 1.34 3.16 3.16 0 01-1.4 3.64 3.47 3.47 0 01-3.83-.55 3.34 3.34 0 01-.47-3.81 3 3 0 013.62-1.39 1.25 1.25 0 001.48-.42c5.77-5.8 11.58-11.57 17.35-17.37a1.29 1.29 0 00.24-1.06 3.22 3.22 0 012.11-4 3.17 3.17 0 014 2.6 3.14 3.14 0 01-2.77 3.59 10.06 10.06 0 01-2.21-.37zm-21.11 18.3a1.7 1.7 0 100 3.39 1.85 1.85 0 001.65-1.68 1.8 1.8 0 00-1.65-1.71zm23-19.5a1.74 1.74 0 001.69-1.6 1.88 1.88 0 00-1.67-1.65 1.74 1.74 0 00-1.71 1.68 1.64 1.64 0 001.66 1.57z"/><path class="cls-3" d="M260.14 14.4h-.09c-1.5-.72-2.23.42-3.07 1.26q-8.27 8.3-16.53 16.6a1.19 1.19 0 00-.24 1 3.19 3.19 0 01-2.07 3.88 3.27 3.27 0 01-3.8-1.63 3.1 3.1 0 011.56-4.17 4.42 4.42 0 012.5-.06 1.1 1.1 0 001.24-.28c5.78-5.79 11.57-11.56 17.32-17.37a1.55 1.55 0 00.23-1.25 3.08 3.08 0 011.45-3.75 3 3 0 014 .86 2.94 2.94 0 01.28 3.31 2.78 2.78 0 01-2.78 1.6zm-22.92 21.31a1.66 1.66 0 001.66-1.6 1.69 1.69 0 00-1.65-1.64 1.76 1.76 0 00-1.73 1.67 1.72 1.72 0 001.72 1.57zm22.93-26a1.66 1.66 0 00-1.68 1.59 1.7 1.7 0 001.63 1.7 1.82 1.82 0 001.75-1.66 1.73 1.73 0 00-1.7-1.63zm-2.29 30.88c-.93.11-.88-.47-.82-1a3.11 3.11 0 013.55-2.68c1.16.23 3.29 2.6 2.46 4.15a11.24 11.24 0 01-1.32 1.46c-.52.66-1.07.53-1.78.34a1.94 1.94 0 00-1.5.26 28 28 0 00-3.2 2.75c-1.79 1.81-3.46 3.74-5.23 5.56-3.16 3.24-6.38 6.42-9.54 9.66a1.38 1.38 0 00-.29 1.14 3.24 3.24 0 01-1.36 3.73 3.15 3.15 0 01-4.4-4.21 3.17 3.17 0 013.57-1.53 1.22 1.22 0 001.47-.4q5.95-5.92 11.9-11.82c.42-.42 1-.73 1.38-1.16.63-.64 1.17-1.36 1.79-2s1.6-1.51 2.3-2.35a10.08 10.08 0 001.02-1.9zm.61-.59c0 1.29.48 1.69 2.08 1.68.62 0 1.31-.91 1.3-1.72a1.87 1.87 0 00-1.69-1.64 1.63 1.63 0 00-1.69 1.68zm-21.3 24.89a1.65 1.65 0 10.11-3.3 1.77 1.77 0 00-1.78 1.63 1.86 1.86 0 001.67 1.67zm-97.32-.28v17.12c0 .64.38.8.79 1a3.11 3.11 0 011.51 3.57 3.41 3.41 0 01-3.28 2.28 3.35 3.35 0 01-2.91-2.6 3 3 0 011.52-3.19 1.52 1.52 0 00.89-1.58V65.69a1.47 1.47 0 00-.84-1.58 3 3 0 01-1.53-3.25 3.16 3.16 0 012.81-2.48 3.06 3.06 0 013.24 2c.63 1.62-.2 3.26-2.2 4.23zm.86-3.13a1.62 1.62 0 00-1.61-1.62 1.58 1.58 0 00-1.68 1.63 1.64 1.64 0 001.65 1.62 1.69 1.69 0 001.64-1.63zm0 23.94A1.72 1.72 0 00139 83.8a1.65 1.65 0 00.07 3.3 1.64 1.64 0 001.64-1.68zM256.42 83a3.07 3.07 0 01-1.42-5.85 1 1 0 00.7-1.15V59.71a1 1 0 00-.69-1.08 3.15 3.15 0 01-1.66-3.35 3.19 3.19 0 016.2-.16 3.13 3.13 0 01-1.55 3.52 1.08 1.08 0 00-.75 1.23v16.1c0 .5 0 .89.59 1.15a3.07 3.07 0 01-1.42 5.88zm.06-25.43a1.68 1.68 0 001.65-1.57 1.77 1.77 0 00-1.71-1.69 1.73 1.73 0 00-1.58 1.6 1.61 1.61 0 001.64 1.65zm0 20.72a1.59 1.59 0 00-1.6 1.62 1.67 1.67 0 001.62 1.65 1.75 1.75 0 001.68-1.61 1.67 1.67 0 00-1.74-1.67zM35.11 38.41A3 3 0 0137 35.5a2.93 2.93 0 013.29.56 2.81 2.81 0 01.88 3.36.87.87 0 00.26 1.13c3.88 3.87 7.74 7.77 11.64 11.63a1.28 1.28 0 001 .21c1.44-.29 2.71-.17 3.65 1.13a3.21 3.21 0 01-.14 3.89 3.31 3.31 0 01-3.93.7 3.14 3.14 0 01-1.43-3.62 1.2 1.2 0 00-.4-1.48q-5.69-5.64-11.35-11.32a1 1 0 00-1.22-.34 3.11 3.11 0 01-4.14-2.94zm21.76 16.92a1.82 1.82 0 00-1.68-1.65 1.74 1.74 0 00-1.66 1.74 1.67 1.67 0 001.7 1.58 1.74 1.74 0 001.64-1.67zm-18.6-18.54a1.61 1.61 0 00-1.69 1.56A1.64 1.64 0 0038.2 40a1.6 1.6 0 001.67-1.6 1.57 1.57 0 00-1.6-1.61zm1.45 17.74a.89.89 0 010-.5c.62-1-.09-1.55-.69-2.15L28.2 41a1.12 1.12 0 00-1.4-.33 3 3 0 01-3.88-2.08 3.1 3.1 0 012.16-4 3 3 0 013.72 2.11 5.28 5.28 0 010 1.86 1.32 1.32 0 00.37 1.44q5.71 5.6 11.35 11.3a1.23 1.23 0 001.49.39 3.11 3.11 0 013.36 4.87 3.23 3.23 0 01-3.69 1 3.1 3.1 0 01-1.96-3.03zM25.85 39.35a1.87 1.87 0 001.73-1.59 1.86 1.86 0 00-1.58-1.7 1.79 1.79 0 00-1.8 1.64 1.77 1.77 0 001.65 1.65zm18.62 15.37a1.64 1.64 0 10-3.28-.06 1.82 1.82 0 001.62 1.69 1.77 1.77 0 001.66-1.63zm60.01-8.65a1.22 1.22 0 01-.47 0c-1.14-.52-1.76.21-2.47.92Q96.29 52.29 91 57.55a1.42 1.42 0 00-.45 1.67 3.06 3.06 0 01-2.4 3.78 3.17 3.17 0 01-3.77-2.74 3.06 3.06 0 012.84-3.39 1.92 1.92 0 01.76 0c1.1.46 1.7-.18 2.39-.89Q95.64 50.7 101 45.45a1.34 1.34 0 00.45-1.71 3.11 3.11 0 011.26-3.35 3.36 3.36 0 013.69.1 3.18 3.18 0 011.15 3.31 3 3 0 01-3.07 2.27zm-17 15.52a1.69 1.69 0 001.72-1.65 1.75 1.75 0 00-1.71-1.6A1.82 1.82 0 0085.8 60a1.73 1.73 0 001.68 1.59zm17-20.19a1.61 1.61 0 00-1.68 1.54 1.66 1.66 0 103.31.06 1.61 1.61 0 00-1.61-1.6zm53.87 1.6a2.94 2.94 0 01-2.13 3 3 3 0 01-3.74-1.67 1 1 0 00-1-.61h-16.31c-.46 0-.81 0-1 .57a3.12 3.12 0 01-3.81 1.71 3.32 3.32 0 01-2.22-3 3.13 3.13 0 012.42-3 3 3 0 013.52 1.63 1 1 0 001.07.69h16.31a1.44 1.44 0 001-.63A3.13 3.13 0 01156 40a3 3 0 012.35 3zm-27-1.57a1.7 1.7 0 00-1.74 1.53 1.79 1.79 0 001.68 1.71A1.71 1.71 0 00133 43a1.67 1.67 0 00-1.67-1.6zm23.9 0a1.46 1.46 0 00-1.58 1.57 1.56 1.56 0 001.64 1.6 1.62 1.62 0 001.59-1.6 1.55 1.55 0 00-1.67-1.6zM167.48 34a3.14 3.14 0 01-2.48 3 2.94 2.94 0 01-3.34-1.43 1.58 1.58 0 00-1.72-.95h-15.53a1.25 1.25 0 00-1.34.76 3.08 3.08 0 01-3.14 1.68 3.15 3.15 0 01-2.65-2.4 3.06 3.06 0 011.31-3.33 3.11 3.11 0 014.48 1.16 1.23 1.23 0 001.27.71h15.8a1.42 1.42 0 001.5-.85 2.94 2.94 0 013.42-1.43 3.11 3.11 0 012.42 3.08zm-28.77 0a1.7 1.7 0 001.62 1.67 1.7 1.7 0 000-3.39 1.69 1.69 0 00-1.62 1.72zM166 34a1.82 1.82 0 00-1.6-1.71 1.7 1.7 0 000 3.39A1.82 1.82 0 00166 34zm16.88 1.18a2.65 2.65 0 01-.74-.06c-1.16-.66-1.72.24-2.37.89-3.53 3.54-7 7.09-10.61 10.59a1.45 1.45 0 00-.44 1.67 3 3 0 01-1.45 3.51 3.11 3.11 0 01-4-.86 3 3 0 01-.26-3.41 2.62 2.62 0 013-1.5c1.32.35 2-.26 2.79-1.08 3.5-3.57 7.07-7.08 10.61-10.6a1 1 0 00.31-1.23 3.11 3.11 0 012-4 3.13 3.13 0 012.2 5.9 4.63 4.63 0 01-1.04.18zm-17.12 15.48a1.78 1.78 0 001.68-1.66 1.8 1.8 0 00-1.69-1.64 1.71 1.71 0 00-1.69 1.69 1.66 1.66 0 001.7 1.61zm16.94-20.19a1.61 1.61 0 100 3.22 1.5 1.5 0 001.61-1.62 1.48 1.48 0 00-1.61-1.6zM84.74 46.08A2.71 2.71 0 0182 44.46a1.19 1.19 0 00-1.33-.73H69.45a8.32 8.32 0 01-1.29-.23 2.74 2.74 0 00-.74-.1c-1.06.09-2.12.28-3.17.28-.58 0-.78.13-.88.69-.26 1.34-2.33 2.06-3.56 1.46-1-.48-1.81-.92-2.11-2.06a3.17 3.17 0 011.59-3.54 3.25 3.25 0 013.91.74.3.3 0 01.08.17c0 1.25.81 1.16 1.78 1.14 4.15-.08 8.3 0 12.46 0h2c1.19.06 2.18.07 2.88-1.31s2.48-1.39 3.85-.69a3.11 3.11 0 011.51 3.5 3 3 0 01-3.02 2.3zM59.2 43c0 1 .67 1.83 1.43 1.8a2.22 2.22 0 002-2.07c0-.69-.83-1.58-1.44-1.55A1.86 1.86 0 0059.2 43zm27.18 0a1.43 1.43 0 00-1.62-1.57A1.54 1.54 0 0083.14 43a1.63 1.63 0 001.65 1.62A1.59 1.59 0 0086.38 43zM46 101.51c-2.05-1-2.7-2.13-2.29-4.07a3 3 0 013-2.22 3.12 3.12 0 013.08 2.48c.31 1.61-.5 2.94-2.32 3.76v16.91a1.13 1.13 0 00.7 1.19 3.07 3.07 0 011.64 3.35 3.33 3.33 0 01-2.45 2.53 3.24 3.24 0 01-3.36-1.55 3 3 0 011-4.16 1.74 1.74 0 001-1.87v-15.33zm.7-4.81a1.71 1.71 0 00-1.7 1.6 1.75 1.75 0 001.65 1.7 1.64 1.64 0 10.07-3.27zm-.13 27.3a1.74 1.74 0 001.78-1.38 1.68 1.68 0 00-1.53-1.91 1.65 1.65 0 10-.25 3.29z"/></g></g></svg>