<svg xmlns="http://www.w3.org/2000/svg" width="30" height="30"><path fill="#75b53e" d="M22.355 8.2c4.02 2.967 6.091 6.96 6.087 11.987 0 1.475-.05 2.95.028 4.42a2.92 2.92 0 00.588 1.562c.581.743.83 1.51.448 2.352-.375.832-1.127 1.056-2.033 1.044a930.727 930.727 0 00-12.278-.078c-4.093 0-8.185.025-12.277.079-.852.012-1.637-.13-2.028-.893-.404-.785-.233-1.574.237-2.4.432-.76.662-1.69.764-2.57.127-1.098.06-2.223.027-3.336-.168-5.434 2.271-9.512 6.576-12.595.972-.695 2.04-1.268 3.106-1.817.52-.27.581-.572.326-.997-.385-.642-.8-1.264-1.215-1.886-.93-1.392-.539-2.713 1.13-2.99 1.27-.212 2.632.047 3.946.168.965.087 1.916.367 2.881.418 1.225.066 1.705.8 1.082 1.892-.548.957-1.15 1.883-1.736 2.833 1.523.978 2.992 1.812 4.341 2.807zm5.063 20.207c.35-.008.926-.158.986-.364.096-.32-.145-.75-.274-1.124-.259-.747-.725-1.473-.774-2.23-.119-1.828.08-3.68-.09-5.499-.14-1.476-.449-2.992-1.003-4.36-1.623-4.002-4.872-6.404-8.64-8.17-1.213-.57-2.547-1.008-3.884-.373-1.495.71-3.038 1.374-4.393 2.302-3.868 2.65-6.29 6.191-6.296 11.072-.002 1.342.114 2.7-.038 4.025-.123 1.067-.584 2.094-.868 3.146-.112.417-.273.885-.174 1.27.046.181.65.308 1.003.31 4.871.018 9.742.012 14.615.012h4.816c1.672 0 3.342.02 5.014-.017zM13.992 1c-.694-.111-1.47.075-2.168.274-.515.147-.633.585-.267 1.088.398.549.79 1.113 1.1 1.714.444.854.97 1.283 2.003.904.414-.151.951.059 1.434.055.297-.002.744.009.865-.164.637-.92 1.19-1.896 1.746-2.808-1.638-.382-3.16-.816-4.713-1.063z"/><path fill="#75b53e" d="M24.53 19.785c.259.558.248 1.088-.091 1.642a99.591 99.591 0 00-2.01 3.471c-.34.615-.798.958-1.526.933-.722-.026-1.446-.006-2.241-.006l-.1 1.525a7408.58 7408.58 0 01-3.905-3.952l3.947-3.86c0 .36.008.716-.001 1.071-.01.353.116.531.504.527 1.303-.014 2.608.017 3.91-.015 1.006-.025 1.192-.382.759-1.29-.418-.869-.844-1.736-1.236-2.617-.151-.34-.31-.426-.65-.242-.667.363-1.361.674-2.021 1.051-.117.067-.207.38-.152.518.206.514.5.994.709 1.508.059.142-.063.356-.102.537-.171-.068-.426-.086-.498-.21a39.852 39.852 0 01-1.076-2.074c-.124-.252-.17-.478.184-.646 1.239-.593 2.465-1.214 3.74-1.847.639 1.365 1.253 2.667 1.857 3.976zm-6.871 1.472c-.648.673-1.304 1.344-1.94 2.033-.063.071-.06.311.008.383.657.684 1.333 1.35 2.072 2.09.094-.297.146-.46.203-.648.933 0 1.844-.025 2.752.01.526.02.854-.179 1.098-.627.36-.668.758-1.318 1.13-1.98.106-.185.178-.389.318-.703h-.79c-1.285 0-2.57.018-3.851-.012-.314-.008-.625-.175-.937-.269l-.063-.277zM9.628 15.41c.512-.154 1.023-.313 1.545-.428.115-.027.365.098.39.194a306.38 306.38 0 011.14 4.748c.027.117.014.243.025.42-.17-.06-.306-.088-.422-.15-.843-.459-.845-.463-1.312.334-.614 1.044-1.224 2.091-1.837 3.135-.405.688-.148 1.284.625 1.381 1.192.15 2.418.04 3.695.04 0-1 .021-1.947-.022-2.892-.006-.132-.31-.344-.49-.358-.593-.045-1.194-.016-1.858-.016-.016-.222-.027-.412-.042-.64h3.092v4.585c-.124.021-.26.063-.396.063-1.199.005-2.399-.008-3.597.005-.858.01-1.454-.418-1.868-1.112-.736-1.237-1.443-2.49-2.16-3.739-.347-.607-.34-1.214.023-1.815.275-.458.52-.937.828-1.37.29-.409.144-.628-.232-.824-.225-.117-.443-.253-.79-.452 1.308-.397 2.484-.756 3.663-1.11zm-1.53 1.398c-.02.188.01.404-.074.56-.435.813-.909 1.607-1.34 2.424-.082.154-.106.418-.028.563.537 1.006 1.108 1.995 1.781 3.188.116-.236.164-.344.223-.446.743-1.277 1.477-2.56 2.24-3.825.14-.23.394-.393.594-.587.065.023.131.045.194.07-.242-.996-.484-1.994-.733-3.013l-3.013.917.156.15zm12.343-.47l-5.454-1.609c.158-.123.259-.216.372-.29.83-.54.85-.55.35-1.449a86.335 86.335 0 00-1.859-3.198c-.333-.543-.678-.535-1.051-.014-.625.867-1.228 1.75-1.847 2.622-.182.26-.224.477.085.675.74.47 1.476.95 2.265 1.461.471-.69.921-1.346 1.39-2.03l.586.361c-.506.773-1.005 1.526-1.494 2.286-.174.271-.356.366-.655.163-1.119-.76-2.247-1.509-3.443-2.309.41-.6.804-1.19 1.211-1.772.459-.656.931-1.3 1.388-1.958.297-.428.69-.6 1.21-.596 1.448.018 2.898.036 4.345-.005.749-.022 1.199.343 1.549.92.255.42.54.835.715 1.291.24.62.571.522.994.242.167-.11.349-.195.665-.367l-1.322 5.576zm-3.605-2.789c.154.284.195.631.328 1.087.612.187 1.432.46 2.262.677.169.044.533-.072.564-.183.248-.885.438-1.784.645-2.68a5.737 5.737 0 01-.184.065c-.204-.204-.455-.377-.601-.616-.409-.663-.75-1.366-1.165-2.025-.126-.202-.392-.438-.602-.444-1.149-.044-2.301-.02-3.581-.02.83 1.464 1.598 2.792 2.334 4.14z"/></svg>