<svg xmlns="http://www.w3.org/2000/svg" width="36" height="41"><path fill="#75b53e" d="M0 40.566c0-.161-.061-.415-.058-.806.038-5.024.127-10.05.146-15.073.002-.364.129-.797.346-1.081a480.241 480.241 0 015.226-6.668c.72-.904 4.648-.738 5.33.194.327.448.659.898 1.1 1.498-1.427 0-2.693-.06-3.947.037-.494.038-1.095.333-1.414.703-.967 1.112-1.872 2.299-2.78 3.46-.03.076-.061.187-.098.236-.253.335-.517.774-.786 1.097-.102.164-.221.837-.395.837h30.56c-.314-1-.45-.961-.628-1.191-1.116-1.43-2.205-3.076-3.386-4.451-.317-.368-.911-.657-1.4-.695-1.241-.097-2.492-.036-3.905-.036.437-.6.765-1.047 1.089-1.496.674-.933 4.563-1.098 5.275-.195a483.316 483.316 0 015.018 6.468c.737.567.703 1.317.7 2.116-.012 4.625.007 9.25.007 13.875V41h-.731c-.15 0-.331-.017-.558-.017-4.424-.017-8.85-.041-13.273-.024-.756.002-2.237.04-2.221.04h-2.383c.016 0-1.48.009-2.244.007-4.473-.017-8.945-.08-13.417-.062-.228 0-.413.056-.563.056H0zm33.47-12.632c0-1.324-.01-.934-1.312-.934H3.756c-.948 0-1.22-.261-1.297.166 0 3.446.025 6.997-.017 10.452-.01.845.238 1.382 1 1.382h.063c3.026 0 6.052-.23 9.078-.246.465-.002.93-.185 1.442-.185 0 .005 0 .037.002.042.564-.001 1.13.052 1.694.052.28-.056.615.109.916.109.465 0 .93.228 1.395.228h1.38c.298 0 .63-.275.909-.218.558 0 1.679-.22 1.679-.22v-.006c1 0 .965.032 1.424.034 2.994.016 5.986.06 8.98.114.826.014 1.096-.16 1.087-.986-.038-3.326-.014-6.456-.02-9.784zm-31.01-.882a1.708 1.708 0 00-.014.21.998.998 0 01.014-.096v-.114zm-.014.21a3.202 3.202 0 00-.01.13.852.852 0 00.01-.13z"/><path fill="#75b53e" d="M17.974 21.868l7.054-9.357c-.983 0-1.727.046-2.46-.025-.281-.026-.751-.303-.77-.499-.298-3.197-.216-6.38 1.902-9.015.9-1.12 2.218-1.906 3.378-2.87-.154-.039-.524-.255-.824-.182-3.871.932-7.422 2.427-9.845 5.817-1.254 1.755-2.088 3.685-2.304 5.836-.073.722-.318 1.005-1.044.947-.617-.048-1.241-.009-2.143-.009l7.056 9.357z"/></svg>