<svg xmlns="http://www.w3.org/2000/svg" xmlns:xlink="http://www.w3.org/1999/xlink" viewBox="0 0 263.3 145.5"><defs><style>.cls-1{fill:none;}.cls-2{clip-path:url(#clip-path);}.cls-3{fill:#f7f7f7;fill-rule:evenodd;}</style><clipPath id="clip-path"><path class="cls-1" d="M172.61,60A55.72,55.72,0,1,1,116.9,4.24,55.71,55.71,0,0,1,172.61,60Z"/></clipPath></defs><title>Ресурс 8</title><g id="Слой_2" data-name="Слой 2"><g id="сайт"><g class="cls-2"><path class="cls-3" d="M249.83,0c-1.26,1.32-2.5,2.66-3.79,4q-14.4,14.4-28.79,28.82a2.05,2.05,0,0,0-.5,1.34c0,3.93,0,7.86-.05,11.79a2.37,2.37,0,0,1-.61,1.49q-19.65,19.74-39.37,39.41a1.17,1.17,0,0,0-.37,1.46,3.07,3.07,0,0,1-1.42,3.61,3.36,3.36,0,0,1-3.74-.46,3.49,3.49,0,0,1-.62-3.72,3,3,0,0,1,3.55-1.56,1.41,1.41,0,0,0,1.71-.47q19.46-19.51,38.92-39a1.92,1.92,0,0,0,.51-1.22c0-4,0-8,0-12a1.9,1.9,0,0,1,.47-1.23Q228.9,19,242.07,5.83c1.76-1.77,3.55-3.51,5.31-5.28a2.54,2.54,0,0,0,.34-.55ZM175,89.17a1.62,1.62,0,0,0-1.59-1.67,1.66,1.66,0,0,0-1.68,1.6,1.64,1.64,0,0,0,1.61,1.67A1.6,1.6,0,0,0,175,89.17Z"/><path class="cls-3" d="M0,124.53c1.16-1.1,2.35-2.18,3.48-3.3,3.82-3.78,7.62-7.59,11.45-11.36a1.78,1.78,0,0,1,1.14-.48q3.93-.06,7.86,0a2.09,2.09,0,0,0,1.68-.64Q34.27,100,43,91.36a.9.9,0,0,0,.27-1.13,3.28,3.28,0,0,1,1.27-3.87,3.22,3.22,0,0,1,4,.63,3.29,3.29,0,0,1,.35,3.67,3.11,3.11,0,0,1-3.55,1.39,1.27,1.27,0,0,0-1.39.47Q35.2,101.26,26.45,110a2.54,2.54,0,0,1-2,.83c-2.49,0-5,0-7.48,0a2.54,2.54,0,0,0-1.56.64c-5,4.94-9.95,9.91-14.92,14.87a2.14,2.14,0,0,1-.47.27ZM46.18,87.45A1.56,1.56,0,0,0,44.52,89a1.63,1.63,0,1,0,3.26,0A1.54,1.54,0,0,0,46.18,87.45Z"/><path class="cls-3" d="M227.38,0c0,2.24-.06,4.48,0,6.71a3,3,0,0,1-1,2.43q-8.58,8.5-17.1,17.07c-.27.27-.52.56-.8.81-1,.85-1.67,1.66-1.33,3.18a2.84,2.84,0,0,1-2,3.12,3.49,3.49,0,0,1-3.63-1.11,3.12,3.12,0,0,1,0-3.75,3.07,3.07,0,0,1,3.59-1.05.78.78,0,0,0,1-.25q6.26-6.27,12.54-12.49Q222,11.37,225.34,8a1.7,1.7,0,0,0,.55-.95c0-2.36,0-4.73,0-7.09ZM204.12,28.73a1.56,1.56,0,0,0-1.65,1.58A1.59,1.59,0,0,0,204.08,32a1.62,1.62,0,1,0,0-3.23Z"/><path class="cls-3" d="M99.2,0c-1.45,1.49-2.87,3-4.37,4.46-.21.21-.72.15-1.1.15q-13.53,0-27,0a1.38,1.38,0,0,0-1.47.84,3.07,3.07,0,0,1-3.7,1.44,3.39,3.39,0,0,1-2.16-3,3.29,3.29,0,0,1,2.35-3,3.06,3.06,0,0,1,3.5,1.47,1.4,1.4,0,0,0,1.48.84q13.2,0,26.38,0a2,2,0,0,0,1.68-.7C95.49,1.63,96.3.83,97.09,0ZM62.5,2.29a1.46,1.46,0,0,0-1.58,1.6A1.52,1.52,0,0,0,62.5,5.52a1.65,1.65,0,0,0,1.67-1.67A1.62,1.62,0,0,0,62.5,2.29Z"/><path class="cls-3" d="M219.89,0a11,11,0,0,1,1.2.74,3.13,3.13,0,0,1,.85,3.8,3.21,3.21,0,0,1-3.87,1.61,1.38,1.38,0,0,0-1.14.27Q211.09,12.18,205.34,18a1.28,1.28,0,0,0-.21,1,3.15,3.15,0,0,1-5.22,3.28,3.47,3.47,0,0,1-.5-3.74,3,3,0,0,1,3.67-1.44c.69.25,1,0,1.47-.47q5.91-6,11.84-11.88C215.54,2.62,216,1.43,218,.22c.07,0,.1-.15.15-.22ZM203.78,20.15a1.69,1.69,0,0,0-1.65-1.72,1.69,1.69,0,0,0,0,3.38A1.7,1.7,0,0,0,203.78,20.15Zm13.74-17a1.58,1.58,0,0,0,1.6,1.64,1.62,1.62,0,0,0,1.64-1.64,1.63,1.63,0,0,0-1.63-1.65A1.62,1.62,0,0,0,217.52,3.16Z"/><path class="cls-3" d="M50.08,0q7.41,7.43,14.83,14.84a2.34,2.34,0,0,1,.76,1.85c0,2.49,0,5,0,7.48a1,1,0,0,0,.64,1.12A3,3,0,0,1,67.93,29a3.15,3.15,0,0,1-6-.17,3.2,3.2,0,0,1,1.67-3.6,1.45,1.45,0,0,0,.6-1c0-2.42,0-4.86,0-7.29a1.88,1.88,0,0,0-.52-1.23c-4-4.1-8.13-8.15-12.18-12.22C50.34,2.36,49.26,1.17,48.16,0ZM63.31,28.06a1.64,1.64,0,1,0,3.27,0,1.64,1.64,0,0,0-3.27,0Z"/><path class="cls-3" d="M40.68,0a30.72,30.72,0,0,0,3.24,3.4,6.74,6.74,0,0,1,2.66,6.25c-.22,4.75,0,9.52-.07,14.28,0,.69.08,1.14.84,1.47a3.07,3.07,0,0,1,1.49,3.42,3.16,3.16,0,1,1-4.62-3.44A1.15,1.15,0,0,0,45,24.13c0-5.49,0-11,0-16.49a2.4,2.4,0,0,0-.82-1.89C42.34,4,40.56,2.19,38.77.41a1.31,1.31,0,0,1-.2-.41Zm5,26.47a1.61,1.61,0,0,0-1.61,1.61,1.66,1.66,0,0,0,3.31,0A1.62,1.62,0,0,0,45.72,26.47Z"/><path class="cls-3" d="M28.78,0c0,5.11,0,10.23,0,15.34,0,.69.07,1.13.85,1.46a3.07,3.07,0,0,1,1.44,3.76,3.24,3.24,0,0,1-3,2.11,3.19,3.19,0,0,1-3-2.44,3.15,3.15,0,0,1,1.58-3.46c.71-.28.72-.69.72-1.25V.76A6.51,6.51,0,0,1,27.44,0Zm-2.3,19.57a1.81,1.81,0,0,0,1.67,1.66,1.92,1.92,0,0,0,1.66-1.7,1.82,1.82,0,0,0-1.66-1.67A1.69,1.69,0,0,0,26.48,19.57Z"/><path class="cls-3" d="M124.34,0c-1.71,1.74-3.41,3.49-5.14,5.21A1.43,1.43,0,0,0,118.73,7a3,3,0,0,1-1.06,3.25,3.12,3.12,0,0,1-3.75.08,3.16,3.16,0,0,1-1.28-3.09,3.1,3.1,0,0,1,4.16-2.48,1,1,0,0,0,.84-.15c1.55-1.52,3.06-3.08,4.59-4.63Zm-8.58,9.43a1.81,1.81,0,0,0,1.65-1.66,1.78,1.78,0,0,0-1.77-1.63A1.86,1.86,0,0,0,114,7.84,1.89,1.89,0,0,0,115.76,9.43Z"/><path class="cls-3" d="M209.15,0c.36,2-.22,3.45-1.62,4a3.06,3.06,0,0,1-4.4-3.18c0-.29.05-.57.07-.86h1.73c-.08.17-.15.34-.22.52a1.65,1.65,0,0,0,.77,2.18,1.6,1.6,0,0,0,2.08-.58A1.84,1.84,0,0,0,207.42,0Z"/><path class="cls-3" d="M58.33,0a3.06,3.06,0,0,1-3.12,2.29A3.06,3.06,0,0,1,52.38,0h1.73A1.37,1.37,0,0,0,56.6,0Z"/><path class="cls-3" d="M224.51,40.38c0-2,0-3.9,0-5.85a2.54,2.54,0,0,1,.61-1.58c3.85-3.92,7.75-7.8,11.66-11.66.61-.61,1-1.06.71-2.08a3,3,0,0,1,1.78-3.51,3.32,3.32,0,0,1,3.59.8,3.29,3.29,0,0,1,.32,3.73,3,3,0,0,1-3.73,1.28.82.82,0,0,0-1.06.23c-4,4-8,8-11.91,12a2.07,2.07,0,0,0-.48,1.36q-.06,5.79,0,11.6a2.39,2.39,0,0,1-.77,1.84q-20.31,20.28-40.58,40.62Q175.2,98.6,165.71,108a.84.84,0,0,0-.26,1.1,3.07,3.07,0,0,1-2,4,3.13,3.13,0,1,1-1.85-6,3.34,3.34,0,0,1,1.88,0,1.07,1.07,0,0,0,1.31-.32Q182.85,88.76,201,70.68q11.42-11.42,22.82-22.81a2.15,2.15,0,0,0,.75-1.74C224.47,44.22,224.51,42.3,224.51,40.38Zm16-20.21a1.61,1.61,0,0,0,1.67-1.57A1.75,1.75,0,0,0,240.58,17a1.64,1.64,0,0,0-1.69,1.66A1.53,1.53,0,0,0,240.54,20.17Zm-76.43,90a1.63,1.63,0,0,0-1.58-1.68,1.67,1.67,0,0,0-1.65,1.63,1.52,1.52,0,0,0,1.62,1.61A1.44,1.44,0,0,0,164.11,110.2Z"/><path class="cls-3" d="M130.66,73.64c0-5.85,0-11.7,0-17.55,0-.73-.09-1.18-.88-1.53a3.18,3.18,0,0,1-1.39-3.72,3.24,3.24,0,0,1,3-2.08,3.12,3.12,0,0,1,3,2.33,3,3,0,0,1-1.49,3.51c-.74.31-.82.73-.82,1.38q0,17.94,0,35.88a2.47,2.47,0,0,1-.79,1.93q-13.76,13.71-27.44,27.46a2.92,2.92,0,0,1-2.28.91c-8.67,0-17.33,0-26,0-.67,0-1.14.05-1.46.85a3.14,3.14,0,0,1-5.86-1.6,3.12,3.12,0,0,1,5.9-1.39,1.05,1.05,0,0,0,1.17.72c8.7,0,17.39,0,26.09,0a2.2,2.2,0,0,0,1.4-.58q13.7-13.66,27.32-27.38a1.91,1.91,0,0,0,.47-1.24C130.67,85.54,130.66,79.59,130.66,73.64ZM71.39,119.75a1.9,1.9,0,0,0-1.67,1.67,2,2,0,0,0,1.75,1.72,1.86,1.86,0,0,0,1.63-1.7A1.79,1.79,0,0,0,71.39,119.75ZM133,51.86a1.66,1.66,0,0,0-1.61-1.65,1.72,1.72,0,0,0-1.63,1.64,1.64,1.64,0,0,0,1.67,1.68A1.62,1.62,0,0,0,133,51.86Z"/><path class="cls-3" d="M188.51,12.11a3,3,0,0,1-2.69-1.56,1.43,1.43,0,0,0-1.5-.84c-3.74,0-7.49,0-11.23,0-.94,0-1.88-.21-2.82-.22a16.62,16.62,0,0,0-2.1.22.71.71,0,0,1-.29,0c-1.25-.52-2.51.11-3.76,0-2.55-.24-5.1.11-7.65,0s-5.18-.05-7.77,0a2.1,2.1,0,0,0-1.3.58c-2.81,2.75-5.56,5.55-8.38,8.3a2.37,2.37,0,0,1-1.49.62q-19.47,0-38.95,0c-1.87,0-3.73-.14-5.6-.16a12.11,12.11,0,0,0-1.89.19.51.51,0,0,0-.37.25c-.2,1-1.08,1.19-1.75,1.61a2.67,2.67,0,0,1-3.76-.77,3.11,3.11,0,1,1,5.26-3.29,1.19,1.19,0,0,0,1.24.74l45.35,0a1.81,1.81,0,0,0,1.13-.49c2.85-2.79,5.65-5.63,8.52-8.4a2.84,2.84,0,0,1,1.74-.73c5.12-.06,10.24,0,15.35,0,.38,0,.75.18,1.12.18,1.36,0,2.72-.09,4.08-.11.82,0,1.63.06,2.45.1a15.22,15.22,0,0,0,1.78.13c1.08-.06,2.14-.28,3.22-.3,2.68,0,5.37,0,8.05,0a1.23,1.23,0,0,0,1.27-.75,3.12,3.12,0,0,1,3.36-1.58,3.42,3.42,0,0,1,2.53,3A3.39,3.39,0,0,1,189.33,12,3.93,3.93,0,0,1,188.51,12.11ZM87.79,20.16a1.58,1.58,0,0,0,1.59-1.63,1.64,1.64,0,0,0-1.66-1.62,1.69,1.69,0,0,0-1.64,1.63A1.64,1.64,0,0,0,87.79,20.16ZM190.1,9a1.64,1.64,0,0,0-3.28,0,1.71,1.71,0,0,0,1.64,1.66A1.66,1.66,0,0,0,190.1,9Z"/><path class="cls-3" d="M78.78,30.27c.45.95-.29,1-.82,1a3.8,3.8,0,0,1-2.86-2.37,3.2,3.2,0,0,1,1.46-3.47,3.25,3.25,0,0,1,3.8.5s.08,0,.08.05c0,1.81,1.71,1.3,2.64,1.83.28.16.78-.08,1.18-.1,2.31-.1,4.62-.27,6.93-.28q22.74,0,45.47,0a2.45,2.45,0,0,0,1.92-.8c2.66-2.72,5.37-5.39,8-8.09a2.13,2.13,0,0,1,1.67-.71c3.77.07,7.54.12,11.31.11,5.17,0,10.35-.07,15.53-.07.59,0,.77-.31,1-.71a3.12,3.12,0,0,1,5.8.64,3.12,3.12,0,0,1-5.29,2.92c-.05-.05-.13-.08-.14-.13-.44-1.55-1.68-1.3-2.84-1.3H160.41c-3.86,0-7.71,0-11.56,0a2.23,2.23,0,0,0-1.4.58c-2.78,2.73-5.51,5.49-8.23,8.27a2.21,2.21,0,0,1-1.77.69c-3,0-6,0-9,0H81.85c-.71,0-1.24.14-1.29,1,0,.22-.46.53-.75.6A2.88,2.88,0,0,1,78.78,30.27Zm-2.24-2.21c0,1.36.39,1.89,1.58,1.93A2.5,2.5,0,0,0,80,28.12a2.28,2.28,0,0,0-1.84-1.64A1.61,1.61,0,0,0,76.54,28.06Zm102.33-7.89a1.59,1.59,0,0,0,1.64-1.59,1.62,1.62,0,0,0-1.66-1.67,1.57,1.57,0,0,0-1.58,1.65A1.51,1.51,0,0,0,178.87,20.17Z"/><path class="cls-3" d="M121.07,78.44c0-4.25,0-8.5,0-12.76a1.45,1.45,0,0,0-.8-1.5,2.94,2.94,0,0,1-1.2-4.24,3.1,3.1,0,0,1,4.13-1.25,3.05,3.05,0,0,1,.41,5.26,2.13,2.13,0,0,0-1.06,2.12c0,8.56,0,17.13,0,25.7a2.52,2.52,0,0,1-.86,2q-9.08,9-18.11,18.09a2.18,2.18,0,0,1-1.75.72c-5.56,0-11.12,0-16.68,0a1.62,1.62,0,0,0-1.74.94,2.93,2.93,0,0,1-3.35,1.39,3.16,3.16,0,0,1-2.4-2.85,3.33,3.33,0,0,1,2.05-3.16,3,3,0,0,1,3.77,1.44,1.33,1.33,0,0,0,1.4.81c5.5,0,11,0,16.49,0a1.9,1.9,0,0,0,1.5-.59q8.74-8.79,17.48-17.57a2.53,2.53,0,0,0,.64-1.57C121.09,87.07,121.07,82.75,121.07,78.44Zm-40.18,35a1.62,1.62,0,1,0,0-3.24,1.62,1.62,0,1,0,0,3.24ZM121.8,59.86a1.59,1.59,0,0,0-1.65,1.58,1.62,1.62,0,0,0,1.59,1.67,1.68,1.68,0,0,0,1.7-1.66A1.62,1.62,0,0,0,121.8,59.86Z"/><path class="cls-3" d="M54.7,74.08c-6.33,0-12.66,0-19,0a2.36,2.36,0,0,0-1.84.78q-5.67,5.73-11.4,11.41a1.16,1.16,0,0,0-.39,1.47,3.21,3.21,0,0,1-1.58,3.73,3.37,3.37,0,0,1-4.06-1.14,3.21,3.21,0,0,1,.47-3.93,3.06,3.06,0,0,1,3.23-.79,1.36,1.36,0,0,0,1.12-.28q6.06-6,12-12a2.38,2.38,0,0,1,1.83-.77q19.62,0,39.23,0a2.16,2.16,0,0,1,1.67.69c1.7,1.75,3.47,3.44,5.16,5.21a1.23,1.23,0,0,0,1.43.38,2.9,2.9,0,0,1,3.33,1,3,3,0,0,1,.39,3.32,3.22,3.22,0,0,1-3.66,1.69,2.92,2.92,0,0,1-2.2-3.5,2,2,0,0,0-.7-2.3c-1.48-1.39-2.92-2.81-4.32-4.28a2.07,2.07,0,0,0-1.67-.69Q64.25,74.09,54.7,74.08Zm-34,14.47a1.62,1.62,0,0,0-3.21-.27,5.33,5.33,0,0,1-.56,1c-.07.13-.2.28-.17.39a.48.48,0,0,0,.35.24c.59.09,1.18.14,1.78.21A1.61,1.61,0,0,0,20.72,88.55Zm64.47-6.77a1.81,1.81,0,0,0-1.71-1.7,2,2,0,0,0-1.66,1.7,1.86,1.86,0,0,0,1.66,1.67A1.73,1.73,0,0,0,85.19,81.78Z"/><path class="cls-3" d="M154.63,77.69a3.39,3.39,0,0,1,3,2,1.14,1.14,0,0,0,.8.53c3.74,0,7.48,0,11.22,0a2.13,2.13,0,0,0,1.27-.64q16-15.93,31.93-31.88c.38-.38.67-.66.42-1.36a3.06,3.06,0,0,1,1.76-3.85A3.1,3.1,0,0,1,209,43.77a3,3,0,0,1-1,4.23,4,4,0,0,1-2.36.35,1.81,1.81,0,0,0-1.8.6q-13.53,13.57-27.1,27.12c-1.67,1.68-3.36,3.33-5,5a2,2,0,0,1-1.59.65c-3.81,0-7.61,0-11.42,0a1.34,1.34,0,0,0-1.36.75A3,3,0,0,1,154,83.91a3.16,3.16,0,0,1-.15-6.12A4.82,4.82,0,0,1,154.63,77.69ZM207.87,45.4a1.53,1.53,0,0,0-1.55-1.65,1.68,1.68,0,0,0-1.7,1.65A1.63,1.63,0,0,0,206.26,47,1.53,1.53,0,0,0,207.87,45.4Zm-54.8,35.4a1.47,1.47,0,0,0,1.55,1.63,1.54,1.54,0,0,0,1.68-1.56,1.65,1.65,0,0,0-1.6-1.68A1.59,1.59,0,0,0,153.07,80.8Z"/><path class="cls-3" d="M54.68,65.81c4.1,0,8.19,0,12.28,0a2.07,2.07,0,0,0,1.68-.69c1.56-1.64,3.22-3.2,4.83-4.8a1,1,0,0,0,.31-1.22,3.14,3.14,0,0,1,5.69-2.58,3,3,0,0,1-1.19,4.18A8.58,8.58,0,0,1,75.7,61a2.12,2.12,0,0,0-1.13.33c-1.75,1.68-3.47,3.4-5.16,5.14a2.51,2.51,0,0,1-2,.86q-12.76,0-25.52,0a2.27,2.27,0,0,1-1.76-.75c-3.89-3.92-7.82-7.8-11.7-11.75a2,2,0,0,0-2.16-.65,3,3,0,0,1-3.49-2.08,3.15,3.15,0,0,1,1.64-3.77,3.1,3.1,0,0,1,3.39.46c1.17,1,1.09,2.19.94,3.49a1.51,1.51,0,0,0,.25,1q6,6,12,12a2,2,0,0,0,1.28.43c4.12,0,8.25,0,12.37,0ZM24.15,51.13a1.64,1.64,0,0,0,1.56,1.69,1.68,1.68,0,0,0,1.68-1.67,1.62,1.62,0,1,0-3.24,0ZM78.33,58a1.49,1.49,0,0,0-1.6-1.59,1.63,1.63,0,1,0,0,3.26A1.55,1.55,0,0,0,78.33,58Z"/><path class="cls-3" d="M157.88,68.56c4,0,8,0,12,0a1.62,1.62,0,0,0,1-.45Q184.05,55,197.2,41.8a1,1,0,0,0,.31-1.14,3.29,3.29,0,0,1,1.27-3.79,3.36,3.36,0,0,1,3.76.33,3.24,3.24,0,0,1,.63,3.94,3.14,3.14,0,0,1-3.71,1.39,1.09,1.09,0,0,0-1.3.36q-13.31,13.3-26.61,26.58a2.49,2.49,0,0,1-1.59.62c-3.77,0-7.55,0-11.32,0a1.37,1.37,0,0,0-1.37.76,3,3,0,0,1-3.37,1.37,3.15,3.15,0,0,1-2.38-2.79,3.37,3.37,0,0,1,1.8-3.12,3.28,3.28,0,0,1,3.91,1.1C157.45,67.76,157.63,68.13,157.88,68.56ZM200.46,38a1.56,1.56,0,0,0-1.65,1.59,1.59,1.59,0,0,0,1.62,1.62,1.57,1.57,0,0,0,1.64-1.6A1.5,1.5,0,0,0,200.46,38ZM154.71,70.81a1.62,1.62,0,1,0-.09-3.24,1.49,1.49,0,0,0-1.55,1.67A1.47,1.47,0,0,0,154.71,70.81Z"/><path class="cls-3" d="M54.4,114.76c0,1.92,0,3.84,0,5.76a2,2,0,0,0,.53,1.24c3.94,4,7.91,7.94,11.86,11.91a.83.83,0,0,0,1.06.23,3.13,3.13,0,0,1,4,1.78,3.18,3.18,0,0,1-1.76,4.06,3.09,3.09,0,0,1-3.31-.58,3,3,0,0,1-.83-3.33.93.93,0,0,0-.3-1.2c-4-4-8-8-12-12a2.3,2.3,0,0,1-.78-1.81q.06-6,0-12.09a2.36,2.36,0,0,1,.75-1.84c4-4,8-8,11.95-11.91a1.3,1.3,0,0,0,.42-1.58,3.08,3.08,0,0,1,1.31-3.5,3.27,3.27,0,0,1,3.81.38A3.23,3.23,0,0,1,71.88,94a3,3,0,0,1-3.34,1.65,2,2,0,0,0-2.22.7c-3.75,3.8-7.55,7.55-11.29,11.37a2.46,2.46,0,0,0-.61,1.48C54.35,111.05,54.4,112.91,54.4,114.76ZM69,94.29a1.92,1.92,0,0,0,1.73-1.61A1.81,1.81,0,0,0,69.06,91a1.74,1.74,0,0,0-1.7,1.68A1.81,1.81,0,0,0,69,94.29Zm-1.68,42.49a1.57,1.57,0,0,0,1.55,1.68,1.63,1.63,0,0,0,1.68-1.59,1.54,1.54,0,0,0-1.6-1.64A1.45,1.45,0,0,0,67.33,136.78Z"/><path class="cls-3" d="M93.34,103c-2.87,0-5.75,0-8.63,0a1,1,0,0,0-1.1.66,3.09,3.09,0,0,1-3.71,1.59,3.32,3.32,0,0,1-2.18-3.44,3.23,3.23,0,0,1,2.89-2.73,2.93,2.93,0,0,1,3,1.66,1.3,1.3,0,0,0,1.34.8c5.5,0,11,0,16.5,0a2.28,2.28,0,0,0,1.42-.58q4-3.94,8-8a2.29,2.29,0,0,0,.59-1.4c0-5.5,0-11,0-16.5a1.23,1.23,0,0,0-.77-1.26,3.05,3.05,0,0,1-1.56-3.38,3.14,3.14,0,0,1,3.1-2.47,3.06,3.06,0,0,1,2.92,2.17,3,3,0,0,1-1.43,3.65,1.44,1.44,0,0,0-.86,1.5c0,5.59,0,11.19,0,16.79a2.27,2.27,0,0,1-.72,1.75q-4.29,4.24-8.55,8.52a2.21,2.21,0,0,1-1.75.74C99,103,96.19,103,93.34,103Zm18.9-30.33A1.79,1.79,0,0,0,113.89,71a1.89,1.89,0,0,0-1.7-1.63,1.73,1.73,0,0,0-1.66,1.73A1.7,1.7,0,0,0,112.24,72.7ZM82.51,102.29a1.64,1.64,0,0,0-1.61-1.65,1.65,1.65,0,0,0-1.7,1.57,1.7,1.7,0,0,0,1.61,1.69A1.67,1.67,0,0,0,82.51,102.29Z"/><path class="cls-3" d="M116.82,121.22c-1-2-.63-3.63,1.08-4.65a3.33,3.33,0,0,1,3.57.41,3.14,3.14,0,0,1-2.51,5.45,1.51,1.51,0,0,0-1.66.49c-2.7,2.76-5.45,5.47-8.16,8.21a2.29,2.29,0,0,1-1.77.7q-8.62,0-17.27,0a2.2,2.2,0,0,0-1.4.56c-2.63,2.57-5.21,5.19-7.82,7.78a1.14,1.14,0,0,0-.38,1.38,3.29,3.29,0,0,1-.7,3.19c0-.33,0-.68,0-.68-1.24,0-.66-.77-.6-1.35A1.51,1.51,0,0,0,77.68,141a1.46,1.46,0,0,0-1.74,1.54,1.57,1.57,0,0,0,1.65,1.69,6,6,0,0,0,.85-.13l.59,1.24c0-.17,0-.06,0-.06-1.16-.08-2.41.73-3.48-.24A3.07,3.07,0,0,1,74.48,142,3,3,0,0,1,77,139.5a2.1,2.1,0,0,1,1.22,0c.75.37,1.19,0,1.69-.46,2.71-2.74,5.42-5.49,8.18-8.18a2.36,2.36,0,0,1,1.52-.55c5.72,0,11.45,0,17.17,0a2.23,2.23,0,0,0,1.76-.72C111.25,126.8,114,124,116.82,121.22Zm2.51-.29a1.47,1.47,0,0,0,1.64-1.54,1.52,1.52,0,0,0-1.54-1.69,1.65,1.65,0,0,0-1.7,1.59A1.6,1.6,0,0,0,119.33,120.93Z"/><path class="cls-3" d="M189.41,23.73a3.24,3.24,0,0,1-1.38-5.5,3.21,3.21,0,0,1,4.58.44,3.08,3.08,0,0,1-.73,4.44,1.88,1.88,0,0,0-1,1.92c.05,3.61,0,7.22,0,10.84a2.59,2.59,0,0,1-.84,2q-9.51,9.47-19,19a1.28,1.28,0,0,0-.45,1.6A3.06,3.06,0,0,1,169.17,62a3.31,3.31,0,0,1-3.79-.64,3.39,3.39,0,0,1-.43-3.73,3.07,3.07,0,0,1,3.62-1.4A1.13,1.13,0,0,0,170,55.9q9.48-9.54,19-19a1.51,1.51,0,0,0,.43-1C189.42,31.86,189.41,27.83,189.41,23.73ZM169.28,59.27a1.64,1.64,0,0,0-1.55-1.69A1.68,1.68,0,0,0,166,59.26a1.7,1.7,0,0,0,1.62,1.64A1.6,1.6,0,0,0,169.28,59.27ZM190.12,19a1.59,1.59,0,0,0-1.65,1.61,1.64,1.64,0,0,0,1.63,1.63,1.52,1.52,0,0,0,1.61-1.62A1.48,1.48,0,0,0,190.12,19Z"/><path class="cls-3" d="M123.45,111.58a3.06,3.06,0,0,1,4-2.94,1.16,1.16,0,0,0,1.4-.39L145.7,91.34c.8-.8,1.57-1.65,2.42-2.39a2.37,2.37,0,0,1,1.42-.57c4,0,7.93,0,11.89,0a.89.89,0,0,0,1-.63,3.13,3.13,0,0,1,3.26-1.68,3.18,3.18,0,0,1,2.65,2.63,3.16,3.16,0,0,1-6,1.74,1.21,1.21,0,0,0-.86-.6c-3.8,0-7.61,0-11.41,0a1.57,1.57,0,0,0-1,.43c-6.43,6.38-12.85,12.79-19.29,19.16-.47.46-.33.9-.23,1.38a3,3,0,0,1-1.12,3.29,3,3,0,0,1-3.25.33A2.89,2.89,0,0,1,123.45,111.58Zm41.74-20.76a1.81,1.81,0,0,0,1.72-1.61,1.78,1.78,0,0,0-1.6-1.71,1.81,1.81,0,0,0-1.79,1.64A1.86,1.86,0,0,0,165.19,90.82Zm-36.95,20.82a1.78,1.78,0,0,0-1.62-1.69,1.68,1.68,0,0,0-1.71,1.56,1.74,1.74,0,0,0,1.63,1.77A1.84,1.84,0,0,0,128.24,111.64Z"/><path class="cls-3" d="M54.68,80.85c-4.13,0-8.25,0-12.37,0a2.47,2.47,0,0,0-1.47.63c-1.67,1.58-3.28,3.23-4.92,4.85a1,1,0,0,0-.3,1.15,3.13,3.13,0,1,1-5.56-.67,3,3,0,0,1,3.42-1.24,1.27,1.27,0,0,0,1.57-.42c1.74-1.76,3.48-3.52,5.26-5.24a2,2,0,0,1,1.23-.51q13.18,0,26.37,0a1.94,1.94,0,0,1,1.21.53q2.75,2.63,5.4,5.33a1,1,0,0,0,1.23.32,3.06,3.06,0,0,1,4,2,3.15,3.15,0,0,1-6,2,8.48,8.48,0,0,1,0-2.26,1.74,1.74,0,0,0-.23-1c-1.65-1.71-3.32-3.39-5-5a2.16,2.16,0,0,0-1.35-.5C63,80.84,58.83,80.85,54.68,80.85ZM31.06,88.63a1.62,1.62,0,0,0,1.63,1.61,1.66,1.66,0,0,0,0-3.31A1.61,1.61,0,0,0,31.06,88.63Zm47.25,0a1.57,1.57,0,0,0-1.57-1.67,1.65,1.65,0,0,0-1.64,1.62,1.73,1.73,0,0,0,1.59,1.69A1.62,1.62,0,0,0,78.31,88.59Z"/><path class="cls-3" d="M114,38.68c0,4.12,0,8.21,0,12.3a2.25,2.25,0,0,1-.69,1.77l-18.11,18c-.2.2-.4.4-.61.59a2,2,0,0,0-.83,2.32,3,3,0,0,1-2.59,3.67,3.21,3.21,0,0,1-3.6-2.68,3.14,3.14,0,0,1,3.87-3.45,1.52,1.52,0,0,0,1.75-.45c6.24-6.3,12.52-12.56,18.76-18.86a2.15,2.15,0,0,0,.55-1.32c0-3.67,0-7.35,0-11,0-.52,0-.87-.69-1.14a3.08,3.08,0,0,1-1.7-3.73,3.17,3.17,0,0,1,3.67-2.18A3.13,3.13,0,0,1,116.26,36,3.21,3.21,0,0,1,114,38.68ZM90.65,76a1.79,1.79,0,0,0,1.71-1.6,1.84,1.84,0,0,0-1.63-1.78,1.82,1.82,0,0,0-1.66,1.66A1.79,1.79,0,0,0,90.65,76Zm22.51-42a1.64,1.64,0,1,0,0,3.27,1.67,1.67,0,0,0,1.61-1.65A1.7,1.7,0,0,0,113.16,34Z"/><path class="cls-3" d="M260.11,24.15c-.16,0-.35.06-.47,0-1.07-.63-1.66.09-2.32.75q-8.26,8.3-16.56,16.56a1.52,1.52,0,0,0-.51,1.8,3.11,3.11,0,0,1-1.51,3.33,3.33,3.33,0,0,1-3.8-.57,3.28,3.28,0,0,1-.53-3.65,2.83,2.83,0,0,1,3.35-1.55c1.31.5,1.87-.27,2.6-1q8.25-8.3,16.55-16.56a1.05,1.05,0,0,0,.3-1.26,3.11,3.11,0,0,1,4.88-3.46,3.3,3.3,0,0,1,1,3.62A3.12,3.12,0,0,1,260.11,24.15Zm-22.88,18a1.92,1.92,0,0,0-1.73,1.62,1.8,1.8,0,0,0,1.68,1.72,1.73,1.73,0,0,0,1.7-1.67A1.83,1.83,0,0,0,237.23,42.13Zm22.92-22.76A1.76,1.76,0,0,0,258.47,21a1.74,1.74,0,0,0,1.71,1.68A1.87,1.87,0,0,0,261.85,21,1.91,1.91,0,0,0,260.15,19.37Z"/><path class="cls-3" d="M258.3,33.53,245.75,46.12c-1.73,1.74-3.47,3.49-5.22,5.21a1.1,1.1,0,0,0-.35,1.34,3.16,3.16,0,0,1-1.4,3.64,3.47,3.47,0,0,1-3.83-.55,3.34,3.34,0,0,1-.47-3.81,3,3,0,0,1,3.62-1.39,1.25,1.25,0,0,0,1.48-.42c5.77-5.8,11.58-11.57,17.35-17.37a1.29,1.29,0,0,0,.24-1.06,3.22,3.22,0,0,1,2.11-4,3.17,3.17,0,0,1,4,2.6,3.14,3.14,0,0,1-2.77,3.59A10.06,10.06,0,0,1,258.3,33.53Zm-21.11,18.3a1.7,1.7,0,1,0,0,3.39,1.85,1.85,0,0,0,1.65-1.68A1.8,1.8,0,0,0,237.19,51.83Zm23-19.5a1.74,1.74,0,0,0,1.69-1.6,1.88,1.88,0,0,0-1.67-1.65,1.74,1.74,0,0,0-1.71,1.68A1.64,1.64,0,0,0,260.16,32.33Z"/><path class="cls-3" d="M260.14,14.4h-.09c-1.5-.72-2.23.42-3.07,1.26q-8.27,8.3-16.53,16.6a1.19,1.19,0,0,0-.24,1,3.19,3.19,0,0,1-2.07,3.88,3.27,3.27,0,0,1-3.8-1.63,3.1,3.1,0,0,1,1.56-4.17,4.42,4.42,0,0,1,2.5-.06,1.1,1.1,0,0,0,1.24-.28c5.78-5.79,11.57-11.56,17.32-17.37a1.55,1.55,0,0,0,.23-1.25,3.08,3.08,0,0,1,1.45-3.75,3,3,0,0,1,4,.86,2.94,2.94,0,0,1,.28,3.31A2.78,2.78,0,0,1,260.14,14.4ZM237.22,35.71a1.66,1.66,0,0,0,1.66-1.6,1.69,1.69,0,0,0-1.65-1.64,1.76,1.76,0,0,0-1.73,1.67A1.72,1.72,0,0,0,237.22,35.71Zm22.93-26a1.66,1.66,0,0,0-1.68,1.59A1.7,1.7,0,0,0,260.1,13a1.82,1.82,0,0,0,1.75-1.66A1.73,1.73,0,0,0,260.15,9.71Z"/><path class="cls-3" d="M257.86,40.59c-.93.11-.88-.47-.82-1a3.11,3.11,0,0,1,3.55-2.68c1.16.23,3.29,2.6,2.46,4.15a11.24,11.24,0,0,1-1.32,1.46c-.52.66-1.07.53-1.78.34a1.94,1.94,0,0,0-1.5.26,28,28,0,0,0-3.2,2.75c-1.79,1.81-3.46,3.74-5.23,5.56-3.16,3.24-6.38,6.42-9.54,9.66a1.38,1.38,0,0,0-.29,1.14,3.24,3.24,0,0,1-1.36,3.73,3.15,3.15,0,0,1-4.4-4.21A3.17,3.17,0,0,1,238,60.22a1.22,1.22,0,0,0,1.47-.4Q245.42,53.9,251.37,48c.42-.42,1-.73,1.38-1.16.63-.64,1.17-1.36,1.79-2s1.6-1.51,2.3-2.35A10.08,10.08,0,0,0,257.86,40.59Zm.61-.59c0,1.29.48,1.69,2.08,1.68.62,0,1.31-.91,1.3-1.72a1.87,1.87,0,0,0-1.69-1.64A1.63,1.63,0,0,0,258.47,40Zm-21.3,24.89a1.65,1.65,0,1,0,.11-3.3,1.77,1.77,0,0,0-1.78,1.63A1.86,1.86,0,0,0,237.17,64.89Z"/><path class="cls-3" d="M139.85,64.61c0,5.74,0,11.43,0,17.12,0,.64.38.8.79,1a3.11,3.11,0,0,1,1.51,3.57,3.41,3.41,0,0,1-3.28,2.28,3.35,3.35,0,0,1-2.91-2.6,3,3,0,0,1,1.52-3.19,1.52,1.52,0,0,0,.89-1.58q0-7.75,0-15.52a1.47,1.47,0,0,0-.84-1.58A3,3,0,0,1,136,60.86a3.16,3.16,0,0,1,2.81-2.48,3.06,3.06,0,0,1,3.24,2C142.68,62,141.85,63.64,139.85,64.61Zm.86-3.13a1.62,1.62,0,0,0-1.61-1.62,1.58,1.58,0,0,0-1.68,1.63,1.64,1.64,0,0,0,1.65,1.62A1.69,1.69,0,0,0,140.71,61.48Zm0,23.94A1.72,1.72,0,0,0,139,83.8a1.65,1.65,0,0,0,.07,3.3A1.64,1.64,0,0,0,140.71,85.42Z"/><path class="cls-3" d="M256.42,83A3.07,3.07,0,0,1,255,77.15,1,1,0,0,0,255.7,76q0-8.15,0-16.29a1,1,0,0,0-.69-1.08,3.15,3.15,0,0,1-1.66-3.35,3.19,3.19,0,0,1,6.2-.16A3.13,3.13,0,0,1,258,58.64a1.08,1.08,0,0,0-.75,1.23q0,8.06,0,16.1c0,.5,0,.89.59,1.15A3.07,3.07,0,0,1,256.42,83Zm.06-25.43A1.68,1.68,0,0,0,258.13,56a1.77,1.77,0,0,0-1.71-1.69,1.73,1.73,0,0,0-1.58,1.6A1.61,1.61,0,0,0,256.48,57.56Zm0,20.72a1.59,1.59,0,0,0-1.6,1.62,1.67,1.67,0,0,0,1.62,1.65,1.75,1.75,0,0,0,1.68-1.61A1.67,1.67,0,0,0,256.44,78.28Z"/><path class="cls-3" d="M35.11,38.41A3,3,0,0,1,37,35.5a2.93,2.93,0,0,1,3.29.56,2.81,2.81,0,0,1,.88,3.36.87.87,0,0,0,.26,1.13c3.88,3.87,7.74,7.77,11.64,11.63a1.28,1.28,0,0,0,1,.21c1.44-.29,2.71-.17,3.65,1.13a3.21,3.21,0,0,1-.14,3.89,3.31,3.31,0,0,1-3.93.7,3.14,3.14,0,0,1-1.43-3.62,1.2,1.2,0,0,0-.4-1.48q-5.69-5.64-11.35-11.32a1,1,0,0,0-1.22-.34A3.11,3.11,0,0,1,35.11,38.41ZM56.87,55.33a1.82,1.82,0,0,0-1.68-1.65,1.74,1.74,0,0,0-1.66,1.74A1.67,1.67,0,0,0,55.23,57,1.74,1.74,0,0,0,56.87,55.33ZM38.27,36.79a1.61,1.61,0,0,0-1.69,1.56A1.64,1.64,0,0,0,38.2,40a1.6,1.6,0,0,0,1.67-1.6A1.57,1.57,0,0,0,38.27,36.79Z"/><path class="cls-3" d="M39.72,54.53a.89.89,0,0,1,0-.5c.62-1-.09-1.55-.69-2.15L28.2,41a1.12,1.12,0,0,0-1.4-.33,3,3,0,0,1-3.88-2.08,3.1,3.1,0,0,1,2.16-4,3,3,0,0,1,3.72,2.11,5.28,5.28,0,0,1,0,1.86A1.32,1.32,0,0,0,29.17,40Q34.88,45.6,40.52,51.3a1.23,1.23,0,0,0,1.49.39,3.11,3.11,0,0,1,3.36,4.87,3.23,3.23,0,0,1-3.69,1A3.1,3.1,0,0,1,39.72,54.53ZM25.85,39.35a1.87,1.87,0,0,0,1.73-1.59A1.86,1.86,0,0,0,26,36.06,1.79,1.79,0,0,0,24.2,37.7,1.77,1.77,0,0,0,25.85,39.35ZM44.47,54.72a1.64,1.64,0,1,0-3.28-.06,1.82,1.82,0,0,0,1.62,1.69A1.77,1.77,0,0,0,44.47,54.72Z"/><path class="cls-3" d="M104.48,46.07a1.22,1.22,0,0,1-.47,0c-1.14-.52-1.76.21-2.47.92Q96.29,52.29,91,57.55a1.42,1.42,0,0,0-.45,1.67A3.06,3.06,0,0,1,88.15,63a3.17,3.17,0,0,1-3.77-2.74,3.06,3.06,0,0,1,2.84-3.39,1.92,1.92,0,0,1,.76,0c1.1.46,1.7-.18,2.39-.89Q95.64,50.7,101,45.45a1.34,1.34,0,0,0,.45-1.71,3.11,3.11,0,0,1,1.26-3.35,3.36,3.36,0,0,1,3.69.1,3.18,3.18,0,0,1,1.15,3.31A3,3,0,0,1,104.48,46.07Zm-17,15.52a1.69,1.69,0,0,0,1.72-1.65,1.75,1.75,0,0,0-1.71-1.6A1.82,1.82,0,0,0,85.8,60,1.73,1.73,0,0,0,87.48,61.59Zm17-20.19a1.61,1.61,0,0,0-1.68,1.54,1.66,1.66,0,1,0,3.31.06A1.61,1.61,0,0,0,104.5,41.4Z"/><path class="cls-3" d="M158.35,43a2.94,2.94,0,0,1-2.13,3,3,3,0,0,1-3.74-1.67,1,1,0,0,0-1-.61c-5.44,0-10.88,0-16.31,0-.46,0-.81,0-1,.57A3.12,3.12,0,0,1,130.36,46a3.32,3.32,0,0,1-2.22-3,3.13,3.13,0,0,1,2.42-3,3,3,0,0,1,3.52,1.63,1,1,0,0,0,1.07.69c5.44,0,10.88,0,16.31,0a1.44,1.44,0,0,0,1-.63A3.13,3.13,0,0,1,156,40,3,3,0,0,1,158.35,43Zm-27-1.57a1.7,1.7,0,0,0-1.74,1.53,1.79,1.79,0,0,0,1.68,1.71A1.71,1.71,0,0,0,133,43,1.67,1.67,0,0,0,131.33,41.4Zm23.9,0A1.46,1.46,0,0,0,153.67,43a1.56,1.56,0,0,0,1.64,1.6A1.62,1.62,0,0,0,156.9,43,1.55,1.55,0,0,0,155.23,41.4Z"/><path class="cls-3" d="M167.48,34A3.14,3.14,0,0,1,165,37a2.94,2.94,0,0,1-3.34-1.43,1.58,1.58,0,0,0-1.72-.95c-5.18,0-10.36,0-15.53,0a1.25,1.25,0,0,0-1.34.76,3.08,3.08,0,0,1-3.14,1.68,3.15,3.15,0,0,1-2.65-2.4,3.06,3.06,0,0,1,1.31-3.33,3.11,3.11,0,0,1,4.48,1.16,1.23,1.23,0,0,0,1.27.71c5.26,0,10.53,0,15.8,0a1.42,1.42,0,0,0,1.5-.85,2.94,2.94,0,0,1,3.42-1.43A3.11,3.11,0,0,1,167.48,34Zm-28.77,0a1.7,1.7,0,0,0,1.62,1.67,1.7,1.7,0,0,0,0-3.39A1.69,1.69,0,0,0,138.71,34ZM166,34a1.82,1.82,0,0,0-1.6-1.71,1.7,1.7,0,0,0,0,3.39A1.82,1.82,0,0,0,166,34Z"/><path class="cls-3" d="M182.88,35.18a2.65,2.65,0,0,1-.74-.06c-1.16-.66-1.72.24-2.37.89-3.53,3.54-7,7.09-10.61,10.59a1.45,1.45,0,0,0-.44,1.67,3,3,0,0,1-1.45,3.51,3.11,3.11,0,0,1-4-.86,3,3,0,0,1-.26-3.41,2.62,2.62,0,0,1,3-1.5c1.32.35,2-.26,2.79-1.08,3.5-3.57,7.07-7.08,10.61-10.6a1,1,0,0,0,.31-1.23,3.11,3.11,0,0,1,2-4A3.13,3.13,0,0,1,183.92,35,4.63,4.63,0,0,1,182.88,35.18ZM165.76,50.66A1.78,1.78,0,0,0,167.44,49a1.8,1.8,0,0,0-1.69-1.64,1.71,1.71,0,0,0-1.69,1.69A1.66,1.66,0,0,0,165.76,50.66ZM182.7,30.47a1.61,1.61,0,1,0,0,3.22,1.5,1.5,0,0,0,1.61-1.62A1.48,1.48,0,0,0,182.7,30.47Z"/><path class="cls-3" d="M84.74,46.08A2.71,2.71,0,0,1,82,44.46a1.19,1.19,0,0,0-1.33-.73q-5.61,0-11.22,0a8.32,8.32,0,0,1-1.29-.23,2.74,2.74,0,0,0-.74-.1c-1.06.09-2.12.28-3.17.28-.58,0-.78.13-.88.69-.26,1.34-2.33,2.06-3.56,1.46-1-.48-1.81-.92-2.11-2.06a3.17,3.17,0,0,1,1.59-3.54,3.25,3.25,0,0,1,3.91.74.3.3,0,0,1,.08.17c0,1.25.81,1.16,1.78,1.14,4.15-.08,8.3,0,12.46,0,.67,0,1.34,0,2,0,1.19.06,2.18.07,2.88-1.31s2.48-1.39,3.85-.69a3.11,3.11,0,0,1,1.51,3.5A3,3,0,0,1,84.74,46.08ZM59.2,43c0,1,.67,1.83,1.43,1.8a2.22,2.22,0,0,0,2-2.07c0-.69-.83-1.58-1.44-1.55A1.86,1.86,0,0,0,59.2,43Zm27.18,0a1.43,1.43,0,0,0-1.62-1.57A1.54,1.54,0,0,0,83.14,43a1.63,1.63,0,0,0,1.65,1.62A1.59,1.59,0,0,0,86.38,43Z"/><path class="cls-3" d="M46,101.51c-2.05-1-2.7-2.13-2.29-4.07a3,3,0,0,1,3-2.22,3.12,3.12,0,0,1,3.08,2.48c.31,1.61-.5,2.94-2.32,3.76v5.61c0,3.77,0,7.54,0,11.3a1.13,1.13,0,0,0,.7,1.19,3.07,3.07,0,0,1,1.64,3.35,3.33,3.33,0,0,1-2.45,2.53A3.24,3.24,0,0,1,44,123.89a3,3,0,0,1,1-4.16,1.74,1.74,0,0,0,1-1.87c0-5.11,0-10.22,0-15.33Zm.7-4.81A1.71,1.71,0,0,0,45,98.3,1.75,1.75,0,0,0,46.65,100a1.64,1.64,0,1,0,.07-3.27ZM46.57,124a1.74,1.74,0,0,0,1.78-1.38,1.68,1.68,0,0,0-1.53-1.91,1.65,1.65,0,1,0-.25,3.29Z"/></g></g></g></svg>