<svg xmlns="http://www.w3.org/2000/svg" viewBox="0 0 41.55 39.9"><defs><style>.cls-1{fill:#f7f7f7;fill-rule:evenodd;}</style></defs><title>Ресурс 3</title><g id="Слой_2" data-name="Слой 2"><g id="сайт"><path class="cls-1" d="M4.07,15.33c-.28.23-.48.52-.73.56a2.08,2.08,0,0,1-.87-.19c-.2.77-.49,1.43-1.49,1.47.13-.28.26-.53.35-.79a1.34,1.34,0,0,0,0-.49c0-.37,0-.6.47-.44l.23-1h-.9l-.12-.24c-.35-.67-.33-.72.38-.93.08,0,.13-.15.2-.22s.24-.32.37-.32a.63.63,0,0,1,.47.25.66.66,0,0,1-.12.51c-.19.27-.21.25-.06.7a.6.6,0,0,1,.75.52c0,.13.23.21.37.29S3.82,15.2,4.07,15.33Z"/><path class="cls-1" d="M21.79,1l.29.55.42-.07c0,.38-.09.73-.13,1.13l-.81-.49c0-.07,0-.18,0-.27-.71-.31-1.3.26-2,.29.05-.18.06-.4.11-.42.41-.07.4-.41.5-.68A.73.73,0,0,1,21,.46a2.94,2.94,0,0,1,.65.16c.07,0,.1.18.15.27Z"/><path class="cls-1" d="M27.13.94c.09-.11.21-.27.35-.42A1.81,1.81,0,0,1,28,.09c.22-.11.51-.21.45.27,0,.11.17.26.28.37.29.26.44.69.2.89a1.06,1.06,0,0,1-.85.22C27.7,1.7,27.22,1.58,27.13.94Z"/><path class="cls-1" d="M23.15,3.23c-.32-.27-.75-.54-.5-1a3.71,3.71,0,0,1,.82-.81,4.74,4.74,0,0,0,.5.38c.54.3.57.73,0,1.05A7.26,7.26,0,0,1,23.15,3.23Z"/><path class="cls-1" d="M14.45,2.88c.06-.36.37-.73.61-.66a.79.79,0,0,1,.46.45c.08.23-.31.62-.54.56A2.43,2.43,0,0,1,14.45,2.88Z"/><path class="cls-1" d="M26.64,3.06c0,.28.06.51.06.75a.39.39,0,0,1-.18.28c-.07,0-.21,0-.3-.1A1.77,1.77,0,0,1,26,3.78c-.06-.29-.11-.51-.18-.78Z"/><path class="cls-1" d="M10.46,6.17c0-.4.29-.44.48-.41a.66.66,0,0,1,.45.41c.06.34-.23.48-.53.48S10.47,6.4,10.46,6.17Z"/><path class="cls-1" d="M28.16,6.23c-.31,0-.51.06-.71,0s-.16-.18-.14-.21a.4.4,0,0,0-.1-.59s0-.19.09-.38Z"/><path class="cls-1" d="M.57,18.18c-.39,0-.56-.11-.57-.42s.22-.36.41-.3a.76.76,0,0,1,.41.4C.86,17.93.63,18.11.57,18.18Z"/><path class="cls-1" d="M11.79,4.21a1.71,1.71,0,0,1-.52.3c-.07,0-.2-.21-.3-.34.14-.09.27-.24.43-.27s.25.09.38.14A1,1,0,0,1,11.79,4.21Z"/><path class="cls-1" d="M12,3.44c.2-.19.32-.52.64-.32.08,0,.1.35,0,.46C12.38,4,12.21,3.62,12,3.44Z"/><path class="cls-1" d="M27.69,3.21c-.13.23-.29.45-.6.29-.08,0-.09-.23-.13-.35l.7-.12Z"/><path class="cls-1" d="M3.21,14.67c.21-.5.35-.53.72-.17Z"/><path class="cls-1" d="M8.32,5.2c-.06-.14-.13-.23-.1-.27a3.8,3.8,0,0,1,.33-.37c0,.06.16.17.15.19A5.73,5.73,0,0,1,8.32,5.2Z"/><path class="cls-1" d="M25.9,5.4c0,.19,0,.38.08.65l.36-.17.78.56c-.08.25-.16.52-.26.85h.67l-.13.43.71-.37s0-.1-.05-.14l-.38-.07c0-.13-.06-.27-.09-.36.39-.16.73-.32,1.08-.44a1.87,1.87,0,0,1,.41,0,1.61,1.61,0,0,0,.37-.07c.11,0,.21-.11.32-.14.42-.09.84-.17,1,.42,0,0,.12,0,.2.09A.76.76,0,0,0,31,6.53a2.58,2.58,0,0,1,.19-.37s.19,0,.2.09.09.47,0,.52c-.23.14-.22.31-.22.53s-.12.15-.11.14c.06.29.11.51.16.77A3.06,3.06,0,0,0,32,7.77a.43.43,0,0,1,.69,0c.22.24,0,.46-.21.6,0,0,0,0,0,.08a.27.27,0,0,0,0,.11c.43.45.42.61-.14.89A.55.55,0,0,0,32,10c0,.26.11.36.35.35l.76,0a.77.77,0,0,0,.42,1c.26.12.26-.09.27-.27s-.09-.57.3-.62a.47.47,0,0,1,.39.11c.05.07,0,.25-.08.38s-.08.08-.1.12a2.78,2.78,0,0,1-.17.51,2.5,2.5,0,0,1-.43.39c.21,0,.4.16.47.11a.57.57,0,0,0,.19-.43.69.69,0,0,1,.33-.71c.07,0,.06-.3,0-.42s-.24-.4,0-.64.47-.12.7,0,.36.22.22.51c0,.08.18.28.3.45-.05.12-.12.31-.15.39-.21.18-.35.32-.5.44a1.78,1.78,0,0,1-.36.25l-.32.21c.12.12.23.34.36.35s.42.11.36.37-.18.26-.28.38l-.11-.05c0,.06,0,.15.08.17.35.16.24.42.06.57-.35.27-.22.47.1.83,0-.24.06-.39.08-.53.1-.47.07-1.06.34-1.37a1.28,1.28,0,0,0,.41-.94c0-.07.08-.15.13-.21l.65-.82a1.67,1.67,0,0,1,.22.23c.14.16.24.46.48,0,.07.24.11.4.17.62L37,11.65c.15.36.24.65.38.92s.12.29-.2.45a1.35,1.35,0,0,0-.58.69c-.19.52-.41.89-1.06.79,0,.23,0,.42,0,.61s0,.45-.34.47c-.1,0-.2.3-.28.47s.1.19.12.18a1.39,1.39,0,0,0,.44-.17,5.19,5.19,0,0,0,.46-.36c.08.15.16.3.23.45a1.79,1.79,0,0,1,.09.19c-.23.22-.48.44-.69.68a.39.39,0,0,0,0,.3c.07.16.17.31.26.48.44-.05.52-.42.64-.75.29-.12.64.35.87-.05.05-.1-.12-.32-.19-.5.37-.41.5-.42,1-.05a1.51,1.51,0,0,0,.28.15c.25.1.52.18.29.55a.88.88,0,0,0,0,.46c0,.21,0,.41.07.65.39.12.55,0,.76-.33a2.8,2.8,0,0,1,.53-.66c0-.05.21,0,.3,0a1.56,1.56,0,0,1,.41.2c.1.09.25.23.23.34a.65.65,0,0,1-.24.46c-.4.18-.87.26-1,.8a.13.13,0,0,1,0,.07c-.57.11-.43.64-.59,1-.27.59-.62,1.15-.91,1.73-.12.22-.11.53-.47.47a3.54,3.54,0,0,1-.73-.18c-.32-.14-.4-.1-.4.24a.69.69,0,0,1,0,.29c-.19.39-.2.39.19.89,0-.38.09-.68.11-.86a3.2,3.2,0,0,1,.62.42,1.43,1.43,0,0,1,.27.6c.11.5.4.61.87.43a.9.9,0,0,1,.71.17c.14.09.16.36.21.56,0,0-.08.13-.13.13-.35,0-.48.18-.62.45s-.51.22-.54,0c-.09-.5-.55-.37-.85-.59.14.46-.51.75-.18,1.26.07.1-.12.38-.2.57s-.35.52,0,.67l-.62.76c0-.11-.07-.22-.13-.38l-.88.24c-.39-.31-.54-.3-.91.1a6.32,6.32,0,0,0-.63.74.46.46,0,0,0,0,.43.65.65,0,0,0,.46.14c.08,0,.24-.25.23-.27-.21-.25,0-.4.1-.59s.23-.52.63-.28c.13.08.41-.1.7-.18-.08.15-.14.28-.22.4a3.63,3.63,0,0,0-.43.62,1.07,1.07,0,0,1-.84.72c-.21,0-.4.3-.53.5s.44.43.7.4a3.78,3.78,0,0,1,.75,0c.56.05.78.29.89.86,0,.17.11.35.15.52a.59.59,0,0,1-.28.76c-.33.16-.7.48-1.08.2a.67.67,0,0,1-.16-.95,4.07,4.07,0,0,0-.71-.63c-.35-.18-.42-.5-.53-.8,0-.1,0-.23,0-.35a3.22,3.22,0,0,0,0-.76c0-.06-.23-.1-.35-.15l-.06.09.26.53c-.37.08-.34.24-.23.53a2.82,2.82,0,0,1,.19,1.18c0,.51-1,.93-1.42.69,0,0-.06-.07-.1-.11L31.58,32l-.07.07-.08-.52c-.14.46-.29.72-.73.66-.08,0-.2.23-.36.42H30c-.06.28-.12.54-.18.8l.06,0a2.89,2.89,0,0,0,.32-.29c.21-.2.4-.51.71,0a.52.52,0,0,1,.37-.73c.16-.06.37,0,.55.09l0,.16-.59.39c.26.23.21.47-.11.68-.34-.57-.48-.56-.87,0a2.11,2.11,0,0,1-.41.34,4.35,4.35,0,0,0-.15-.49,2.35,2.35,0,0,0-.23-.32c-.24.08.07.8-.53.45a.71.71,0,0,1-.75.66,2.24,2.24,0,0,0-.6.22c0-.08,0-.2,0-.33s0-.24,0-.37l-.28.24-.14.15L26.89,34a.72.72,0,0,0-.22.78,2.84,2.84,0,0,1,0,1.95c-.27,0-.55,0-.48-.44S26.05,36,25.8,36l.42.94c-.25,0-.42,0-.57,0-.4,0-.48-.14-.36-.54a5.9,5.9,0,0,0,.06-.59,1.09,1.09,0,0,1,.12-.42c.39-.53.39-.67-.06-1.16a1.66,1.66,0,0,0-.26-.32c0,.12,0,.24,0,.36a2.51,2.51,0,0,1,0,.3l.4.23a2.41,2.41,0,0,1-.79.07,2.38,2.38,0,0,1-.6-.38c-.09.3,0,.43.29.53a.76.76,0,0,1,.37.36c.1.23-.23.22-.26.28-.18.45-.55.24-.9.28,0,.17.07.3.11.51l-.85-.1c-.22-.08-.22.57-.61.13,0,.09-.05.17-.07.24l-.13.36c-.14-.06-.31-.08-.4-.18s-.25-.4-.4-.58-.23-.14-.35-.22a1,1,0,0,1-.08.11c.06.08.15.14.17.22s.12.38,0,.5a1.18,1.18,0,0,1-.48.35s-.15-.09-.23-.14.08-.14.14-.18a1.37,1.37,0,0,1,.29-.08l-.35-.64-.11,0-.12.34-.07-.09c-.24.16-.47.34-.72.48s-.36.14-.38.11c-.12-.21-.61-.17-.37-.62A5.19,5.19,0,0,0,19,35.44c-.18.1-.24.16-.31.17-.25,0-.5.17-.66-.2-.3-.72-.32-.71-.92-.2-.09.08-.17.18-.3.32a1,1,0,0,1,.31.17,2.34,2.34,0,0,1,.33.49s-.14.22-.19.21a1,1,0,0,1-.47-.22.59.59,0,0,0-.95.1,4,4,0,0,1-.26.32,2,2,0,0,1-.36.18c-.05-.11-.1-.21-.14-.32s-.14-.33-.42-.25a.58.58,0,0,1-.79-.54c.49-.11,1-.16,1.13-.89-.06,0-.26,0-.27,0-.09.53-.52.45-.86.53l-.12-.1.37-.5a2.83,2.83,0,0,1,.2-.28l-.34-.09-.18,0a.49.49,0,0,0,.14-.81A5.4,5.4,0,0,0,13.1,33l-.3.15c-.06-.17-.11-.33-.18-.48a.69.69,0,0,0-.93-.44c-.41.1-.82.28-1.18-.15-.09.12-.13.22-.21.26a.73.73,0,0,1-.32.12s-.09-.08-.13-.13a1.47,1.47,0,0,0,.22-.21,3.22,3.22,0,0,0,.2-.37,1,1,0,0,1-.17-.1l-.46.6c0-.16-.06-.27-.09-.37a1.43,1.43,0,0,0-.13-.28l-.26.15c-.08.06-.15.13-.24.19,0-.26-.06-.49-.09-.71H8.67c-.16.28-.31.57-.49.9l-.28-.06c0,.06,0,.1,0,.13a2.46,2.46,0,0,1,.38,1.44c0,.18.42.4,0,.47-.16,0-.42-.36-.61-.58-.05-.06,0-.19-.11-.23l-.87-1.12c.3,0,.55,0,.69-.06s.19-.35.29-.57l-.22,0a2.06,2.06,0,0,1-.25,0c.13-.42.07-.92.66-1,0-.39-.12-.65-.45-.75a.33.33,0,0,0-.26,0c-.51.32-.56.32-1-.14a2.35,2.35,0,0,0,.19-.25.49.49,0,0,0,.07-.32l-1.18.68c-.41-.35.07-.55.1-.85l-.43-.22c0-.33-.12-.65.4-.75.22,0,.4-.31.6-.48s.37-.3.64-.16c0,0,.21-.08.21-.11A.7.7,0,0,0,6.65,27a.65.65,0,0,0-.35-.23.56.56,0,0,0-.37.16c-.2.2-.37.45-.58.64,0,.05-.25,0-.35-.1-.33-.21-.65-.43-1-.67a1.74,1.74,0,0,1-.28-.32l-.5-.69-.11.06c0,.12,0,.23,0,.43a.71.71,0,0,1-.12-.9c-.7-.26-.12-.65-.06-1a1.23,1.23,0,0,1,1.11-1.11s.09-.1.11-.13L3,22.67l1.09-1.23-.94.15c0-.27,0-.54,0-.86.14.05.26,0,.31.1.24.27.55,0,.8.15,0-.13.14-.28.11-.39a1.24,1.24,0,0,0-.29-.46.86.86,0,0,0-.39-.3c-.06,0-.23.19-.27.32-.12.38-.16.42-.52.31L3,20.3a.34.34,0,0,0,0-.25c-.14,0-.36,0-.41.13s0,.32,0,.49a.67.67,0,0,1,.12.06L2.32,21a3.13,3.13,0,0,1-.17.81c-.14.29-.37.27-.51,0a.49.49,0,0,0-.5-.34c-.3,0-.61-.13-.54-.6a2.09,2.09,0,0,0-.19-.72l1.17-.68c-.07-.14-.18-.33-.27-.52A.76.76,0,0,1,2,17.82a6.78,6.78,0,0,0,1-.19.37.37,0,0,0,0-.11l.29.26.24-.45c.18.24.32.43.47.61a3.06,3.06,0,0,0,.31-.16l-.45-.1v-.13l.3,0a1,1,0,0,0,.4-.07s0-.22,0-.33a4.88,4.88,0,0,0-.26-.5c-.55.27-1.06.34-1.21-.43.29-.13.63-.24.93-.41s.28-.42.47-.49c.44-.17.39-.43.25-.74.64-.53.61-.73-.18-1.25,0-.18.09-.36.14-.56-.2,0-.34.12-.43.07s-.2-.25-.17-.31a1.67,1.67,0,0,1,.45-.5,2.36,2.36,0,0,1,.65-.21c-.08-.13-.16-.3-.27-.45-.52-.65-.39-1.2.38-1.52V9.26a6.66,6.66,0,0,1,.75.63,5.37,5.37,0,0,1,.42.72A2.42,2.42,0,0,0,8,9.47s-.09-.08-.11-.08c-.57.16-.83-.26-1.11-.61a.49.49,0,0,1,0-.39.49.49,0,0,1,.32-.22c.61-.05.61-.05.42-.66l.29-.22L7.31,7l.48-.74c0,.35-.18.69.25.74.23,0,.61-.42.62-.69.3,0,.57,0,.7-.32,0,0,.3-.07.39,0a1.77,1.77,0,0,1,.36.41l-.33.17-.13,0,1.06.77a.41.41,0,0,1,0,.11h-.64l.58.63c.3-.24.75-.32.4-.86-.15-.23,0-.41.32-.43s.85-.09,1.28-.16c.07,0,.13-.13.2-.2-.09,0-.2-.12-.28-.1a1,1,0,0,1-.86-.14.42.42,0,0,1-.19-.56,7.34,7.34,0,0,1,.55-.89c.09-.13.17-.27.24-.38l1,.3a.92.92,0,0,0,1,0,.28.28,0,0,0,.07-.21c-.06-.06-.18-.13-.24-.11-.63.25-.82-.34-1.12-.64s.07-.68.4-.74l.74-.14.44,1.37L15,4a1.47,1.47,0,0,1-.27,1.56c-.17.14-.22.23,0,.39s.34.29.59,0l-.45-.2a4.62,4.62,0,0,0,.4-.24.37.37,0,0,0,.12-.24c-.25-.78.44-.92.84-1.27l.11-.1-.37-.32a1.83,1.83,0,0,1-.13.22c-.09.08-.25.23-.3.2a.46.46,0,0,1-.25-.33.4.4,0,0,1,.23-.33.94.94,0,0,1,1.06.21s.08.06.23.15a2.36,2.36,0,0,0-.1-.58.76.76,0,0,1,.31-1.09c.13-.08.24-.19.36-.28-.6-.5-.59-.89,0-1.35a1,1,0,0,1,1.11.22c.46.37.45.71,0,1.07-.29.22-.56.46-.77.65.05.27.09.43.15.7a1.13,1.13,0,0,1,.31-.21,1.6,1.6,0,0,1,.38,0c-.06.08-.11.18-.18.26a1.43,1.43,0,0,1-.28.27c-.29.2-.59.45-1,.09-.17.38-.32.7-.47,1,0,.06-.1.14-.14.14-.45,0-.31.27-.32.54l.43,0a1.49,1.49,0,0,1,1.08-1.06,8.2,8.2,0,0,0,.89-.35l.5-.23.05.09.28-.49.44.48.1-.1-.1-.17L19.62,3c.1,0,.22-.13.32-.11s.28.14.28.22c0,.37.31.4.52.48s.27-.19.42-.28a4.37,4.37,0,0,1,.48-.25,3.23,3.23,0,0,1,.08.53c0,.16-.1.32-.1.48,0,.47-.4.59-.66.83,0,0-.21,0-.24-.08-.15-.31-.31-.13-.46,0s-.18.31,0,.58c0-.15.06-.27.1-.43l.69.58c.15-.24.3-.44.42-.66a1,1,0,0,1,1.13-.49c.28,0,.49,0,.53-.37a.5.5,0,0,1,.59-.45c.2,0,.4,0,.71,0-.16.09-.25.12-.28.17a.33.33,0,0,0,0,.24s.21,0,.21,0c.12-.56.53-.63,1.08-.56l-.39.41.6-.06c.38.28.76.54,1.12.83a.67.67,0,0,1,.2.41c0,.09-.11.23-.2.29a.68.68,0,0,1-.87,0c0-.42.11-.88-.23-1.26A.82.82,0,0,0,25.9,5.4ZM38.87,20c-.2-.09-.31-.11-.39-.16s-.18-.18-.16-.23a1.92,1.92,0,0,0-.22-1.33c-.11-.35-.38-.35-.63-.26-.51.21-.5.23-.68-.25-.57,0-.65.05-.63.38l.94.74c0-.16-.05-.27-.08-.39a.52.52,0,0,1,.36.18,4.8,4.8,0,0,1,.45.56,1.81,1.81,0,0,1,.18.4l-.36.13-.22.07a1,1,0,0,0,.1.24l.36.52C37.91,20,38.43,20.14,38.87,20Zm-4.62,5.27c.47,0,.49.24.36.55a.38.38,0,0,0,0,.23c.1.61,0,.78-.56,1l.42.29a1.51,1.51,0,0,0,.18-.31c.11-.34.23-.62.67-.37,0,0,.16-.06.25-.07a1.55,1.55,0,0,1,.43,0,1.33,1.33,0,0,1,.3.12v-.94c-.3.27-.47.65-.95.4l.42-.2L35,25.1l.41-.24C35.24,24.66,34.82,24.8,34.25,25.25ZM13.09,6.47c.34-.22.63-.41.73.14,0,0,0,0,.07,0s.31.29.3.42-.2.31-.3.46l1.4.16c0-.61,0-.61-.52-.54-.23,0-.43,0-.3-.34a1,1,0,0,0-.1-.56A7,7,0,0,0,14,5.57h-.26c0-.15,0-.29,0-.42a.35.35,0,0,0-.24.17c-.1.18-.17.42-.32.52S13,6.21,13.09,6.47ZM8.55,12.85l.2-.39.64,0-.78-1.35a6.48,6.48,0,0,1-.17.64c0,.11-.1.28-.19.31-.33.09-.27.22-.08.39ZM19.45,5.5l-.59.23c-.21-.28-.43-.15-.66,0,.36.22.9,0,1,.56.22,0,.41,0,.58-.1s.32-.13.34-.22,0-.46-.25-.44c-.07.15-.09.31-.17.35a1.48,1.48,0,0,1-.46.07C19.33,5.78,19.37,5.69,19.45,5.5Zm-1-1.45c-.19.16-.35.31-.5.45a3.44,3.44,0,0,0,.65.56c.07,0,.31-.28.47-.44Zm-14.82,15,.13.05c.32-.3.65-.42,1-.09A3.19,3.19,0,0,0,5,18.63a1.86,1.86,0,0,0,.1-.31,1,1,0,0,0-.35.08c-.17.12-.32.3-.55.13a.35.35,0,0,0-.55,0C3.57,18.69,3.63,18.89,3.63,19.05ZM17.38,6l-.33.29a1.65,1.65,0,0,0,.36.11,3.64,3.64,0,0,0,.66,0,1.15,1.15,0,0,0,.33-.17c-.11-.11-.2-.26-.33-.31a8.56,8.56,0,0,0-.83-.23C17.27,5.75,17.32,5.89,17.38,6ZM5.52,20.19a.28.28,0,0,1,0,.09l.76-.51a4.89,4.89,0,0,0,.42.36s.17,0,.17-.05c0-.21-.05-.41-.08-.62l-.21.1-.42-.34C5.91,19.6,5.71,19.89,5.52,20.19ZM21.62,5.86l.19.41a6.61,6.61,0,0,0,.63-.21,1.43,1.43,0,0,0,.24-.19c-.07-.07-.12-.16-.2-.2A.71.71,0,0,0,21.62,5.86Zm.53,27.27A.61.61,0,0,1,22.2,33l-.95-.55c-.1.15-.2.31-.33.53Zm11.08-6.31c.57.18.58.18.82-.35l-.47-.36Zm-28.38-1a.37.37,0,0,0,.21-.61c-.08-.13-.26-.19-.41-.29l-.19.3C4.59,25.39,4.7,25.57,4.85,25.79ZM28.1,31.22c.35,0,.69.12.83-.27,0-.08-.13-.33-.22-.35C28.28,30.53,28.29,30.92,28.1,31.22Zm4.34-2.62c-.28.14-.43.2-.57.29a3.2,3.2,0,0,0-.27.25.86.86,0,0,0,.29.22c.1,0,.3,0,.33-.08A4.51,4.51,0,0,0,32.44,28.6Zm3.74-8.45a5.69,5.69,0,0,0-.62-.4s-.15.14-.23.21c.19.17.38.34.58.49C35.91,20.46,36,20.32,36.18,20.15ZM35.53,25l.09.15c.25-.08.51-.15.76-.25.07,0,.1-.16.15-.24-.1-.05-.25-.18-.31-.14A6.12,6.12,0,0,0,35.53,25Zm-3.38,5.29-.09.08.35.82.48-.42Zm.41-14.38c-.75.36-.75.36-.37.8ZM5,24.09c-.42.28-.42.28.25.76C5.73,24.37,5,24.41,5,24.09ZM8.75,7.43c0,.14-.06.25-.09.37l.76.3a1.86,1.86,0,0,1,.1-.2ZM22.12,35.12l.09-.1c-.12-.09-.24-.24-.34-.23a2.34,2.34,0,0,0-.53.21,1.34,1.34,0,0,0,.06.12ZM36.48,19.28c0,.06,0,.11,0,.17l.81.13a.61.61,0,0,1,.07-.1c-.06-.09-.12-.25-.18-.25A5.65,5.65,0,0,0,36.48,19.28ZM26,33.57c-.32.42-.25.53.5.72C26.32,34,26.18,33.81,26,33.57Zm8.33-8-.11,0c-.12.13-.24.27-.39.42l.43.39C34.3,26,34.32,25.81,34.34,25.58ZM24.13,32.64l.09,0c-.09-.17-.15-.41-.29-.48s-.33.09-.5.15a1,1,0,0,0,.4.18A2,2,0,0,1,24.13,32.64ZM6.62,29.14c.57.27.75.21.8-.32Zm.51-1.33L7,28a5.05,5.05,0,0,0,.51.28s.08-.12.12-.18ZM6.21,11.7c.57.11.79,0,.66-.45ZM30.77,31l-.2.07c0,.15.07.3.11.45l.29-.09C30.9,31.25,30.83,31.1,30.77,31Z"/><path class="cls-1" d="M30.91,36.1a13.57,13.57,0,0,1,1.52-.33c.28,0,.43.21.43.5s-.23.84-.54.88a2.1,2.1,0,0,1-.75,0c-.16,0-.3-.23-.4-.38A3.23,3.23,0,0,1,30.91,36.1Z"/><path class="cls-1" d="M17.34,39.9a1.28,1.28,0,0,1-1.1-1.14c.05-.26.72-.53,1-.39l.56.36c.4.27.44.55.08.88A2,2,0,0,1,17.34,39.9Z"/><path class="cls-1" d="M13.5,34.23l-.4,0,0,.1.33.26-.33.19c-.09.06-.17.14-.25.2v-.41c-.49.09-.58-.18-.53-.65,0-.13-.17-.31-.3-.41s-.36-.72-.19-.82a.47.47,0,0,1,.43.06,1.06,1.06,0,0,1,.27.5c.07.4.36.37.61.32.59-.09.62-.07.44.48A1.17,1.17,0,0,0,13.5,34.23Z"/><path class="cls-1" d="M36.07,29.51c-.06-.1-.12-.23-.19-.34l-.23-.3a1.59,1.59,0,0,1,1.22-.62.65.65,0,0,1,.45.22c0,.06-.1.26-.14.4a3.34,3.34,0,0,0-.14.52c0,.35-.23.44-.52.27A3.38,3.38,0,0,0,36.07,29.51Z"/><path class="cls-1" d="M41.55,21a2.17,2.17,0,0,1-1.88-.43c-.24-.32,0-.53.18-.67a.57.57,0,0,1,.55,0,8.49,8.49,0,0,1,1,.84A2.26,2.26,0,0,1,41.55,21Z"/><path class="cls-1" d="M37.31,8.71a.56.56,0,0,0-.06.8c.13.2.08.52.12.8-.31-.09-.52-.16-.73-.21s-.4-.18-.37-.46,0-.36.07-.54C36.42,8.54,36.74,8.4,37.31,8.71Z"/><path class="cls-1" d="M32,5.3a3.76,3.76,0,0,1,.44.4,4,4,0,0,1,.4.61.57.57,0,0,1,.07.41,2.68,2.68,0,0,1-.5.51.39.39,0,0,1-.18-.17c-.08-.22-.11-.45-.19-.67s-.14-.16-.21-.26-.27-.28-.23-.35S31.87,5.48,32,5.3Z"/><path class="cls-1" d="M36.51,14.51l.77.29c-.07-.24-.12-.39-.15-.55s.13-.39.32-.44a.48.48,0,0,1,.42.13c.09.14.17.42.1.52a2.59,2.59,0,0,1-.72.68c-.18.12-.54.22-.66.13s-.16-.45-.23-.69Z"/><path class="cls-1" d="M34.22,10.25c-.18-.33-.38-.33-.68-.17a1.79,1.79,0,0,1-.74.05c-.2,0-.4-.08-.33-.3s.26-.43.41-.44a7.93,7.93,0,0,1,1.37.08c.06,0,.17.15.17.23a2.22,2.22,0,0,1-.1.5Z"/><path class="cls-1" d="M16.71,36.68c.19,0,.86.68.81.85s-.24.16-.27.14c-.23-.21-.4,0-.6,0a.92.92,0,0,1-.37,0s0-.18,0-.28,0-.22,0-.32C16.27,36.79,16.41,36.67,16.71,36.68Z"/><path class="cls-1" d="M18.51,38.41c-.26-.17-.6-.32-.42-.75a.57.57,0,0,1,.51-.21c.34.09.44.36.24.71l.16,0a2.71,2.71,0,0,1,.22.6s-.3.22-.33.2A3.14,3.14,0,0,1,18.51,38.41Z"/><path class="cls-1" d="M5.56,31.16c.12-.15.2-.24.27-.34s.18-.27.28-.4.16-.22.23-.21a.42.42,0,0,1,.33.19c0,.08,0,.24-.09.35a2.55,2.55,0,0,1-.38.53.58.58,0,0,1-.38.13C5.74,31.41,5.67,31.27,5.56,31.16Z"/><path class="cls-1" d="M23.87,37.9c0-.35.26-.42.46-.39a.71.71,0,0,1,.48.41c.07.35-.24.48-.53.49S23.89,38.17,23.87,37.9Z"/><path class="cls-1" d="M34.27,6.28c.26.28.52.44.57.65a.41.41,0,0,1-.44.49A.42.42,0,0,1,34,6.94,2.55,2.55,0,0,1,34.27,6.28Z"/><path class="cls-1" d="M12.06,34.25a4.1,4.1,0,0,1-.52.48s-.28-.21-.26-.26a2.75,2.75,0,0,1,.32-.58C11.72,34,11.84,34.09,12.06,34.25Z"/><path class="cls-1" d="M32.32,34.38l-.27.32c-.17-.12-.33-.26-.49-.39.1-.11.25-.32.29-.3A2.36,2.36,0,0,1,32.32,34.38Z"/><path class="cls-1" d="M17.48,37.13c.15-.21.18-.58.56-.47.09,0,.21.37.15.44A.46.46,0,0,1,17.48,37.13Z"/><path class="cls-1" d="M24.09,37.26c-.25.15-.4.32-.51.3a.58.58,0,0,1-.3-.36c-.05-.23.13-.35.33-.3S23.86,37.08,24.09,37.26Z"/><path class="cls-1" d="M28.62,35.24,28,34.92c.11-.09.22-.26.33-.27C28.6,34.64,28.79,34.77,28.62,35.24Z"/><path class="cls-1" d="M30.71,35c0-.32-.31-.61.1-.81.07,0,.28.09.3.17A.5.5,0,0,1,30.71,35Z"/><path class="cls-1" d="M10.54,32.63,11,33c-.1.07-.22.21-.3.19a1.83,1.83,0,0,1-.45-.25Z"/><path class="cls-1" d="M12.81,36.44l-.21.49c-.08-.07-.25-.18-.24-.2a3.48,3.48,0,0,1,.28-.39Z"/><path class="cls-1" d="M27.43,36.92l.4-.28.1.07c0,.13,0,.32-.08.38s-.26,0-.39,0Z"/></g></g></svg>