<svg xmlns="http://www.w3.org/2000/svg" viewBox="0 0 33.36 40.13"><defs><style>.cls-1{fill:#f7f7f7;fill-rule:evenodd;}</style></defs><title>Ресурс 1</title><g id="Слой_2" data-name="Слой 2"><g id="сайт"><path class="cls-1" d="M33.25,14.71a19.4,19.4,0,0,0-.83-4.36A27.47,27.47,0,0,0,31,6.53,10.11,10.11,0,0,0,27.5,2.07a4.15,4.15,0,0,0-4.22-.44,7.73,7.73,0,0,0-3,2.46,19.91,19.91,0,0,0-3.49,7.71c-.46,1.92-.6,3.92-.89,5.88a3.81,3.81,0,0,1-.19.57l-.16-.05c0-.79,0-1.57,0-2.36,0-.46-.14-.59-.61-.58a6.62,6.62,0,0,0-4.41,1.87,3.89,3.89,0,0,0-.82,4.15A1.15,1.15,0,0,0,10,21.1a6.34,6.34,0,0,1,4.2-2.37l.06,0,.55.22c-.13.14-.22.37-.38.41a8.41,8.41,0,0,0-3.42,1.53c-.59.55-1.34,1-1.42,1.93a7.58,7.58,0,0,0,.1,1.84,3.92,3.92,0,0,0,.39.93,6.75,6.75,0,0,0,.66-.65,6.31,6.31,0,0,1,3.49-2c.23-.06.72.11.76.26.12.42-.29.4-.59.48a5.89,5.89,0,0,0-3.63,2.2,2.33,2.33,0,0,0-.59,1.32,19.18,19.18,0,0,0,.65,2.77l.2.07c.18-.25.37-.5.55-.76a5,5,0,0,1,3.28-2c.19,0,.42.15.64.24a3.3,3.3,0,0,1-.57.5,13.39,13.39,0,0,0-2.43,1.3,2.37,2.37,0,0,0-.91,2.93c.28.6.53,1.2.82,1.78a.52.52,0,0,0,.39.25.6.6,0,0,0,.32-.37,3.43,3.43,0,0,1,2.73-2.32c.21-.05.48.14.72.21a2.59,2.59,0,0,1-.5.54c-.31.19-.69.27-1,.46a2.76,2.76,0,0,0-1.56,2.45A2.21,2.21,0,0,0,14,36.33c.65.82,1.38,1.56,2.08,2.33l.22-.13v-.68a2,2,0,0,1,1.55-2,1,1,0,0,1,.8.21c.22.37-.16.48-.45.63a1.77,1.77,0,0,0-1,2,1.63,1.63,0,0,0,1.73,1.41,12.38,12.38,0,0,0,6.69-1.15,12.1,12.1,0,0,0,5.38-6.3,26.27,26.27,0,0,0,1.27-3.75,25.49,25.49,0,0,0,1-5C33.41,20.85,33.38,17.78,33.25,14.71ZM29.82,25.35a16.49,16.49,0,0,1-2.05,5.93,5.66,5.66,0,0,1-3.07,2.86,3,3,0,0,1-2.95-.81A7.48,7.48,0,0,1,19.5,30c-.54-1.56-1-3.13-1.44-4.73A10.8,10.8,0,0,1,17.9,23a.92.92,0,0,0-.16-.57,1.63,1.63,0,0,0,0-.31A9.39,9.39,0,0,0,17.79,21c0-.08,0-.17,0-.26a1.31,1.31,0,0,0,0-.67,3.54,3.54,0,0,0,.07-.73.59.59,0,0,0,0-.13,2.07,2.07,0,0,0,0-.35v0a.82.82,0,0,0,.07-.34A18.59,18.59,0,0,1,19.09,12a11.41,11.41,0,0,1,3.13-5.14,3.25,3.25,0,0,1,2.55-1,3.94,3.94,0,0,1,2.6,1.7A12.89,12.89,0,0,1,29.44,12a38.58,38.58,0,0,1,1.11,7.93C30.35,21.45,30.07,23.4,29.82,25.35Z"/><path class="cls-1" d="M16,.46c-.2.21-.37.43-.58.62A15.34,15.34,0,0,0,11.59,6.5a33.82,33.82,0,0,0-1.44,3.55A32.61,32.61,0,0,0,9.25,14a35.38,35.38,0,0,0-.51,4.23,53.64,53.64,0,0,0,0,5.38A36.59,36.59,0,0,0,9.28,28a16.41,16.41,0,0,0,.81,3,37.06,37.06,0,0,0,1.76,3.91,13.32,13.32,0,0,0,4,4.47c.07,0,.11.12.24.27a2.32,2.32,0,0,1-2.08-.4,14,14,0,0,1-4.81-6A29.49,29.49,0,0,1,6.65,17.8c.2-1.54.35-3.09.65-4.61A22.52,22.52,0,0,1,8.39,9.51a38.78,38.78,0,0,1,2-4.55A12.7,12.7,0,0,1,14.38.5c.38-.27,1-.2,1.48-.29Z"/><path class="cls-1" d="M5.72,36.17c1.64.14,3,1.09,4.52,1.65a1.22,1.22,0,0,0,.07-.17,13.87,13.87,0,0,0-1.67-1c-1.38-.57-2.8-1-4.18-1.61a1.86,1.86,0,0,1-.72-.7,17.31,17.31,0,0,1-1.06-1.7,3.44,3.44,0,0,1-.17-.87,6,6,0,0,1,.74,0A12.25,12.25,0,0,1,9.4,35.27a23.44,23.44,0,0,1,2.45,3,.6.6,0,0,1,.08.53.58.58,0,0,1-.49.2,12.27,12.27,0,0,1-2.1-.46,10.16,10.16,0,0,1-3.46-1.89,2.11,2.11,0,0,1-.28-.37Z"/><path class="cls-1" d="M9.66,17c0-.35,0-.72,0-1.1a4.31,4.31,0,0,1,2.45-3.76A9.13,9.13,0,0,1,15.66,11c.58-.06.77.2.67.73a19.78,19.78,0,0,1-.47,2.16,1.07,1.07,0,0,1-.76.6A7.22,7.22,0,0,0,10,17a.42.42,0,0,1-.16.09S9.82,17,9.66,17Z"/><path class="cls-1" d="M10.47,12.57s-.07-.08-.06-.12c.14-1.5.44-2.94,1.87-3.78a21.22,21.22,0,0,1,2.88-1.49,7,7,0,0,1,2.06-.35c.37,0,.62.17.43.64-.3.76-.55,1.55-.88,2.31a.88.88,0,0,1-.6.43A9,9,0,0,0,11,12.33a2.36,2.36,0,0,1-.36.26S10.53,12.58,10.47,12.57Z"/><path class="cls-1" d="M20.44,2.71c-.26.44-.44.76-.64,1.07-.36.56-.71,1.13-1.12,1.66-.21.27-.55.61-.84.62A9.74,9.74,0,0,0,12,8.34c-.06.05-.14.08-.38,0,.17-.44.36-.89.53-1.33.77-2,2.53-2.88,4.38-3.62a7.7,7.7,0,0,1,3.08-.74Z"/><path class="cls-1" d="M6.75,29.64a3.52,3.52,0,0,1-.45-.3,10.31,10.31,0,0,0-4.1-2.43L2,26.85c-.47-.12-1.27-.13-1.35-.37A14.64,14.64,0,0,1,.2,23.59c0-.08.39-.32.57-.29a7.65,7.65,0,0,1,5.42,3.48A10.7,10.7,0,0,1,7,29.48Z"/><path class="cls-1" d="M8.52,34.05c-.69-.5-1.37-1-2.09-1.5A8.94,8.94,0,0,0,3,31.08c-1.09-.16-1.41-.52-1.68-1.65-.09-.4-.26-.78-.36-1.18s0-.78.63-.7a8.34,8.34,0,0,1,3.47,1.38c.51.32,1,.73,1.44,1.1,1.26,1,1.61,2.51,2.17,3.89Z"/><path class="cls-1" d="M5.48,21.23c-.58-.54-1.13-1.1-1.74-1.6A4.67,4.67,0,0,0,.83,18.49c-.5,0-.75-.2-.7-.71l.27-2.2c.09-.63.49-.7,1-.58a6,6,0,0,1,3.47,2,3.08,3.08,0,0,1,.8,2.44,16.45,16.45,0,0,0,0,1.72Z"/><path class="cls-1" d="M5.86,25.53c-.53-.49-1.05-1-1.6-1.47A7.49,7.49,0,0,0,.69,22.57c-.51-.08-.65-.34-.66-.79,0-.62,0-1.23,0-1.84s.2-.74.75-.71a6.12,6.12,0,0,1,4.14,2.18,2.46,2.46,0,0,1,.86,1.95A5.46,5.46,0,0,0,6,24.46c0,.33.07.66.1,1Z"/><path class="cls-1" d="M5.59,17c-.58-.62-1-1.17-1.55-1.65a5.49,5.49,0,0,0-2.8-1.13c-.46-.09-.58-.23-.43-.7a16.93,16.93,0,0,0,.52-2A.64.64,0,0,1,2,10.93a3.9,3.9,0,0,1,3.3,1.49,3.25,3.25,0,0,1,.64,3.17C5.84,16,5.73,16.46,5.59,17Z"/><path class="cls-1" d="M6.33,12.82c-.39-.54-.66-.94-1-1.32a3.14,3.14,0,0,0-2.52-1.3c-.81,0-.92-.21-.67-1a9.71,9.71,0,0,1,.87-1.81,1.38,1.38,0,0,1,1.81-.68A3.35,3.35,0,0,1,7.21,9.14a1.5,1.5,0,0,1,0,.84C7,10.87,6.68,11.75,6.33,12.82Z"/><text/><path class="cls-1" d="M14.23,4.05A7.12,7.12,0,0,1,18.39.4a8.83,8.83,0,0,1,5.78.2,4.79,4.79,0,0,0-.92.33A8,8,0,0,1,19.63,2,10.18,10.18,0,0,0,15,3.67C14.77,3.82,14.49,3.92,14.23,4.05Z"/><path class="cls-1" d="M13.35.56c-1,1.11-2.1,2.22-3.25,3.42A4.5,4.5,0,0,0,10,2.63a4.37,4.37,0,0,0-.91-1C10.31.81,11.84.77,13.35.56Z"/><path class="cls-1" d="M29.6,19.6c-.22,1.93-.3,3.89-.68,5.79a13.64,13.64,0,0,1-2.72,6.33,3.34,3.34,0,0,1-2.92,1.42,3.6,3.6,0,0,1-2.48-1.62A5.62,5.62,0,0,1,20,30.27a.92.92,0,0,1,.17-1.18,6.91,6.91,0,0,0,1.72-3.52c.15-.68.27-1.37.4-2.05a21.5,21.5,0,0,0,0-7.59,11.31,11.31,0,0,0-1.75-4.85A1.25,1.25,0,0,1,20.34,10,6.49,6.49,0,0,1,22.6,7.39,2.93,2.93,0,0,1,26.23,8a10,10,0,0,1,2,3.51A25.81,25.81,0,0,1,29.6,19.6Z"/></g></g></svg>