<svg xmlns="http://www.w3.org/2000/svg" viewBox="0 0 42.57 42.49"><defs><style>.cls-1{fill:#f7f7f7;fill-rule:evenodd;}</style></defs><title>Ресурс 4</title><g id="Слой_2" data-name="Слой 2"><g id="сайт"><path class="cls-1" d="M42.23,26.06a10.51,10.51,0,0,1-2.07,1.81,3.3,3.3,0,0,1-1.75.68c-3.12,0-6.24.13-9.36.13h-.24c0-1,0-.84,0-1.17a.58.58,0,0,0-.14-.46.25.25,0,0,1,0-.4.3.3,0,0,0,.1-.19c0-.9,0-1.8,0-2.69l0,0-2.23,4.4c.17,0,.31,0,.33.09s-.11.23-.15.31H27c-.05,0-.15.14-.18.12a2.63,2.63,0,0,1-.39-.29c-.18.17.16.28.14.49l-.22-.26c-.24.14,0,.28,0,.44l-.2-.17c0,.13,0,.22-.05.3a1,1,0,0,0-.14.15c-.18.33-.35.67-.52,1-.45.88-.9,1.76-1.34,2.64a.37.37,0,0,0,0,.29l1.09,2.16,1.72,3.41c.54,1.06,1.07,2.12,1.6,3.18.09.17-.05.33,0,.5h-.18v-4.8h5.43a2.83,2.83,0,0,0,1.88-.45,7.8,7.8,0,0,0,2.14-1.95,14.74,14.74,0,0,0,1.6-2.4c.52-1,1-2,1.48-3s.78-2,1.16-3c.12-.31.22-.63.34-1A1.4,1.4,0,0,0,42.23,26.06Z"/><path class="cls-1" d="M8,29.6c.6-1.06,1.22-2.11,1.84-3.16.74-1.25,1.5-2.48,2.24-3.73.07-.12.11-.12.22-.06l3.31,1.93.56.32a.58.58,0,0,0-.11-.25c-.64-1-1.28-2-1.93-3L10.58,16.2a.41.41,0,0,0-.23-.13L8,15.94l-3.51-.22L1,15.53l-1-.06s0,0,0,0l4.12,2.41L4,18.19,2.62,20.56c-.36.61-.72,1.23-1.1,1.83a2.86,2.86,0,0,0-.43,1.18,6.28,6.28,0,0,0,.25,2.55,13.16,13.16,0,0,0,1.07,2.57,27.87,27.87,0,0,0,2.63,4c.58.73,1.18,1.44,1.78,2.15.2.24.42.47.63.71a.37.37,0,0,0,0-.21c-.07-.2-.15-.4-.21-.61s-.09-.43-.14-.64S7,33.79,7,33.65c0-.38,0-.77,0-1.16a2.69,2.69,0,0,1,.19-1.29C7.43,30.66,7.71,30.12,8,29.6Zm2.9-10,0,0Zm0-.05,0,0Zm0,0,0,0Zm.07.07s0,0,0,0S10.94,19.59,11,19.6Zm-.07-.36h0a.19.19,0,0,0,0,.21A.19.19,0,0,1,10.88,19.24Zm0,.26v0Zm0,0a0,0,0,0,1,0,0A0,0,0,0,0,10.85,19.48ZM9.5,20.9a.08.08,0,0,1,0,0A.08.08,0,0,0,9.5,20.9Zm-.05,0s0,0,0,0S9.46,20.94,9.45,20.94Zm0,0v0Zm0,0s0,0,0,0S9.49,21,9.49,21Zm-.17-.24c0,.06.08.1.1.14S9.36,20.82,9.32,20.76Zm.11.14s0,0,0,0S9.43,20.91,9.43,20.9Zm-.11-.14a.26.26,0,0,1,.11.07.26.26,0,0,0-.11-.07Zm0,0,0,0,0,0h0Zm-.93.17h0Zm.81,0h0Zm0,0h0Zm0,0h0Zm0,0h0Zm0,0,0,0Zm.3.12s0,0,0,0S9.53,21,9.53,20.94Zm0,0s0,0,0,0S9.55,21,9.54,21Zm0-.08,0,0Zm0,0,0,0Zm-.21-.18Zm-.11.12h0Zm0,0h0Zm0,0h0Zm0,0h0Zm0,0h0Zm-.09,0h0Zm-.05.11h0Zm0,0h0Zm0,0h0Zm0,0h0Zm0,0h0Zm.24.12h0Zm-1,0Zm-3.13,2.6h0Zm.23-.07s0,0-.07,0S5.44,23.45,5.46,23.47Zm-.35.16L5,23.69Zm.71,0h0Zm0,0h0Zm0,0h0Zm0,0Zm-.41,0h0Zm.47.1v0Zm0,0h0Zm0,0a.25.25,0,0,0,.19,0h0A.25.25,0,0,1,5.89,23.65Zm0,0h0Zm.21,0h0l.09-.05-.09.05Z"/><path class="cls-1" d="M19.52,1.61a2.76,2.76,0,0,1,1.22,1.1c.17.32.36.63.54.94l2,3.43,1.85,3.23.44.78-4,2.28,0,.05h.21l3.52-.18,4.09-.2,1.06,0,.35,0,.3,0h.41a2.45,2.45,0,0,0,.39,0,.51.51,0,0,0,.21-.15,2.29,2.29,0,0,0,.1-.23c.14-.23.29-.45.43-.66,0,0,.09-.07.12-.11s.31-.27.17-.46a1.18,1.18,0,0,0,.27-.2c.08-.12.13-.26.21-.38s.34-.46.5-.7c.37-.55.72-1.09,1.08-1.64l2.44-3.7.34-.53,0,0L33.58,6.48l-.73-1.29C32.22,4.08,31.61,3,31,1.87A2.78,2.78,0,0,0,29.5.79,12,12,0,0,0,26,.08a38,38,0,0,0-4.89,0c-.53,0-1,.08-1.57.13-.72.06-1.44.15-2.16.23-.24,0-.48.07-.77.12l.12,0A13.93,13.93,0,0,1,19.52,1.61Z"/><path class="cls-1" d="M37.11,11.36,34.24,13l-4.85,2.8c-.14.08-.12.13-.05.24.18.29.36.59.53.89l2.07,3.5c.62,1,1.24,2.09,1.86,3.12a7.08,7.08,0,0,0,.67,1,6,6,0,0,0,1.6,1.28,4.51,4.51,0,0,0,2,.63,3.78,3.78,0,0,0,2.5-.82,4.48,4.48,0,0,0,2-3.8c0-.13,0-.38-.06-.63A4.65,4.65,0,0,0,42,19.66c-.72-1.31-1.48-2.62-2.22-3.93s-1.64-2.86-2.45-4.29C37.28,11.31,37.22,11.3,37.11,11.36Z"/><path class="cls-1" d="M23,29.26l-8.57.09a5.07,5.07,0,0,0-1.9.24c-.44.18-.88.37-1.3.59a3.22,3.22,0,0,0-.57.42,3.75,3.75,0,0,0-.61.51,9.55,9.55,0,0,0-.67,1c-.07.11,0,.28-.1.39a3.37,3.37,0,0,0-.22,1.17,3,3,0,0,0,0,.66,4.36,4.36,0,0,0,.66,2,4.79,4.79,0,0,0,4,2.27c2.94.08,5.87.14,8.81.14h.63s0-.21,0-.25c0-3,0-6,0-8.91C23.26,29.33,23.19,29.26,23,29.26Z"/><path class="cls-1" d="M6.55,12.15l3.47,2,4.25,2.46c.12.08.19.07.26-.07s.31-.55.46-.83l1.74-3.07L18.8,9A4.79,4.79,0,0,0,19.31,8a6.25,6.25,0,0,0,.27-3.18,3.77,3.77,0,0,0-1.7-2.52.21.21,0,0,0-.2,0,.24.24,0,0,1-.35-.13.6.6,0,0,0-.4-.31c-.36-.1-.71-.19-1.07-.26a3.8,3.8,0,0,0-1.92.16,5,5,0,0,0-2.56,2c-.37.52-.67,1.09-1,1.64q-1.16,2-2.3,3.91c-.1.16-.19.33-.28.5l.34.08v.07c-.17,0-.31,0-.32.24,0,0-.05,0-.08.06s0,0,0-.07a.62.62,0,0,1,0-.14l-1.2,2.06Z"/><path class="cls-1" d="M28.77,27s0,0,.05,0v-.25s0,0-.05,0-.09.08-.09.12A.7.7,0,0,0,28.77,27Z"/></g></g></svg>