<svg xmlns="http://www.w3.org/2000/svg" width="110" height="112" viewBox="0 0 110 112"><defs><clipPath id="ctuia"><path d="M-1.357 56.207c0 30.772 24.945 55.717 55.716 55.717s55.716-24.945 55.716-55.717S85.13.493 54.359.493-1.357 25.435-1.357 56.207z"/></clipPath><clipPath id="ctuib"><path d="M-1.357 56.207c0 30.772 24.945 55.717 55.716 55.717s55.716-24.945 55.716-55.717S85.13.493 54.359.493-1.357 25.435-1.357 56.207z"/></clipPath><clipPath id="ctuic"><path d="M-1.357 56.207c0 30.772 24.945 55.717 55.716 55.717s55.716-24.945 55.716-55.717S85.13.493 54.359.493-1.357 25.435-1.357 56.207z"/></clipPath><clipPath id="ctuid"><path d="M-1.357 56.207c0 30.772 24.945 55.717 55.716 55.717s55.716-24.945 55.716-55.717S85.13.493 54.359.493-1.357 25.435-1.357 56.207z"/></clipPath><clipPath id="ctuie"><path d="M-1.357 56.207c0 30.772 24.945 55.717 55.716 55.717s55.716-24.945 55.716-55.717S85.13.493 54.359.493-1.357 25.435-1.357 56.207z"/></clipPath><clipPath id="ctuif"><path d="M-1.357 56.207c0 30.772 24.945 55.717 55.716 55.717s55.716-24.945 55.716-55.717S85.13.493 54.359.493-1.357 25.435-1.357 56.207z"/></clipPath><clipPath id="ctuig"><path d="M-1.357 56.207c0 30.772 24.945 55.717 55.716 55.717s55.716-24.945 55.716-55.717S85.13.493 54.359.493-1.357 25.435-1.357 56.207z"/></clipPath><clipPath id="ctuih"><path d="M-1.357 56.207c0 30.772 24.945 55.717 55.716 55.717s55.716-24.945 55.716-55.717S85.13.493 54.359.493-1.357 25.435-1.357 56.207z"/></clipPath><clipPath id="ctuii"><path d="M-1.357 56.207c0 30.772 24.945 55.717 55.716 55.717s55.716-24.945 55.716-55.717S85.13.493 54.359.493-1.357 25.435-1.357 56.207z"/></clipPath><clipPath id="ctuij"><path d="M-1.357 56.207c0 30.772 24.945 55.717 55.716 55.717s55.716-24.945 55.716-55.717S85.13.493 54.359.493-1.357 25.435-1.357 56.207z"/></clipPath><clipPath id="ctuik"><path d="M-1.357 56.207c0 30.772 24.945 55.717 55.716 55.717s55.716-24.945 55.716-55.717S85.13.493 54.359.493-1.357 25.435-1.357 56.207z"/></clipPath><clipPath id="ctuil"><path d="M-1.357 56.207c0 30.772 24.945 55.717 55.716 55.717s55.716-24.945 55.716-55.717S85.13.493 54.359.493-1.357 25.435-1.357 56.207z"/></clipPath><clipPath id="ctuim"><path d="M-1.357 56.207c0 30.772 24.945 55.717 55.716 55.717s55.716-24.945 55.716-55.717S85.13.493 54.359.493-1.357 25.435-1.357 56.207z"/></clipPath><clipPath id="ctuin"><path d="M-1.357 56.207c0 30.772 24.945 55.717 55.716 55.717s55.716-24.945 55.716-55.717S85.13.493 54.359.493-1.357 25.435-1.357 56.207z"/></clipPath><clipPath id="ctuio"><path d="M-1.357 56.207c0 30.772 24.945 55.717 55.716 55.717s55.716-24.945 55.716-55.717S85.13.493 54.359.493-1.357 25.435-1.357 56.207z"/></clipPath><clipPath id="ctuip"><path d="M-1.357 56.207c0 30.772 24.945 55.717 55.716 55.717s55.716-24.945 55.716-55.717S85.13.493 54.359.493-1.357 25.435-1.357 56.207z"/></clipPath><clipPath id="ctuiq"><path d="M-1.357 56.207c0 30.772 24.945 55.717 55.716 55.717s55.716-24.945 55.716-55.717S85.13.493 54.359.493-1.357 25.435-1.357 56.207z"/></clipPath></defs><g><g/><g/><g/><g/><g clip-path="url(#ctuia)"><path fill="#f7f7f7" d="M36.665-3.749c-1.447 1.495-2.876 3.01-4.366 4.457-.216.21-.73.152-1.104.152C22.179.868 13.163.875 4.148.85c-.722-.004-1.123.171-1.473.843-.701 1.34-2.147 1.846-3.7 1.442-1.1-.285-2.163-1.749-2.165-2.979-.002-1.336 1.039-2.68 2.35-3.033 1.348-.365 2.834.197 3.499 1.467.354.676.77.845 1.49.844 8.792-.025 17.585-.024 26.376 0 .694 0 1.21-.167 1.674-.698.75-.857 1.567-1.659 2.355-2.485zM-1.611.143c-.003.974.62 1.621 1.576 1.633.925.01 1.7-.77 1.67-1.678-.03-.885-.761-1.569-1.672-1.56-.99.001-1.571.594-1.574 1.605z"/></g><g/><g/><g clip-path="url(#ctuib)"><path fill="#f7f7f7" d="M-12.456-3.749c4.94 4.952 9.87 9.914 14.833 14.843.55.547.764 1.086.753 1.843-.04 2.496.002 4.99-.03 7.483-.007.547.147.883.64 1.125 1.486.735 2.033 1.997 1.651 3.735-.263 1.203-1.507 2.115-2.918 2.142-1.524.031-2.722-.863-3.097-2.309-.372-1.433.31-2.814 1.67-3.603.302-.177.591-.664.6-1.016.05-2.427.05-4.859.001-7.289a1.986 1.986 0 0 0-.518-1.238C-2.918 7.877-7.003 3.825-11.06-.25c-1.132-1.14-2.21-2.332-3.314-3.498zm14.82 29.726a1.649 1.649 0 0 0 1.68-1.668c-.01-.88-.672-1.564-1.54-1.59-.996-.032-1.715.633-1.726 1.592a1.648 1.648 0 0 0 1.586 1.666z"/></g><g/><g/><g/><g clip-path="url(#ctuic)"><path fill="#f7f7f7" d="M61.802-3.749c-1.712 1.74-3.412 3.49-5.142 5.21-.538.535-.813.995-.462 1.812.45 1.052-.125 2.532-1.067 3.245-1.147.868-2.48.897-3.751.081-.938-.6-1.516-1.994-1.28-3.085.45-2.08 2.079-3.035 4.165-2.482.257.066.673.02.844-.149 1.55-1.522 3.06-3.082 4.582-4.632zm-6.927 7.774c-.003-.845-.905-1.68-1.766-1.636-.815.044-1.658.931-1.621 1.703.037.784.939 1.611 1.734 1.59.834-.023 1.655-.846 1.653-1.657z"/></g><g/><g/><g/><g/><g clip-path="url(#ctuid)"><path fill="#f7f7f7" d="M68.136 52.343c.003-.728-.088-1.179-.886-1.528-1.235-.539-1.804-2.335-1.39-3.727.343-1.15 1.714-2.094 3.02-2.078 1.42.018 2.653.98 2.994 2.336.347 1.372-.242 2.978-1.488 3.504-.737.312-.821.73-.821 1.385.01 11.958 0 23.916.023 35.872 0 .8-.23 1.37-.796 1.933a9348.86 9348.86 0 0 0-27.442 27.462c-.676.68-1.36.911-2.28.908-8.664-.024-17.33-.014-25.993-.024-.678 0-1.141.05-1.467.85-.504 1.236-2.134 1.768-3.495 1.46-1.651-.376-2.366-1.836-2.364-3.062.002-1.498 1.045-2.692 2.556-3.03 1.235-.28 2.852.438 3.35 1.636.257.617.616.718 1.166.718 8.697-.005 17.393.007 26.089-.025.475-.006 1.069-.25 1.404-.585a8705.743 8705.743 0 0 0 27.32-27.378c.287-.288.467-.818.469-1.235.029-5.946.02-11.893.02-17.839 0-5.85-.01-11.703.01-17.553zM7.18 117.674c-.012.798.953 1.741 1.75 1.712.815-.03 1.628-.873 1.629-1.693.002-.867-.845-1.707-1.705-1.69-.788.012-1.663.887-1.674 1.671zm61.674-71.218c-.84 0-1.622.786-1.634 1.643-.015.93.757 1.707 1.67 1.686.89-.022 1.573-.746 1.57-1.672-.003-.895-.741-1.657-1.606-1.657z"/></g><g/><g clip-path="url(#ctuie)"><path fill="#f7f7f7" d="M123.288 6.799c-.352-.667-.788-.842-1.508-.834a646.17 646.17 0 0 1-11.225.006c-.94-.008-1.88-.207-2.823-.221-.698-.01-1.397.146-2.098.22-.094.013-.204.04-.286.007-1.258-.512-2.517.11-3.767-.006-2.55-.24-5.094.11-7.644.029-2.588-.084-5.18-.047-7.769.008-.445.01-.984.264-1.308.58-2.808 2.75-5.56 5.557-8.376 8.299-.364.353-.987.62-1.49.62-12.984.036-25.967.036-38.949.022-1.868-.001-3.734-.132-5.602-.161-.63-.01-1.264.105-1.893.19-.135.02-.34.145-.363.253-.204.957-1.079 1.195-1.749 1.61-1.363.845-2.894.499-3.767-.77-.955-1.391-.754-3.238.46-4.23 1.587-1.294 3.844-.872 4.8.937.284.543.605.748 1.244.748 15.115-.024 30.23-.014 45.345-.04.383 0 .857-.212 1.134-.484 2.851-2.79 5.651-5.633 8.522-8.402.428-.412 1.152-.721 1.743-.727 5.115-.056 10.232-.037 15.348-.025.372.002.745.184 1.116.18 1.362-.012 2.722-.09 4.083-.102.816-.007 1.632.05 2.447.098.594.033 1.192.16 1.781.129 1.075-.06 2.144-.28 3.216-.297 2.685-.047 5.372-.045 8.057-.003.641.007.967-.206 1.265-.75.682-1.241 2.165-1.906 3.364-1.585 1.384.367 2.468 1.66 2.523 3.01.053 1.314-.982 2.732-2.323 3.148-.268.082-.565.074-.827.104-1.195-.043-2.139-.528-2.68-1.561zm-96.448 7.98a1.627 1.627 0 0 0-1.652-1.613c-.877.002-1.639.756-1.644 1.623-.006.91.761 1.64 1.71 1.627a1.587 1.587 0 0 0 1.586-1.636zm99.104-11.211c-.914.004-1.657.733-1.662 1.633-.004.862.776 1.653 1.641 1.662.884.01 1.635-.746 1.644-1.65.008-.881-.75-1.648-1.623-1.645z"/></g><g/><g clip-path="url(#ctuif)"><path fill="#f7f7f7" d="M15.424 27.499c-.99.04-2.625-1.362-2.856-2.37-.313-1.365.292-2.809 1.451-3.463 1.21-.682 2.898-.461 3.807.496.022.022.08.034.08.051.027 1.809 1.71 1.297 2.634 1.826.282.161.78-.076 1.18-.094 2.311-.103 4.625-.275 6.937-.279 15.154-.025 30.31-.017 45.463.004.803.002 1.366-.226 1.927-.801 2.66-2.715 5.371-5.383 8.045-8.085.477-.483.96-.727 1.671-.714 3.77.071 7.54.118 11.31.112 5.175-.004 10.352-.075 15.528-.075.588 0 .771-.308.971-.704.682-1.352 1.797-1.871 3.503-1.621 1.056.154 2.142 1.224 2.295 2.263.238 1.623-.318 2.908-1.519 3.494-1.364.668-2.788.449-3.772-.578-.044-.045-.123-.075-.137-.129-.435-1.55-1.675-1.304-2.835-1.303-4.412.014-8.824.008-13.237.008-3.853 0-7.707-.021-11.56.024-.475.006-1.062.252-1.4.586a588.203 588.203 0 0 0-8.227 8.266c-.514.525-1.06.695-1.77.687-3.006-.028-6.01-.012-9.016-.012h-39.9c-2.229 0-4.457.002-6.686 0-.708 0-1.24.141-1.287 1.037-.01.219-.46.529-.754.592-.306.065-.666-.119-1.028-.199.453.953-.286.959-.818.981zm.156-1.253c.72.028 1.931-1.154 1.923-1.873-.008-.656-1.09-1.621-1.842-1.637a1.615 1.615 0 0 0-1.66 1.58c-.04 1.352.397 1.887 1.58 1.93zM117.975 14.83a1.62 1.62 0 0 0-1.664-1.669c-.925.017-1.58.702-1.576 1.652.004.974.627 1.603 1.594 1.607.931.004 1.627-.67 1.646-1.59z"/></g><g/><g clip-path="url(#ctuig)"><path fill="#f7f7f7" d="M58.539 61.935c.003-.68-.11-1.113-.79-1.5-1.686-.969-2.094-2.615-1.205-4.248.789-1.453 2.563-1.984 4.134-1.242 2.074.982 2.366 4.027.41 5.26-.887.558-1.064 1.166-1.06 2.115.032 8.566.004 17.133.04 25.7.004.853-.288 1.425-.861 1.993a4680.01 4680.01 0 0 0-18.111 18.09c-.522.524-1.033.726-1.75.721-5.562-.022-11.124.005-16.687-.027-.813-.005-1.332.16-1.735.945-.618 1.203-2.038 1.721-3.346 1.387-1.356-.346-2.356-1.53-2.401-2.844-.048-1.359.838-2.729 2.049-3.164 1.439-.518 3.062.062 3.767 1.442.323.63.708.81 1.403.804 5.497-.03 10.996-.028 16.493-.002.617.002 1.064-.162 1.498-.598C46.21 100.91 52.056 95.074 57.86 89.2c.37-.375.634-1.035.64-1.565.05-4.314.03-8.63.029-12.945-.001-4.252-.013-8.502.009-12.754zM19.97 108.09c0-.907-.711-1.614-1.636-1.624-.94-.012-1.724.78-1.678 1.691.047.886.779 1.552 1.698 1.541.91-.01 1.615-.71 1.616-1.608zm37.647-50.402a1.618 1.618 0 0 0 1.584 1.676c.914.027 1.72-.76 1.703-1.666-.018-.888-.738-1.584-1.644-1.588-.932-.002-1.613.653-1.643 1.578z"/></g><g/><g/><g/><g/><g/><g/><g clip-path="url(#ctuih)"><path fill="#f7f7f7" d="M22.174 99.27c-.547-.004-.844.156-1.103.658-.741 1.424-2.288 2.056-3.702 1.596-1.395-.456-2.338-1.946-2.18-3.444.142-1.353 1.43-2.646 2.882-2.731 1.298-.079 2.366.471 2.967 1.661.3.596.67.801 1.332.797 5.5-.023 11 .002 16.5-.039.482-.004 1.078-.239 1.42-.575 2.7-2.63 5.367-5.298 8-7.997.334-.344.589-.93.592-1.407.04-5.5.016-11.002.042-16.502.003-.64-.218-.967-.771-1.254-1.24-.637-1.875-2.093-1.563-3.384.358-1.479 1.614-2.479 3.104-2.471 1.353.01 2.594.931 2.917 2.172.419 1.611-.065 2.953-1.424 3.654-.661.342-.866.756-.861 1.495.033 5.595.003 11.191.035 16.788.005.733-.218 1.258-.72 1.754a1372.254 1372.254 0 0 0-8.542 8.52c-.502.506-1.017.75-1.753.738-2.846-.041-5.692-.015-8.538-.015-2.878 0-5.756.011-8.634-.014zm29.185-31.978c-.02-.772-.921-1.636-1.703-1.633-.89.003-1.7.843-1.664 1.728.032.851.846 1.596 1.71 1.568.837-.027 1.678-.873 1.657-1.663zM18.365 96.897c-.911-.02-1.678.683-1.705 1.566-.026.871.732 1.66 1.619 1.686a1.673 1.673 0 0 0 1.694-1.604c.03-.879-.698-1.627-1.608-1.648z"/></g><g/><g/><g clip-path="url(#ctuii)"><path fill="#f7f7f7" d="M125.491 14.484c1.367-1.162 3.507-.983 4.586.442 1.057 1.396.765 3.53-.735 4.437-.804.487-.978 1.05-.968 1.914.046 3.614-.002 7.227.035 10.84.008.836-.237 1.436-.832 2.027-6.346 6.31-12.66 12.648-19.002 18.963-.489.487-.726.85-.448 1.606.488 1.334-.238 2.87-1.497 3.576-1.147.644-2.846.354-3.787-.64-.868-.917-1.071-2.688-.427-3.732.776-1.26 2.261-1.872 3.616-1.394.616.217.943.08 1.394-.374 6.32-6.36 12.671-12.688 18.998-19.04.237-.236.431-.638.433-.97.03-4.027.02-8.057.02-12.155-3.056-1.119-2.829-4.27-1.386-5.5zm-20.3 39.345c-.894-.034-1.694.765-1.688 1.681.006.863.769 1.636 1.625 1.644.897.008 1.602-.7 1.612-1.629.011-.916-.675-1.665-1.549-1.696zm20.747-36.999a1.63 1.63 0 0 0 1.629 1.631c.953.006 1.609-.654 1.61-1.623.002-1.005-.601-1.615-1.593-1.613-.943 0-1.64.68-1.646 1.605z"/></g><g/><g clip-path="url(#ctuij)"><path fill="#f7f7f7" d="M64.925 104.887c.662.233.99.027 1.395-.383 5.61-5.638 11.23-11.273 16.844-16.908.803-.804 1.566-1.654 2.425-2.392.368-.317.933-.57 1.413-.572 3.964-.044 7.927-.024 11.891-.014.48 0 .76-.088.995-.627.523-1.198 1.955-1.857 3.253-1.674 1.338.189 2.396 1.236 2.654 2.627.218 1.188-.455 2.568-1.574 3.226-1.518.895-3.678.14-4.443-1.491-.132-.28-.566-.591-.864-.593a620.178 620.178 0 0 0-11.412-.005c-.327 0-.729.199-.967.435-6.435 6.379-12.847 12.78-19.287 19.154-.47.465-.339.897-.232 1.383.29 1.324 0 2.43-1.119 3.294-1.03.794-2.178.808-3.25.325-1.142-.515-1.754-1.53-1.733-2.841.01-2.092 2.045-3.634 4.011-2.944zm39.453-19.428c.021-.825-.769-1.666-1.609-1.707-.874-.043-1.768.778-1.786 1.64-.015.792.848 1.663 1.672 1.683.828.02 1.701-.8 1.723-1.616zm-40.294 20.745c-.89-.024-1.669.689-1.705 1.563-.04.909.737 1.753 1.626 1.767.812.01 1.668-.816 1.695-1.641.028-.824-.778-1.667-1.616-1.69z"/></g><g/><g/><g clip-path="url(#ctuik)"><path fill="#f7f7f7" d="M51.456 47.236c.006.72-.184 1.254-.692 1.76C44.72 55.008 38.69 61.031 32.655 67.05c-.2.202-.403.403-.609.596-.66.63-1.164 1.143-.832 2.312.5 1.762-.8 3.371-2.586 3.67-1.66.28-3.28-.92-3.608-2.675-.386-2.08 1.8-4.06 3.874-3.447.742.221 1.206.088 1.746-.456 6.245-6.294 12.52-12.56 18.76-18.858.315-.319.546-.87.552-1.317.043-3.676.023-7.352.027-11.029 0-.526-.039-.876-.687-1.14-1.455-.597-2.18-2.38-1.697-3.736.577-1.627 2.07-2.514 3.668-2.179 1.577.328 2.657 1.797 2.461 3.467-.16 1.355-1.027 2.195-2.285 2.677 0 4.115-.016 8.208.017 12.301zm-21.635 23.37c.05-.84-.795-1.766-1.629-1.784-.793-.02-1.637.827-1.657 1.658-.019.84.765 1.692 1.581 1.723.815.03 1.655-.758 1.705-1.598zM48.974 31.81c-.028.938.725 1.688 1.676 1.67.882-.02 1.636-.788 1.618-1.65-.017-.865-.78-1.613-1.647-1.615a1.618 1.618 0 0 0-1.647 1.595z"/></g><g/><g/><g/><g/><g/><g clip-path="url(#ctuil)"><path fill="#f7f7f7" d="M77.296 77.977c-.004.644.38.803.783 1.04 1.313.778 1.918 2.21 1.516 3.579-.387 1.313-1.9 2.363-3.28 2.277-1.347-.084-2.574-1.177-2.914-2.6-.274-1.138.378-2.6 1.52-3.196.68-.358.899-.807.894-1.573-.034-5.175-.028-10.35-.003-15.524.004-.717-.1-1.185-.834-1.577-1.27-.676-1.867-2.145-1.563-3.295.38-1.43 1.46-2.381 2.81-2.476 1.509-.108 2.627.584 3.238 1.997.686 1.59-.144 3.26-2.147 4.229 0 5.748.014 11.434-.02 17.119zm-.728-21.867c-.978-.014-1.696.683-1.687 1.636a1.642 1.642 0 0 0 1.65 1.617c.875-.007 1.636-.76 1.644-1.63.008-.88-.717-1.61-1.607-1.623zm-.077 23.94c-.88.018-1.626.808-1.601 1.696.023.889.8 1.633 1.675 1.604.923-.03 1.637-.775 1.612-1.678-.025-.867-.83-1.64-1.686-1.621z"/></g><g/><g/><g/><g/><g clip-path="url(#ctuim)"><path fill="#f7f7f7" d="M41.473 42.312c-1.14-.52-1.761.21-2.465.924A1385.87 1385.87 0 0 1 28.432 53.8c-.512.507-.687.936-.451 1.667.534 1.653-.642 3.467-2.367 3.813-1.82.365-3.503-.859-3.767-2.74-.234-1.678 1.1-3.273 2.837-3.383.254-.018.542-.068.76.023 1.097.464 1.699-.18 2.394-.888 3.505-3.555 7.045-7.075 10.593-10.588.518-.514.777-.916.454-1.709-.445-1.09.244-2.668 1.259-3.348 1.058-.71 2.725-.667 3.69.092 1.019.802 1.51 2.217 1.152 3.312-.48 1.465-1.56 2.276-3.038 2.27-.16 0-.342.051-.475-.008zm-14.81 13.875c-.014-.839-.84-1.609-1.71-1.599-.835.01-1.692.846-1.684 1.64.01.84.807 1.605 1.678 1.615.936.01 1.732-.76 1.717-1.656zm13.624-16.994c-.045.926.714 1.693 1.665 1.688a1.634 1.634 0 0 0 1.64-1.627c.009-.877-.712-1.589-1.624-1.6-.925-.01-1.637.638-1.681 1.54z"/></g><g/><g clip-path="url(#ctuin)"><path fill="#f7f7f7" d="M93.68 42.258c-1.588.47-2.999-.184-3.738-1.664-.228-.46-.512-.61-1.03-.608-5.438.022-10.874.013-16.31.013-.454 0-.805-.01-1.039.571-.57 1.42-2.14 2.086-3.737 1.712-1.16-.274-2.222-1.717-2.22-3.024.002-1.446.98-2.672 2.417-3.033 1.387-.352 2.946.308 3.517 1.63.245.567.551.685 1.076.685 5.435-.007 10.873.01 16.31-.03.34-.004.82-.323.994-.63.756-1.33 2.09-2.009 3.503-1.672 1.491.357 2.378 1.475 2.391 3.012.116 1.752-1.14 2.745-2.134 3.038zM67.05 39.18c-.05.832.812 1.707 1.687 1.71.88.006 1.672-.746 1.688-1.598.013-.865-.739-1.62-1.626-1.637-.905-.018-1.7.677-1.749 1.525zm24.083.112c.01.945.701 1.622 1.638 1.601a1.626 1.626 0 0 0 1.596-1.665c-.017-.942-.702-1.587-1.67-1.575-1.005.013-1.574.611-1.564 1.64z"/></g><g/><g clip-path="url(#ctuio)"><path fill="#f7f7f7" d="M102.476 33.258c-1.262.337-2.741-.213-3.337-1.422-.396-.805-.912-.96-1.726-.955-5.177.032-10.355.023-15.531.007-.63-.002-1.016.122-1.336.761-.616 1.226-1.964 1.87-3.144 1.682-1.316-.207-2.384-1.148-2.647-2.397-.29-1.385.16-2.497 1.313-3.33 1.428-1.031 3.52-.537 4.474 1.16.322.57.674.707 1.268.707a1734.51 1734.51 0 0 1 15.804.005c.726.004 1.149-.188 1.502-.858.655-1.246 2.119-1.801 3.423-1.43 1.484.42 2.42 1.61 2.407 3.059-.016 1.44-.978 2.613-2.47 3.012zm-24.685-1.35c.828.002 1.627-.82 1.637-1.68.009-.86-.772-1.692-1.606-1.71-.89-.019-1.657.788-1.646 1.728.01.882.769 1.663 1.615 1.663zm24.019-3.389c-.824-.022-1.712.882-1.692 1.726.018.812.866 1.664 1.656 1.664.804 0 1.632-.843 1.64-1.676.013-.822-.803-1.693-1.604-1.713z"/></g><g/><g clip-path="url(#ctuip)"><path fill="#f7f7f7" d="M119.603 31.37c-1.161-.662-1.716.242-2.366.894-3.531 3.535-7.044 7.09-10.608 10.591-.543.536-.653.998-.448 1.67.492 1.616-.44 2.963-1.445 3.503-1.42.761-3.043.405-4.025-.856-.833-1.067-.867-2.268-.261-3.409.62-1.175 1.738-1.835 3.022-1.497 1.318.346 1.979-.26 2.788-1.084 3.506-3.569 7.074-7.077 10.618-10.605.347-.347.528-.633.31-1.227-.608-1.65.32-3.424 1.956-3.993 1.563-.542 3.31.266 3.928 1.817.627 1.58-.09 3.34-1.686 4.04-.367.161-.802.17-1.046.22-.36-.028-.587.021-.737-.065zM104.9 45.29c-.005-.817-.844-1.634-1.684-1.64-.911-.01-1.722.803-1.691 1.694.032.875.793 1.578 1.697 1.565.863-.013 1.684-.804 1.678-1.62zm13.61-16.974c-.01.905.712 1.626 1.634 1.63.977.007 1.61-.634 1.612-1.62 0-.99-.6-1.596-1.591-1.6-.926-.009-1.643.683-1.654 1.59z"/></g><g/><g clip-path="url(#ctuiq)"><path fill="#f7f7f7" d="M19.508 40.707c-.305-.635-.703-.732-1.33-.728-3.74.025-7.481.02-11.222.001-.43 0-.86-.158-1.293-.232-.244-.043-.496-.113-.738-.092-1.06.086-2.117.274-3.175.278-.578.001-.772.126-.88.69-.255 1.337-2.331 2.058-3.56 1.454-.972-.478-1.805-.914-2.107-2.06-.348-1.326.309-2.885 1.596-3.534 1.329-.669 3.118-.333 3.907.74a.333.333 0 0 1 .078.171c.05 1.244.807 1.152 1.778 1.134 4.152-.074 8.306-.03 12.46-.025.67 0 1.344-.03 2.013.006 1.193.065 2.174.072 2.876-1.307.633-1.24 2.48-1.392 3.854-.689 1.215.621 1.85 2.102 1.506 3.496-.362 1.448-1.524 2.328-3.07 2.32-1.254.053-2.17-.535-2.693-1.623zm-21.415.346c1.01-.034 2.01-1.065 2.002-2.067-.006-.699-.826-1.583-1.44-1.553-1.2.053-2 .786-1.993 1.821.006.988.67 1.824 1.43 1.8zm24.135-3.404c-.967.003-1.637.667-1.625 1.617a1.629 1.629 0 0 0 1.65 1.615c.925-.008 1.596-.707 1.59-1.656-.006-1.038-.562-1.582-1.615-1.576z"/></g><g/></g></svg>